<svg width="47" height="60" viewBox="0 0 47 60" fill="none" xmlns="http://www.w3.org/2000/svg">
<path fill-rule="evenodd" clip-rule="evenodd" d="M24.9813 7.61341C25.2294 6.7901 25.4763 5.96667 25.7268 5.14414C25.7513 5.0642 25.7609 4.96095 25.8832 4.95671C25.8943 4.95615 25.9082 4.93865 25.9132 4.92605C25.9379 4.86171 25.9614 4.79682 25.9827 4.7317C26.0048 4.66391 26.0091 4.58397 26.05 4.53034C26.0881 4.48139 26.0837 4.45485 26.0477 4.42341C26.0108 4.39096 25.9771 4.38617 25.9263 4.42296C25.8416 4.48551 25.7433 4.53 25.6496 4.58096C25.5589 4.63069 25.4664 4.67919 25.3754 4.72936C25.3514 4.74285 25.3322 4.76961 25.3075 4.77463C25.1539 4.80909 24.9999 4.84309 24.8447 4.86807C24.7445 4.88424 24.6279 4.91757 24.5436 4.88267C24.4604 4.84833 24.4085 4.73739 24.3432 4.65968C24.3372 4.65265 24.3317 4.6444 24.3251 4.63838C24.1868 4.51082 24.1397 4.34803 24.1239 4.16462C24.1107 4.01487 24.0643 3.87137 23.9107 3.79689C23.8942 3.78898 23.8727 3.77872 23.8664 3.76422C23.8497 3.72419 23.8311 3.68093 23.8307 3.63912C23.8307 3.62563 23.8854 3.6079 23.9171 3.59976C23.9464 3.59184 23.9787 3.59184 24.0094 3.59341C24.071 3.59575 24.0902 3.56843 24.0998 3.50733C24.1124 3.42716 24.1258 3.31666 24.18 3.28143C24.2638 3.22668 24.2336 3.19602 24.198 3.14573C24.1425 3.06601 24.2526 3.03 24.246 2.96332C24.2769 2.96065 24.3086 2.95541 24.3394 2.95663C24.4012 2.95975 24.463 2.97469 24.5239 2.9689C24.5516 2.966 24.5762 2.92686 24.6023 2.90412C24.5808 2.88538 24.5616 2.85996 24.537 2.84903C24.4748 2.82138 24.4091 2.80287 24.347 2.77533C24.3209 2.76351 24.288 2.74244 24.2796 2.71836C24.1862 2.44596 23.9635 2.35732 23.7106 2.31651C23.4573 2.27615 23.1834 2.54765 23.2147 2.80098C23.2282 2.91114 23.2145 2.91571 23.1014 2.90188C23.0562 2.89631 23.004 2.92876 22.9586 2.95139C22.9317 2.96466 22.912 2.99242 22.8863 3.01573C22.9189 3.05587 22.9406 3.09935 22.8581 3.14083C22.8371 3.15142 22.8433 3.21698 22.8338 3.27775C22.8034 3.27251 22.7504 3.26716 22.699 3.2559C22.5394 3.22133 22.386 3.21163 22.2603 3.34498C22.2414 3.3655 22.2169 3.38011 22.1936 3.39583C22.0877 3.46429 22.0384 3.56074 22.0194 3.68662C22.0014 3.80615 21.957 3.92199 21.9229 4.03873C21.92 4.04988 21.9076 4.05814 21.8986 4.06639C21.8185 4.14198 21.7297 4.2003 21.6634 4.30098C21.5769 4.43277 21.4314 4.52476 21.3125 4.63503C21.2987 4.64763 21.2899 4.6677 21.2834 4.68577C21.2723 4.71654 21.2723 4.75445 21.2543 4.78032C21.2024 4.85357 21.1438 4.9217 21.0882 4.99239C21.0126 5.08839 20.973 5.19577 20.9813 5.32009C20.9899 5.44686 20.998 5.57386 20.9991 5.70064C20.9997 5.75036 20.9769 5.79998 20.9703 5.85016C20.9628 5.91048 20.9415 5.97927 20.9628 6.02889C20.9828 6.0755 21.0492 6.12913 21.0968 6.13047C21.1642 6.13281 21.1514 6.05654 21.1493 6.00536C21.1481 5.97559 21.142 5.94571 21.1378 5.91427C21.2194 5.9311 21.2509 5.97526 21.2431 6.0581C21.2354 6.14072 21.2422 6.22524 21.2418 6.30864C21.2415 6.36673 21.2698 6.38357 21.3287 6.37309V6.03179C21.5617 6.08609 21.7824 6.13704 21.9984 6.18711C21.9984 6.25222 21.9985 6.30195 21.9984 6.35112C21.9981 6.48526 21.9977 6.62329 22.0875 6.73234C22.1558 6.81596 22.1273 6.87506 22.0695 6.94174C21.1332 8.01838 20.1975 9.09501 19.2617 10.172C19.2865 10.1903 19.3108 10.209 19.3349 10.2282C20.1252 9.32838 20.9158 8.42858 21.7066 7.52856C21.8078 7.41349 21.9097 7.29865 22.019 7.17477C21.9984 7.40702 21.9877 7.62367 21.9574 7.83719C21.937 7.98203 21.9106 8.13344 21.8477 8.26245C21.789 8.3832 21.6735 8.47497 21.5924 8.58647C21.5 8.71279 21.411 8.84303 21.3339 8.97872C21.2705 9.09055 21.2337 9.21711 21.172 9.33017C21.095 9.47133 21.0067 9.60669 20.9193 9.74183C20.8809 9.80137 20.8443 9.87975 20.7871 9.90562C20.6934 9.94765 20.6617 10.0266 20.6167 10.1009C20.58 10.1607 20.5459 10.2235 20.5178 10.2879C20.5061 10.3149 20.4989 10.3663 20.5137 10.3795C20.6278 10.4784 20.7467 10.5801 20.9127 10.5592C20.9855 10.5499 21.0264 10.5819 21.0747 10.6252C21.1163 10.6616 21.1688 10.7036 21.2201 10.7091C21.3521 10.7228 21.4859 10.7226 21.6185 10.7166C21.6545 10.7153 21.689 10.6743 21.7242 10.6514C21.69 10.6174 21.6595 10.5777 21.6207 10.5499C21.5732 10.5157 21.5136 10.4978 21.4687 10.4603C21.4292 10.4283 21.4026 10.3798 21.3698 10.3381C21.2341 10.1663 21.1622 9.97653 21.35 9.79088C21.3718 9.76948 21.3897 9.74338 21.4085 9.71885C21.6702 9.38202 22.0044 9.10315 22.2059 8.71781C22.2147 8.70098 22.2424 8.69317 22.2625 8.68314C22.2853 8.67154 22.3107 8.66418 22.3329 8.65158C22.481 8.56528 22.5299 8.41409 22.5824 8.26557C22.648 8.07948 22.7115 7.89305 22.783 7.70997C22.8455 7.54963 22.9177 7.39398 22.9832 7.242C23.1058 7.31359 23.2217 7.39922 23.3507 7.45397C23.5616 7.54328 23.7488 7.66403 23.9259 7.80641C23.9931 7.8606 24.0259 7.92929 24.0284 8.00132C24.0437 8.40684 24.1583 8.78059 24.3677 9.12657C24.4012 9.18165 24.4029 9.23138 24.3824 9.29237C24.2835 9.58862 24.189 9.88622 24.0938 10.1836C24.0816 10.2219 24.0531 10.2712 24.1394 10.2753C24.246 9.96259 24.352 9.64727 24.4677 9.30675C24.5331 9.45248 24.5902 9.57457 24.6427 9.6989C24.6637 9.74684 24.6961 9.79802 24.6369 9.8482C24.6266 9.85689 24.6415 9.89893 24.6495 9.9239C24.6583 9.95289 24.6705 9.98121 24.6843 10.008C24.7313 10.0971 24.773 10.1902 24.8312 10.271C24.8514 10.2989 24.9219 10.3143 24.9588 10.3022C25.064 10.2678 25.1636 10.2173 25.2654 10.1713C25.2818 10.1642 25.3072 10.1506 25.308 10.1389C25.3161 10.0343 25.3902 10.0437 25.4624 10.0404C25.4953 10.0393 25.5279 10.0234 25.5599 10.0124C25.7309 9.95434 25.8498 9.82534 25.9751 9.70592C26.0646 9.62051 26.051 9.56889 25.9381 9.5166C25.8731 9.48638 25.8253 9.51347 25.7772 9.55261C25.6823 9.62899 25.5816 9.67916 25.4541 9.63534C25.3678 9.60535 25.2807 9.57045 25.1913 9.55974C25.0366 9.5419 24.9615 9.441 24.9191 9.314C24.851 9.10884 24.7995 8.89844 24.7358 8.69206C24.702 8.5829 24.7155 8.48244 24.75 8.37651C24.8311 8.12397 24.9049 7.86819 24.9813 7.61341ZM24.6936 8.22922C24.6861 8.25475 24.6749 8.27917 24.666 8.30393C24.6547 8.30359 24.6438 8.3027 24.6323 8.30203C24.6116 8.13768 24.5876 7.97333 24.5714 7.80842C24.5687 7.77308 24.5942 7.73472 24.6153 7.67418C24.5749 7.4698 24.4323 7.30299 24.259 7.14957C23.9691 6.89334 23.6884 6.62664 23.406 6.36149C23.3744 6.33217 23.3594 6.28489 23.3374 6.24754C23.4518 6.16849 23.4705 6.07695 23.4605 5.94036C23.4525 5.83923 23.4898 5.73475 23.5047 5.63151C23.511 5.59047 23.5103 5.54821 23.5141 5.5064C23.5242 5.39836 23.5347 5.28976 23.5474 5.18194C23.5491 5.17068 23.5648 5.15239 23.5755 5.15128C23.7461 5.13165 23.852 5.03944 23.8828 4.84599C23.9634 4.93374 24.0238 5.00744 24.0924 5.07222C24.1888 5.16276 24.2899 5.24862 24.3927 5.33269C24.4131 5.3493 24.4514 5.358 24.4772 5.35276C24.7676 5.28987 25.0521 5.20825 25.3182 5.07033C25.3643 5.04591 25.4132 5.01937 25.4632 5.00978C25.5042 5.00153 25.565 5.00153 25.5889 5.02617C25.6128 5.0507 25.6146 5.11248 25.6037 5.15273C25.555 5.33481 25.4991 5.51499 25.4456 5.69606C25.1949 6.54023 24.9442 7.38483 24.6936 8.22922Z" fill="#04AB54"/>
<path d="M23.023 60C14.4303 60 6.68417 58.6924 2.30213 56.5023C2.20847 56.4548 2.11949 56.4089 2.0313 56.3633C2.02427 56.3596 2.01736 56.356 2.01056 56.352C0.770349 55.6492 0 54.3263 0 52.8995V11.4968C0 11.3383 0.00557508 11.1898 0.0168365 11.0429C0.247863 7.99072 2.79852 5.17302 7.19896 3.11017C11.4772 1.10451 17.0969 0 23.023 0C28.9489 0 34.5685 1.10451 38.8463 3.11017C43.2463 5.17313 45.7967 7.99061 46.0278 11.0439C46.0391 11.1902 46.0445 11.3386 46.0445 11.4969V52.8996C46.0445 54.3165 45.281 55.6357 44.0522 56.3421C44.0471 56.3452 44.0418 56.3481 44.0366 56.3508C43.9377 56.404 43.8365 56.4558 43.7339 56.5063C39.3567 58.6932 31.6129 60 23.023 60ZM2.62291 55.2487C2.7042 55.2908 2.78626 55.333 2.86955 55.3752C7.01855 57.449 14.7421 58.7383 23.023 58.7383C31.301 58.7383 39.0223 57.4497 43.1737 55.3757C43.2632 55.3316 43.348 55.2884 43.4309 55.2439C44.2649 54.7607 44.7828 53.8633 44.7828 52.8996V11.4968C44.7828 11.3711 44.7785 11.2543 44.7698 11.1398C44.3575 5.69272 34.6019 1.26173 23.0231 1.26173C11.4434 1.26173 1.68732 5.69272 1.27522 11.139C1.2663 11.2542 1.26206 11.3709 1.26206 11.4968V52.8995C1.26195 53.8691 1.78321 54.7681 2.62291 55.2487Z" fill="#04AB54"/>
<path fill-rule="evenodd" clip-rule="evenodd" d="M13.4492 16.9217C14.3811 16.938 15.3136 16.9405 16.2455 16.9363C16.4756 16.9355 16.5685 16.9989 16.5638 17.2464C16.5496 18.0043 16.5589 18.7623 16.5589 19.5202C16.5595 22.5952 16.5599 25.6701 16.5618 28.7446C16.5618 28.9002 16.534 29.0409 16.4444 29.1741C16.1065 29.6778 15.7731 30.1844 15.4435 30.6933C15.3967 30.7653 16.8207 30.6768 16.8644 30.6105C18.3474 28.358 19.8306 26.1055 21.3133 23.853C21.6384 23.3594 21.963 22.8653 22.2877 22.3713C22.3122 22.3809 22.3367 22.39 22.3614 22.3996C22.3576 23.6413 22.3981 24.8835 22.3075 26.1238C22.2141 27.4007 22.0172 30.2721 21.3021 31.3542C21.049 31.7372 20.7423 32.0709 20.3382 32.302C20.1578 32.4052 19.9686 32.4714 19.7705 32.5068L20.9527 32.1763L24.0467 35.1784L26.5177 32.7107C26.1027 32.632 25.54 32.2183 25.2295 31.9016C24.5041 31.1628 24.1507 30.2342 23.8839 29.2583C23.5755 28.1287 23.5094 25.313 23.4981 24.1626C23.4923 23.5833 23.4969 23.0038 23.4969 22.4245C23.5298 22.4174 23.5627 22.4103 23.5951 22.4034C25.282 24.9672 26.9684 27.531 28.655 30.0948C28.8106 30.3317 29.929 29.938 29.6739 29.5586C29.6072 29.46 29.5398 29.3611 29.4724 29.2628C29.3467 29.0793 29.2922 28.8932 29.2934 28.6693C29.3004 27.2741 29.2963 25.879 29.2963 24.484C29.2963 22.0761 29.3001 19.6684 29.2917 17.2611C29.2909 17.0031 29.3799 16.9343 29.6247 16.9374C30.5353 16.9469 31.4465 16.9406 32.3571 16.936C32.7892 16.9339 33.0464 16.7222 33.0479 16.3809C33.0497 16.0225 32.819 15.8253 32.3842 15.7991C31.5205 15.747 30.7744 15.4319 30.1749 14.796C30.1209 14.7385 30.0226 14.6803 30.0493 14.6024C30.0867 14.4955 30.2074 14.5442 30.2916 14.5434C30.8683 14.5383 31.4452 14.5479 32.0217 14.5351C32.3348 14.5281 32.5449 14.3202 32.5753 14.0336C32.6061 13.7431 32.4367 13.4876 32.1491 13.4197C32.023 13.3897 31.8878 13.3996 31.7574 13.3848C30.9982 13.2998 30.3732 12.969 29.8912 12.3708C29.7784 12.2305 29.7855 12.1618 29.9845 12.1627C30.4294 12.1648 30.8747 12.1644 31.3197 12.1603C31.6905 12.1566 31.9452 11.933 31.9565 11.6097C31.9681 11.2863 31.7256 11.0457 31.3593 11.0171C30.1456 10.9225 29.4002 10.1785 29.2982 8.96024C29.2662 8.57936 29.0405 8.34421 28.716 8.3538C28.3931 8.36339 28.1512 8.60568 28.1544 8.98399C28.1636 9.92126 27.3537 10.9872 26.1088 11.018C25.7342 11.0276 25.4886 11.2763 25.499 11.5961C25.5095 11.934 25.7742 12.1608 26.1583 12.1617C26.5728 12.1625 26.9874 12.1617 27.4015 12.1667C27.4769 12.1675 27.5783 12.1246 27.6228 12.2104C27.6682 12.2986 27.5771 12.3565 27.5276 12.4148C26.9941 13.042 26.3165 13.3692 25.4906 13.3958C25.1165 13.4078 24.8616 13.671 24.8729 14.0051C24.8829 14.3064 25.1385 14.5309 25.4961 14.5387C25.8398 14.5457 26.1845 14.5354 26.5282 14.5434C26.8246 14.5499 27.1243 14.5087 27.4301 14.572C27.3682 14.7452 27.2478 14.8408 27.1389 14.942C26.5241 15.5109 25.7874 15.7764 24.9583 15.8052C24.7065 15.8139 24.5351 15.9383 24.4476 16.1664C24.3703 16.3695 24.3997 16.5677 24.5468 16.735C24.6999 16.9094 24.9064 16.9427 25.1265 16.9423C26.0072 16.9405 26.8879 16.9551 27.7677 16.9356C28.0766 16.9289 28.1606 17.0225 28.1598 17.3288C28.1494 20.4845 28.154 23.6401 28.1523 26.7959C28.1523 26.8999 28.1753 27.0115 28.1208 27.1121C28.0125 27.0789 27.9868 26.9956 27.9443 26.9316C26.5399 24.8052 25.1378 22.6771 23.7315 20.5524C23.6311 20.4009 23.6506 20.2889 23.748 20.1453C24.1173 19.6013 24.4769 19.0507 24.8334 18.4988C25.0594 18.1487 25.0067 17.8078 24.7103 17.6227C24.4236 17.4433 24.1036 17.5366 23.882 17.8686C23.6127 18.2723 23.3348 18.6711 23.0849 19.0869C22.9621 19.2913 22.8989 19.2772 22.7823 19.0932C22.5164 18.6748 22.2441 18.2604 21.9644 17.8508C21.7318 17.5103 21.4488 17.4491 21.1396 17.6538C20.8547 17.8428 20.8021 18.1453 21.0101 18.4738C21.2488 18.8497 21.497 19.2222 21.7504 19.5835C22.1489 20.152 22.2658 20.291 22.1039 20.5524C22.0665 20.6132 21.766 21.1155 21.7495 21.1401C20.529 22.9864 19.3078 24.8326 18.0866 26.6786C17.9838 26.8338 17.8781 26.9875 17.7736 27.1418C17.7075 27.0244 17.6956 26.9278 17.6953 26.8317C17.6937 25.9826 17.6937 25.1339 17.6937 24.2849C17.6941 21.9479 17.6995 19.6109 17.6891 17.2739C17.6879 16.9947 17.7838 16.9263 18.04 16.9368C18.4541 16.9531 18.8694 16.9405 19.2844 16.9401C19.8105 16.9397 20.337 16.9493 20.8627 16.9347C21.2165 16.9251 21.4495 16.6824 21.4504 16.3661C21.4512 16.0423 21.2278 15.8267 20.8652 15.8021C20.7944 15.797 20.7232 15.7979 20.6529 15.7917C19.8454 15.7184 19.1562 15.3909 18.5852 14.8177C18.5248 14.7574 18.4203 14.6862 18.4541 14.5964C18.4925 14.4953 18.6152 14.5439 18.6993 14.5435C19.2661 14.5384 19.8329 14.548 20.3993 14.5364C20.7549 14.5291 20.966 14.3046 20.977 13.9618C20.9864 13.67 20.7455 13.4251 20.4178 13.3957C20.3475 13.3894 20.2759 13.3952 20.2055 13.389C19.4304 13.3186 18.7958 12.982 18.3047 12.3785C18.2634 12.3277 18.1825 12.2699 18.2385 12.1987C18.266 12.1641 18.3487 12.1645 18.4066 12.1645C18.8619 12.1617 19.3177 12.1724 19.7726 12.1587C20.1181 12.1479 20.3474 11.919 20.3524 11.6181C20.3577 11.2751 20.1536 11.027 19.8021 11.0224C18.5597 11.0061 17.7021 10.0073 17.6961 8.91219C17.6949 8.66499 17.57 8.49262 17.3336 8.40609C16.9076 8.24999 16.5771 8.50934 16.5536 9.0374C16.5016 10.2099 15.4895 10.9995 14.53 11.0265C14.1567 11.037 13.9132 11.2446 13.9045 11.5784C13.8966 11.8915 14.1313 12.1374 14.4814 12.1561C14.7538 12.1703 15.028 12.1479 15.3004 12.1603C15.5527 12.1719 15.8116 12.1249 16.0845 12.2041C15.8452 12.5582 15.5709 12.8204 15.2325 13.0151C14.8028 13.2629 14.3419 13.3852 13.844 13.401C13.5065 13.4114 13.2796 13.657 13.2782 13.9588C13.2767 14.2737 13.4919 14.506 13.8249 14.5331C13.9959 14.5468 14.1686 14.5409 14.3405 14.5413C14.8317 14.5422 15.3227 14.5418 15.8239 14.5418C15.8044 14.7021 15.7232 14.774 15.6437 14.8506C15.0369 15.4376 14.3151 15.7576 13.4698 15.7993C13.0448 15.8204 12.8201 16.0149 12.8146 16.3552C12.8089 16.6995 13.0284 16.9147 13.4492 16.9217Z" fill="#04AB54"/>
<path fill-rule="evenodd" clip-rule="evenodd" d="M11.293 9.79018C11.2906 9.39603 11.5837 9.09766 11.9727 9.09766C12.352 9.0981 12.67 9.41275 12.6696 9.78739C12.6688 10.1607 12.3467 10.484 11.9761 10.4833C11.5926 10.4819 11.2952 10.1807 11.293 9.79018Z" fill="#04AB54"/>
<path fill-rule="evenodd" clip-rule="evenodd" d="M22.9072 14.4565C22.5192 14.4629 22.2235 14.1644 22.2227 13.7661C22.2219 13.3936 22.5169 13.0927 22.8939 13.0823C23.2712 13.0719 23.5942 13.3861 23.5984 13.7674C23.6021 14.1557 23.307 14.4504 22.9072 14.4565Z" fill="#04AB54"/>
<path fill-rule="evenodd" clip-rule="evenodd" d="M16.5979 5.34996C16.6058 4.9596 16.8883 4.66479 17.2529 4.66602C17.6267 4.66736 17.9638 4.99617 17.9576 5.35408C17.9506 5.75191 17.6525 6.04906 17.2646 6.04449C16.8614 6.03992 16.5892 5.75648 16.5979 5.34996Z" fill="#04AB54"/>
<path fill-rule="evenodd" clip-rule="evenodd" d="M36.6817 16.3594C36.6771 15.9652 36.9738 15.6605 37.363 15.6602C37.7405 15.6593 38.0634 15.9802 38.0602 16.3527C38.0568 16.7168 37.7516 17.0257 37.3838 17.0374C36.9959 17.0494 36.6863 16.7506 36.6817 16.3594Z" fill="#04AB54"/>
<path fill-rule="evenodd" clip-rule="evenodd" d="M9.49495 16.347C9.49561 16.7366 9.18397 17.0496 8.80343 17.0421C8.41552 17.0347 8.10778 16.722 8.11336 16.3411C8.11893 15.9625 8.43191 15.6715 8.82461 15.6603C9.12622 15.6512 9.53107 16.025 9.49495 16.347Z" fill="#04AB54"/>
<path fill-rule="evenodd" clip-rule="evenodd" d="M34.8539 9.77054C34.8609 10.1592 34.5692 10.4605 34.1726 10.4743C33.8018 10.4873 33.4742 10.1622 33.4746 9.78225C33.4754 9.41185 33.7725 9.10879 34.1459 9.09797C34.5371 9.0866 34.8467 9.38096 34.8539 9.77054Z" fill="#04AB54"/>
<path fill-rule="evenodd" clip-rule="evenodd" d="M30.7164 5.38265C30.7139 5.74068 30.4113 6.04652 30.0604 6.04652C29.6503 6.04607 29.3349 5.73978 29.3399 5.34653C29.3445 4.97356 29.6766 4.65434 30.0512 4.66225C30.4296 4.67062 30.7188 4.98393 30.7164 5.38265Z" fill="#04AB54"/>
<path fill-rule="evenodd" clip-rule="evenodd" d="M40.1838 8.904C40.1555 8.93601 40.1276 8.96757 40.0993 8.99969C40.0781 8.97805 40.0568 8.9563 40.0352 8.93511C40.0755 8.91593 40.1167 8.89764 40.1576 8.87891C40.1658 8.88738 40.175 8.89564 40.1838 8.904Z" fill="#04AB54"/>
<path fill-rule="evenodd" clip-rule="evenodd" d="M40.1211 8.88967C40.1389 8.86815 40.1586 8.85097 40.1814 8.88264C40.1828 8.88443 40.1595 8.90383 40.1473 8.91476C40.1386 8.90629 40.1293 8.89804 40.1211 8.88967Z" fill="#04AB54"/>
<path fill-rule="evenodd" clip-rule="evenodd" d="M31.1425 20.6859C31.1558 21.0073 31.3911 21.2175 31.7519 21.2228C32.1768 21.2287 32.6017 21.2274 33.0268 21.2349C33.1108 21.2365 33.2324 21.1865 33.2703 21.2881C33.3032 21.3772 33.2012 21.4467 33.1425 21.5125C32.6127 22.1101 31.953 22.436 31.1501 22.4673C30.7493 22.4831 30.5088 22.7095 30.5133 23.0483C30.5175 23.3899 30.7656 23.6052 31.1663 23.6081C31.7228 23.6118 32.2796 23.6095 32.8362 23.614C32.9099 23.6148 33.0201 23.5737 33.0447 23.6748C33.056 23.7205 32.9856 23.7954 32.939 23.8454C32.3455 24.4809 31.6122 24.8218 30.7436 24.8585C30.2346 24.8801 29.9361 25.2077 30.0785 25.6183C30.1841 25.9226 30.4268 26.0129 30.7265 26.012C31.6435 26.0099 32.5607 26.018 33.4781 26.0075C33.7041 26.0051 33.8074 26.0529 33.8057 26.3055C33.7958 27.7319 33.797 30.9383 33.8029 32.3647C33.8037 32.4846 33.7774 32.5533 33.7164 32.5899H35.0644C34.9599 32.54 34.9283 32.4381 34.9301 32.2628C34.94 30.9068 34.9368 27.7711 34.9388 26.4147C34.9397 26.0129 34.9404 26.01 35.3412 26.0093C36.2519 26.0075 37.163 26.0155 38.0736 26.0064C38.4607 26.0022 38.6666 25.7861 38.6712 25.4282C38.6758 25.1056 38.4939 24.913 38.1185 24.8854C37.2845 24.8251 36.5332 24.5733 35.9214 23.9803C35.8235 23.8857 35.7091 23.7996 35.6567 23.611C36.3002 23.611 36.9135 23.6135 37.5267 23.6106C37.9558 23.6084 38.2075 23.4021 38.2163 23.0541C38.2251 22.7045 37.9796 22.4831 37.5571 22.4648C36.825 22.4328 36.2039 22.1514 35.6937 21.629C35.5921 21.5254 35.4781 21.4223 35.4353 21.2569C35.4953 21.247 35.5335 21.2353 35.5723 21.2353C36.0579 21.2321 36.5441 21.2429 37.0289 21.224C37.3678 21.2108 37.59 20.9709 37.5933 20.6663C37.5967 20.3568 37.3781 20.127 37.0448 20.0891C35.6993 19.9363 35.0965 19.3349 34.9379 17.986C34.898 17.6464 34.677 17.4287 34.3702 17.4258C34.058 17.4229 33.8279 17.6576 33.7996 18.0086C33.6997 19.2467 32.9659 19.9818 31.7265 20.0863C31.353 20.1175 31.1287 20.348 31.1425 20.6859Z" fill="#04AB54"/>
<path fill-rule="evenodd" clip-rule="evenodd" d="M7.52631 25.9788C7.64115 26.01 7.7667 26.0104 7.88712 26.0104C8.76763 26.0125 9.64792 26.0171 10.5282 26.0071C10.7672 26.0043 10.8671 26.0616 10.8649 26.3272C10.8525 27.7231 10.8516 33.0914 10.8654 34.4869C10.8671 34.6538 10.8337 34.74 10.7505 34.7819H12.0774C12.0212 34.747 11.997 34.6814 11.9977 34.5676C12.007 33.1513 12.0112 27.7627 11.9998 26.3463C11.9974 26.0737 12.0857 26.0021 12.3467 26.0058C13.2675 26.0192 14.1887 26.015 15.1096 26.0083C15.4889 26.0054 15.7603 25.7523 15.7569 25.4318C15.7533 25.1155 15.5042 24.8741 15.1327 24.8628C14.2628 24.8374 13.5243 24.5208 12.9068 23.9097C12.834 23.8377 12.7145 23.764 12.7478 23.6737C12.792 23.5531 12.9388 23.6109 13.043 23.6075C13.6286 23.5892 14.2146 23.6404 14.8006 23.5809C15.0219 23.5581 15.1557 23.4523 15.2323 23.2591C15.3992 22.8405 15.1462 22.4892 14.6544 22.4675C13.8657 22.4329 13.2051 22.1311 12.6805 21.5394C12.6151 21.4661 12.5003 21.3895 12.5335 21.2912C12.5748 21.171 12.7113 21.2372 12.8037 21.2354C13.2082 21.2284 13.6132 21.2377 14.0178 21.2296C14.4117 21.2217 14.6637 20.9882 14.6608 20.6515C14.6584 20.3285 14.4211 20.1129 14.0382 20.0854C12.8596 20.0001 12.0883 19.2219 12.006 18.0352C11.98 17.6611 11.7519 17.4217 11.426 17.4258C11.0981 17.43 10.88 17.6693 10.8587 18.0468C10.7948 19.1905 9.98911 20.005 8.84345 20.0845C8.44161 20.1124 8.1933 20.3359 8.19954 20.6638C8.20623 21.0067 8.4697 21.2265 8.88883 21.2311C9.29335 21.2352 9.69754 21.2306 10.1018 21.234C10.1789 21.2344 10.2856 21.1965 10.3255 21.2756C10.3742 21.3712 10.2731 21.4396 10.2169 21.5033C9.68037 22.1076 9.01616 22.444 8.19865 22.4673C7.81955 22.4777 7.58139 22.7066 7.57916 23.0349C7.57682 23.3775 7.82747 23.606 8.22028 23.6097C8.68579 23.6139 9.15153 23.6035 9.61681 23.6152C9.77971 23.6193 10.0355 23.522 10.0864 23.6743C10.1407 23.8365 9.90169 23.9594 9.76845 24.0751C9.19133 24.5753 8.521 24.845 7.75276 24.8622C7.39808 24.8701 7.16472 25.0536 7.11621 25.3517C7.07206 25.6255 7.24555 25.903 7.52631 25.9788Z" fill="#04AB54"/>
<path d="M1.12703 41.2498C0.965465 41.2498 0.803902 41.1881 0.680695 41.0648C0.434393 40.8183 0.434616 40.4189 0.68103 40.1726L7.66179 33.1981C7.78388 33.076 7.95035 33.008 8.12306 33.0137C8.29555 33.0179 8.45879 33.0926 8.57475 33.2204L9.70546 34.4656L14.7672 29.3556C14.8855 29.2363 15.0464 29.1689 15.2145 29.1687C15.2148 29.1687 15.2151 29.1687 15.2154 29.1687C15.3831 29.1687 15.5439 29.2355 15.6623 29.3542L18.7211 32.4238L19.9801 31.1148C20.0977 30.9926 20.2594 30.9228 20.4289 30.9214C20.6011 30.9243 20.7614 30.9866 20.8813 31.1065L24.0508 34.2814L30.0725 28.2666C30.3162 28.0232 30.7098 28.0203 30.9571 28.2595L38.2391 35.306L40.6042 32.631C40.8338 32.3718 41.229 32.3456 41.4903 32.5723C41.5852 32.6546 43.8279 34.6311 45.0508 38.3846C45.1588 38.716 44.9778 39.072 44.6464 39.1799C44.3152 39.2883 43.959 39.1068 43.8511 38.7755C43.0567 36.3373 41.7743 34.7067 41.1034 33.9714L38.7472 36.6363C38.6331 36.7653 38.4711 36.8421 38.2989 36.8488C38.1267 36.8557 37.9594 36.7915 37.8358 36.6717L30.5254 29.5976L24.4961 35.6202C24.3777 35.7384 24.2173 35.8046 24.0502 35.8046C24.0501 35.8046 24.0499 35.8046 24.0498 35.8046C23.8824 35.8045 23.7219 35.7378 23.6036 35.6195L20.4433 32.4536L19.1838 33.763C19.0662 33.8854 18.9043 33.955 18.7347 33.9565C18.5669 33.9569 18.402 33.8912 18.2822 33.771L15.2168 30.6947L10.1337 35.8261C10.0119 35.9491 9.84417 36.0188 9.67179 36.0129C9.49874 36.0091 9.33484 35.9344 9.21843 35.8062L8.08537 34.5585L1.57269 41.0651C1.44982 41.1882 1.28848 41.2498 1.12703 41.2498Z" fill="#04AB54"/>
<path fill-rule="evenodd" clip-rule="evenodd" d="M8.10853 33.627C8.10853 33.627 8.67919 35.7246 7.71048 37.0773C7.14885 37.8618 5.78867 39.4646 5.44759 40.2034C5.10652 40.9422 4.14048 41.7389 4.14048 41.7389L2.60547 42.9888L4.14004 39.7252L4.99279 36.6795L8.10853 33.627Z" fill="#04AB54"/>
<path fill-rule="evenodd" clip-rule="evenodd" d="M15.6591 30.2854C15.6591 30.2854 13.8809 33.8186 14.0515 34.6711C14.222 35.5238 13.3481 37.2141 13.3481 37.2141L10.6406 39.7716L12.7267 35.3852L13.1499 31.854L15.18 29.8047L15.6591 30.2854Z" fill="#04AB54"/>
<path fill-rule="evenodd" clip-rule="evenodd" d="M20.4129 31.5566L19.5215 33.6489L18.7823 35.4506L18.707 33.33L20.4129 31.5566Z" fill="#04AB54"/>
<path fill-rule="evenodd" clip-rule="evenodd" d="M25.005 31.793L25.9622 34.0874L22.6138 37.8424L20.5713 41.3228L18.1367 43.1762L20.1714 39.9211L21.075 37.5615L23.9244 34.5531L23.7659 33.2912L25.005 31.793Z" fill="#04AB54"/>
<path fill-rule="evenodd" clip-rule="evenodd" d="M41.0422 33.9062L39.5735 38.0508L40.0288 40.3392L38.6728 37.623L37.2285 36.0963L38.3016 36.5488L41.0422 33.9062Z" fill="#04AB54"/>
<path d="M44.7806 49.2656H1.05676C0.708321 49.2656 0.425781 48.9832 0.425781 48.6348C0.425781 48.2863 0.708321 48.0039 1.05676 48.0039H44.7806C45.1291 48.0039 45.4115 48.2863 45.4115 48.6348C45.4115 48.9832 45.1291 49.2656 44.7806 49.2656Z" fill="#04AB54"/>
<path d="M27.98 42.3262C28.0349 42.0912 28.4573 41.5625 28.4573 41.5625C28.4573 41.5625 26.9881 40.0854 26.7787 39.7737C26.5694 39.461 26.6389 38.9246 26.7454 38.4546C27.058 38.5612 27.7484 38.8808 28.384 39.2333C27.903 38.6569 27.2856 38.2271 26.8191 38.0506C27.4837 37.9549 28.461 37.8965 29.3389 37.9994C29.3389 37.9994 28.5784 37.599 28.292 37.4666C28.292 37.4666 28.3323 37.6576 28.3399 37.7971C27.719 37.4333 26.4004 36.7433 26.4004 36.7433C26.4004 36.7433 27.741 36.879 28.4315 37.0662C28.4315 37.0662 28.1526 36.7686 27.9799 36.5775C29.0374 36.8939 30.0733 37.5586 30.0733 37.5586C30.0733 37.5586 29.9856 37.3547 29.9111 37.1477C30.3322 37.5116 30.7402 37.9552 30.7402 37.9552C30.7402 37.9552 30.9478 37.9955 31.0711 37.9994C31.124 37.8486 31.2306 37.4209 31.2617 37.0829C31.3079 37.1651 31.3811 37.2993 31.3811 37.2993C31.3811 37.2993 31.3666 36.7964 31.352 36.5023C31.4435 36.6362 31.5979 36.8568 31.7282 37.0458L32.0716 37.3325L31.9633 36.9854L32.3749 37.3837L32.3088 37.0975C32.3088 37.0975 32.2168 36.9945 32.2055 36.9246C32.1946 36.8547 32.193 36.7524 32.2076 36.6567C32.2222 36.5609 32.3033 36.5609 32.3728 36.5888C32.4427 36.6163 32.5767 36.675 32.9551 36.8586C32.7532 36.541 32.4794 36.1718 32.4794 36.1718C32.4794 36.1718 32.6704 36.2638 32.8505 36.3995C32.8505 36.3995 32.4739 35.955 32.2737 35.7769C32.2737 35.7769 32.277 35.9017 32.2715 35.9346C32.0402 35.6928 31.7651 35.3473 31.7651 35.3381C31.7651 35.3285 32.9441 35.6374 33.3134 35.9679C33.6822 36.2987 33.5062 36.7565 33.4923 36.7898C33.4785 36.8227 33.4544 36.8218 33.4369 36.8182C33.4195 36.8144 33.3757 36.8052 33.3757 36.8052C33.3757 36.8052 33.3803 36.8556 33.369 36.9484C33.3582 37.0416 33.3187 37.09 33.2607 37.1651C33.2687 37.2784 33.2945 37.4307 33.2945 37.4519C33.2945 37.4728 33.2479 37.4931 33.2159 37.4994C33.1834 37.5061 33.1139 37.5127 33.1139 37.5127C33.1139 37.5127 33.0927 37.5748 33.0872 37.5922C33.0815 37.6097 33.0157 37.6063 33.0157 37.6063C33.0157 37.6063 32.9878 37.6538 32.9844 37.6659C32.9808 37.6775 32.9374 37.6767 32.9246 37.6796C32.9116 37.6821 32.8476 37.7841 32.8225 37.8502C32.798 37.9164 32.6906 37.9234 32.6049 37.889C32.3377 37.7816 32.3764 37.6218 32.0705 37.6027C31.7651 37.583 31.3807 37.8852 31.1387 38.1388C31.6306 37.7825 31.9835 37.7937 32.277 37.8741C32.277 37.8741 32.2 38.1899 32.1708 38.5574C32.1413 38.9246 32.3178 39.5127 32.3178 39.5127C32.3178 39.5127 32.4023 39.6301 32.4905 39.7661C32.3178 39.6999 31.8916 39.4868 31.8916 39.4868L32.1413 39.8947C32.1413 39.8947 31.5644 39.4685 31.5391 39.4463C31.5133 39.4243 31.3114 38.3738 31.3114 38.3738L31.0762 38.4545C31.0762 38.4545 31.0762 38.7372 31.1425 39.2554C31.4987 39.6482 32.4556 40.338 32.5014 40.365C32.5477 40.3912 32.5934 40.395 32.633 40.3829C32.6722 40.3712 32.7754 40.3272 32.8815 40.2755C32.9886 40.2239 32.9939 40.1756 32.9848 40.1618C32.9756 40.148 32.9286 40.1422 32.8009 40.1139C32.6735 40.0852 32.5853 40.0485 32.5532 40.0331C32.5212 40.0177 32.5015 39.9332 32.5029 39.9229C32.5033 39.9128 32.5565 39.8246 32.5798 39.7897C32.6027 39.7548 32.6164 39.7576 32.6319 39.764C32.6506 39.7718 32.8578 39.9038 33.2674 39.8193C33.677 39.7348 33.8223 39.4335 33.8663 39.384C33.91 39.3345 33.9487 39.3456 33.9761 39.3657C34.0037 39.3857 34.0535 39.4281 34.0885 39.4648C34.1234 39.5018 34.1214 39.5273 34.1068 39.5476C34.0919 39.5676 33.9874 39.6633 33.9508 39.7752C33.9138 39.8872 34.0262 40.0562 34.0317 40.0853C34.037 40.1149 33.9928 40.2084 33.9451 40.3354C33.8976 40.4624 33.9342 40.5156 33.9616 40.598C33.9892 40.6804 33.8515 40.6551 33.8331 40.6421C33.8148 40.6292 33.7889 40.5282 33.7819 40.5044C33.7744 40.4802 33.8349 40.2122 33.8422 40.1735C33.8497 40.1352 33.8444 40.047 33.7723 39.9275C33.4677 39.9866 33.3335 40.1735 33.3335 40.1735C33.3335 40.1735 33.4934 40.2526 33.5079 40.2914C33.523 40.3296 33.4746 40.6181 33.46 40.6497C33.4455 40.6805 33.306 40.7064 33.306 40.7064C33.306 40.7064 33.0122 40.9523 32.9531 40.9877C32.8945 41.0222 32.8561 41.004 32.8211 40.9839C32.7862 40.9635 32.7183 40.9323 32.7183 40.9323C32.5198 41.1051 32.2663 41.1104 32.1065 41.0813C32.0549 40.9802 32.0532 40.857 32.0532 40.857C32.0532 40.857 32.2334 40.894 32.3399 40.8311C31.2966 40.3829 30.4666 39.7623 30.437 39.7221C30.4075 39.6817 30.1782 38.6549 30.1782 38.6549C30.1782 38.6549 29.6272 38.7652 28.955 38.8976C29.7594 39.4041 30.8998 40.3631 30.9773 40.4651C31.0543 40.567 31.0489 40.6827 31.0489 40.6827H29.8474C29.8474 40.6827 29.2856 39.9252 28.8502 39.4982C29.0708 39.8174 29.616 40.9415 29.6713 41.074C29.7263 41.2059 29.6934 41.3274 29.6563 41.4081C29.6197 41.489 28.2533 44.1027 28.2091 44.2164C28.165 44.3301 28.1525 44.4515 28.1596 44.5377C28.3544 44.7729 28.9313 44.9931 28.9313 44.9931C28.9313 44.9931 29.2542 45.0743 29.3721 45.1292C29.4895 45.1841 29.412 45.3019 29.3463 45.3272C29.2801 45.3535 29.0816 45.4118 28.9164 45.4634C28.7512 45.5146 28.6192 45.5042 28.4132 45.5146C28.2076 45.5259 27.7559 45.5775 27.4767 45.5554C27.1975 45.5333 27.2083 45.3606 27.2453 45.2541C27.282 45.1473 27.9246 42.5614 27.98 42.3262Z" fill="#04AB54"/>
<path d="M30.8306 37.4541C30.8306 37.4541 30.1568 36.8187 29.6439 36.5303L29.6559 36.7836C29.6559 36.7836 28.8577 36.3188 27.7135 35.9849C27.4325 35.3781 27.3359 35.1035 27.3359 35.1035C27.3359 35.1035 28.4468 35.5226 29.3429 36.0987L29.2863 35.7799C29.2865 35.7798 30.205 36.4224 30.8306 37.4541Z" fill="#04AB54"/>
<path d="M30.4144 36.2442C30.4144 36.2442 29.7627 35.5737 29.2129 35.0605C29.5384 35.2188 30.1806 35.6196 30.1806 35.6196L30.1407 35.3898C30.1407 35.3898 30.6926 35.8693 31.0884 36.5066C31.0884 36.5066 30.6065 36.1198 30.3955 35.9996C30.4057 36.0615 30.4144 36.2442 30.4144 36.2442Z" fill="#04AB54"/>
<path d="M31.279 35.9035L31.0879 35.3379L31.639 35.8261V35.6867L32.2633 36.3958L31.8151 36.1237L31.8262 36.2965L31.279 35.9035Z" fill="#04AB54"/>
<path d="M34.8596 40.1337C34.8226 40.2456 34.935 40.4146 34.9404 40.4441C34.9458 40.4737 34.9016 40.5673 34.8544 40.6938C34.8064 40.8204 34.843 40.8736 34.8706 40.9564C34.8981 41.0391 34.7607 41.013 34.7424 41.0006C34.7241 40.9876 34.6983 40.8866 34.6908 40.8624C34.6834 40.8387 34.7442 40.5706 34.7516 40.5319C34.7586 40.4936 34.7533 40.4054 34.6817 40.286C34.3766 40.3446 34.2426 40.5319 34.2426 40.5319C34.2426 40.5319 34.4023 40.6114 34.4168 40.6497C34.4319 40.6885 34.384 40.9765 34.3693 41.0077C34.3544 41.0393 34.2149 41.0648 34.2149 41.0648C34.2149 41.0648 33.9211 41.3106 33.8625 41.3458C33.8038 41.3807 33.765 41.3623 33.73 41.342C33.6951 41.322 33.6272 41.2908 33.6272 41.2908C33.4292 41.4636 33.1752 41.469 33.0159 41.4399C32.9743 41.3582 32.9651 41.2629 32.9629 41.2288C33.2393 41.2625 33.3433 41.1609 33.3433 41.1609C33.3433 41.1609 33.2938 41.0973 33.2926 41.0864C33.2909 41.0752 33.3229 41.0561 33.415 40.9953C33.5073 40.935 33.5748 40.8675 33.6065 40.8413C33.6385 40.8151 33.6494 40.8026 33.6934 40.8076C33.7376 40.8126 33.9977 40.8054 34.0542 40.7859C34.1109 40.7669 34.1038 40.7256 34.1038 40.7052C34.1038 40.6843 34.1191 40.2932 34.1233 40.2491C34.1275 40.2046 34.1429 40.1845 34.1878 40.1754V40.1749C34.5882 40.0872 34.7314 39.7916 34.7751 39.7425C34.8192 39.693 34.8575 39.7037 34.8854 39.7242C34.9128 39.7446 34.9623 39.7867 34.9973 39.8232C35.0323 39.8604 35.0302 39.8858 35.0157 39.9061C35.0011 39.926 34.8963 40.0216 34.8596 40.1337Z" fill="#04AB54"/>
<path d="M29.0192 46.0221C29.3609 46.1616 30.3194 46.3359 30.3194 46.3359C30.1396 46.1616 29.8641 45.6218 29.7467 45.2725C29.7467 45.2725 30.0223 45.5889 30.2133 45.7283C30.1505 45.5114 30.1071 45.1797 30.1255 44.9712C30.1409 44.2849 30.6132 43.7333 30.6132 43.7333C30.6132 43.7333 30.5803 43.9394 30.5584 44.2074C31.0981 43.3183 31.8403 43.0429 31.8403 43.0429C31.3133 43.4095 30.9379 43.964 30.861 44.5845C30.7244 45.6891 31.5864 46.5847 32.7871 46.5847C33.9875 46.5847 35.0717 45.6891 35.2087 44.5845C35.3456 43.4796 34.4832 42.5834 33.2829 42.5834C33.1138 42.5834 32.9478 42.6022 32.7864 42.6351L32.689 42.198C33.3025 42.0882 33.8095 42.1651 34.544 42.3375C34.4467 42.2192 34.3209 42.0997 34.224 42.0137C35.3419 42.3529 36.057 43.3352 35.91 44.4939C35.7332 45.8898 34.3722 47.0294 32.8325 47.0988C32.8325 47.0988 32.8325 47.0988 32.8322 47.0988C32.7831 47.1009 31.2326 47.0988 30.8415 47.0988C30.2979 47.0988 28.1895 46.507 28.1895 46.507L30.0332 46.6171C30.0331 46.6173 29.3645 46.3564 29.0192 46.0221Z" fill="#04AB54"/>
<path d="M31.6982 41.4242C31.6391 41.4134 30.192 41.2195 30.192 41.2195L29.9385 40.877H31.7387L32.4254 41.7368L32.9489 44.3581C33.0401 44.3832 33.1163 44.4701 33.1295 44.5749C33.1455 44.6994 33.0671 44.8002 32.9544 44.8002C32.8416 44.8002 32.7376 44.6995 32.7221 44.5749C32.7175 44.5384 32.7217 44.5037 32.7321 44.473L31.9626 41.8214C31.9626 41.8214 28.7886 44.5504 28.7557 44.5725C28.7228 44.5946 28.6679 44.6016 28.6088 44.5688C28.5501 44.5355 28.3666 44.4439 28.3774 44.4256C28.3887 44.4074 31.7533 41.5097 31.7533 41.5097C31.7533 41.5097 31.7569 41.4356 31.6982 41.4242Z" fill="#04AB54"/>
<path d="M21.4043 46.6401C21.4043 46.6401 20.7359 46.3792 20.3904 46.0449C20.7321 46.1844 21.6911 46.3588 21.6911 46.3588C21.5108 46.1844 21.2354 45.6447 21.118 45.2953C21.118 45.2953 21.3933 45.6118 21.5844 45.7511C21.5222 45.5343 21.4784 45.2026 21.4967 44.9941C21.5121 44.3078 21.9845 43.7562 21.9845 43.7562C21.9845 43.7562 21.9517 43.9622 21.9296 44.2303C22.4696 43.3412 23.2116 43.0658 23.2116 43.0658C22.6846 43.4324 22.3092 43.9869 22.2324 44.6074C22.0955 45.712 22.9576 46.6076 24.1586 46.6076C25.3588 46.6076 26.4598 45.714 26.58 44.6074C26.6517 43.9494 26.5175 43.4828 26.2429 43.1665L26.3678 42.6745L24.5593 44.3285C24.5817 44.3631 24.5917 44.4063 24.5834 44.4538C24.5642 44.5678 24.4518 44.6603 24.3321 44.6603C24.2122 44.6603 24.1309 44.5679 24.1501 44.4538C24.1693 44.3398 24.2821 44.2473 24.402 44.2473C24.4073 44.2473 24.4128 44.2486 24.4182 44.249L25.81 42.7748C25.4953 42.6437 25.0255 42.5846 25.0255 42.5846C25.0255 42.5846 25.3809 42.5159 25.5049 42.5183C25.0196 42.3889 24.345 42.4384 24.345 42.4384C24.345 42.4384 24.5597 42.3477 24.8628 42.3011C24.246 42.3011 23.8106 42.4205 23.2983 42.5846C24.3533 41.8475 25.6208 42.0355 26.2242 42.336L27.1553 41.35L26.9897 40.4082L27.5021 40.9867L27.7394 42.3918L27.5134 43.24L27.2433 41.8735L26.519 42.5362C27.0785 43.0144 27.3818 43.7235 27.2815 44.5165C27.105 45.9125 25.7433 47.052 24.2041 47.1215H24.2036C24.1545 47.1236 22.604 47.1215 22.2129 47.1215C21.6693 47.1215 19.5605 46.5296 19.5605 46.5296L21.4043 46.6401Z" fill="#04AB54"/>
<path fill-rule="evenodd" clip-rule="evenodd" d="M16.5996 45.959C19.0432 45.959 18.6828 45.959 21.0119 45.959C20.6941 45.6977 17.2231 45.6534 16.5996 45.959Z" fill="#04AB54"/>
<path d="M21.036 46.0893H16.6238C16.5871 46.0893 16.5552 46.064 16.547 46.0283C16.5387 45.9925 16.5561 45.9558 16.5891 45.9396C16.9215 45.7767 17.9644 45.7188 18.8297 45.7188C19.5636 45.7188 20.8645 45.7674 21.0861 45.9496C21.1117 45.9706 21.1214 46.0056 21.1103 46.037C21.099 46.0683 21.0694 46.0893 21.036 46.0893ZM17.4463 45.9316H20.2471C19.8799 45.8984 19.3949 45.8764 18.8297 45.8764C18.3002 45.8764 17.8232 45.8963 17.4463 45.9316Z" fill="#04AB54"/>
<path fill-rule="evenodd" clip-rule="evenodd" d="M17.7227 44.4738C19.6879 44.4738 20.1034 44.4738 22.0688 44.4738C22.0691 44.4297 22.0696 44.386 22.0696 44.3418C20.106 44.3418 19.6926 44.3418 17.7289 44.3418C17.7266 44.386 17.7247 44.4297 17.7227 44.4738Z" fill="#04AB54"/>
<path d="M22.0657 44.6158H17.7195C17.698 44.6158 17.6774 44.607 17.6625 44.5914C17.6475 44.5758 17.6397 44.5549 17.6407 44.5333L17.647 44.4009C17.6492 44.3591 17.6837 44.3262 17.7258 44.3262H22.0665C22.1101 44.3262 22.1454 44.3614 22.1454 44.405L22.1446 44.5376C22.1442 44.5809 22.1089 44.6158 22.0657 44.6158Z" fill="#04AB54"/>
<path fill-rule="evenodd" clip-rule="evenodd" d="M35.6436 46.8909C37.3838 46.8909 39.1239 46.8909 40.8636 46.8909C40.8649 46.8534 40.8658 46.8163 40.8661 46.7793C39.1252 46.7793 37.3838 46.7793 35.6426 46.7793C35.6431 46.8163 35.6436 46.8534 35.6436 46.8909Z" fill="#04AB54"/>
<path d="M40.8721 46.9744H35.652C35.6084 46.9744 35.5732 46.9391 35.5732 46.8955C35.5732 46.8584 35.5727 46.8216 35.5723 46.7849C35.5719 46.7638 35.5802 46.7435 35.595 46.7285C35.6099 46.7134 35.6299 46.7051 35.6511 46.7051H40.8746C40.8957 46.7051 40.9159 46.7134 40.9307 46.7285C40.9456 46.7435 40.9538 46.7637 40.9535 46.7849C40.953 46.8224 40.9521 46.8601 40.951 46.8981C40.9496 46.9406 40.9147 46.9744 40.8721 46.9744Z" fill="#04AB54"/>
<path fill-rule="evenodd" clip-rule="evenodd" d="M18.0698 46.987C19.4417 46.987 20.8135 46.987 22.185 46.987C22.1847 46.9433 22.1847 46.8992 22.1845 46.8555C20.8108 46.8555 19.4375 46.8555 18.0645 46.8555C18.0663 46.8992 18.0682 46.9433 18.0698 46.987Z" fill="#04AB54"/>
<path d="M22.1936 47.0804H18.0784C18.036 47.0804 18.0012 47.0468 17.9996 47.0044L17.9942 46.8733C17.9933 46.8518 18.0012 46.8308 18.0161 46.8153C18.0309 46.7997 18.0515 46.791 18.073 46.791H22.1931C22.2364 46.791 22.2718 46.826 22.272 46.8694L22.2726 47.0007C22.2727 47.0217 22.2645 47.042 22.2497 47.0569C22.2349 47.0719 22.2146 47.0804 22.1936 47.0804Z" fill="#04AB54"/>
<path fill-rule="evenodd" clip-rule="evenodd" d="M44.659 43.1758C43.3815 43.1758 42.1033 43.1758 40.8256 43.1758C40.8251 43.2137 40.8247 43.2519 40.8242 43.2897C42.102 43.2897 43.3802 43.2897 44.6578 43.2897C44.6582 43.2519 44.6586 43.2137 44.659 43.1758Z" fill="#04AB54"/>
<path d="M44.6858 43.3478H40.8523C40.8312 43.3478 40.811 43.3394 40.7962 43.3244C40.7814 43.3094 40.7732 43.2891 40.7734 43.2681L40.7748 43.1541C40.7752 43.1108 40.8103 43.0762 40.8536 43.0762H44.6871C44.7081 43.0762 44.7283 43.0845 44.7432 43.0996C44.758 43.1145 44.7661 43.1348 44.7659 43.1559L44.7647 43.2698C44.7643 43.313 44.7291 43.3478 44.6858 43.3478Z" fill="#04AB54"/>
<path fill-rule="evenodd" clip-rule="evenodd" d="M42.2298 44.3984C41.2933 44.3984 40.3568 44.3984 39.4204 44.3984C39.4195 44.4396 39.4186 44.4804 39.418 44.5212C40.356 44.5212 41.2951 44.5212 42.2336 44.5212C42.2322 44.4804 42.2304 44.4396 42.2298 44.3984Z" fill="#04AB54"/>
<path d="M42.2499 44.5988H39.4343C39.4132 44.5988 39.3928 44.5903 39.378 44.5751C39.3632 44.5601 39.355 44.5397 39.3555 44.5184L39.3578 44.4031C39.3588 44.3602 39.394 44.3184 39.4369 44.3184H42.2462C42.2893 44.3184 42.3243 44.3528 42.3251 44.3957C42.3256 44.4219 42.3265 44.448 42.3274 44.474L42.3288 44.5176C42.3295 44.5388 42.3215 44.5595 42.3067 44.5749C42.2916 44.5902 42.2712 44.5988 42.2499 44.5988Z" fill="#04AB54"/>
<path fill-rule="evenodd" clip-rule="evenodd" d="M31.9238 46.8913C32.7163 46.8913 33.5092 46.8913 34.3017 46.8913C34.3029 46.8514 34.3038 46.8114 34.3049 46.7715C33.5128 46.7715 32.7204 46.7715 31.928 46.7715C31.9267 46.8114 31.9255 46.8514 31.9238 46.8913Z" fill="#04AB54"/>
<path d="M34.2751 46.9827H31.8973C31.8758 46.9827 31.8552 46.974 31.8404 46.9585C31.8255 46.9429 31.8175 46.9221 31.8184 46.9005C31.8201 46.861 31.8213 46.8213 31.8226 46.7816C31.8239 46.739 31.8587 46.7051 31.9014 46.7051H34.2783C34.2996 46.7051 34.32 46.7137 34.335 46.7291C34.3498 46.7443 34.3578 46.765 34.3572 46.7864L34.3539 46.9062C34.3527 46.9488 34.3178 46.9827 34.2751 46.9827Z" fill="#04AB54"/>
<path fill-rule="evenodd" clip-rule="evenodd" d="M42.7969 46.7961C43.5207 46.7961 44.2139 46.7961 44.9772 46.7961C44.5127 46.5092 43.1403 46.5226 42.7969 46.7961Z" fill="#04AB54"/>
<path d="M44.978 46.9245H42.7976C42.7641 46.9245 42.7343 46.9034 42.7232 46.8716C42.7121 46.84 42.7223 46.8047 42.7486 46.7839C42.959 46.6163 43.4597 46.5566 43.8582 46.5566C44.3603 46.5566 44.7944 46.6396 45.0195 46.7785C45.0495 46.797 45.0635 46.8332 45.0539 46.8672C45.0441 46.9011 45.0132 46.9245 44.978 46.9245ZM43.2384 46.7668H44.4933C44.3079 46.733 44.0897 46.7143 43.8582 46.7143C43.63 46.7143 43.4149 46.7335 43.2384 46.7668Z" fill="#04AB54"/>
<path fill-rule="evenodd" clip-rule="evenodd" d="M38.2759 45.5176C37.6737 45.5176 37.0709 45.5176 36.4682 45.5176C36.4666 45.5584 36.4646 45.6 36.4629 45.6407C37.0684 45.6407 37.674 45.6407 38.28 45.6407C38.2783 45.6 38.2771 45.5584 38.2759 45.5176Z" fill="#04AB54"/>
<path d="M38.2808 45.7711H36.4637C36.4423 45.7711 36.4216 45.7624 36.4068 45.7469C36.3919 45.7314 36.3839 45.7106 36.3848 45.689L36.3902 45.5659C36.392 45.5237 36.4266 45.4902 36.469 45.4902H38.2766C38.3193 45.4902 38.3541 45.5241 38.3555 45.5668C38.3567 45.6073 38.3579 45.6487 38.3596 45.6891C38.3605 45.7106 38.3526 45.7315 38.3376 45.747C38.3228 45.7624 38.3022 45.7711 38.2808 45.7711Z" fill="#04AB54"/>
<path fill-rule="evenodd" clip-rule="evenodd" d="M44.0753 45.6289C43.222 45.6289 42.3682 45.6289 41.5137 45.6289C41.5112 45.6697 41.5088 45.7113 41.5059 45.7521C42.3644 45.7521 43.2226 45.7521 44.0812 45.7521C44.079 45.7114 44.0774 45.6698 44.0753 45.6289Z" fill="#04AB54"/>
<path d="M44.0859 45.8259H41.5106C41.4887 45.8259 41.4677 45.8169 41.4528 45.8007C41.4379 45.7846 41.4303 45.7632 41.4318 45.7414L41.4395 45.619C41.4421 45.5774 41.4766 45.5449 41.5183 45.5449H44.0798C44.1218 45.5449 44.1564 45.5777 44.1586 45.6195L44.1645 45.7429C44.1656 45.7646 44.1578 45.7856 44.143 45.8013C44.1281 45.8169 44.1074 45.8259 44.0859 45.8259Z" fill="#04AB54"/>
<path fill-rule="evenodd" clip-rule="evenodd" d="M28.5453 46.8281C27.9905 46.8281 27.4361 46.8281 26.8813 46.8281C26.8813 46.8697 26.8813 46.9117 26.8809 46.9533C27.434 46.9533 27.9872 46.9533 28.5403 46.9533C28.5424 46.9117 28.5438 46.8697 28.5453 46.8281Z" fill="#04AB54"/>
<path d="M28.5527 47.0739H26.8933C26.8723 47.0739 26.852 47.0655 26.8372 47.0505C26.8224 47.0355 26.8142 47.0154 26.8145 46.9942C26.8149 46.9529 26.8149 46.9111 26.8149 46.8698C26.8149 46.8262 26.8501 46.791 26.8937 46.791H28.5577C28.5792 46.791 28.5998 46.7997 28.6146 46.8152C28.6296 46.8307 28.6374 46.8516 28.6366 46.873L28.6351 46.9111C28.634 46.9405 28.6329 46.9699 28.6315 46.9991C28.6294 47.041 28.5948 47.0739 28.5527 47.0739Z" fill="#04AB54"/>
<path fill-rule="evenodd" clip-rule="evenodd" d="M20.991 43.168C20.4362 43.168 19.8818 43.168 19.327 43.168C19.3266 43.21 19.3266 43.2516 19.3262 43.2928C19.8795 43.2928 20.4327 43.2928 20.9861 43.2928C20.9876 43.2516 20.9893 43.21 20.991 43.168Z" fill="#04AB54"/>
<path d="M20.9965 43.4368H19.3367C19.3156 43.4368 19.2954 43.4285 19.2806 43.4134C19.2657 43.3985 19.2575 43.3783 19.2578 43.3571L19.2586 43.2323C19.259 43.1891 19.2942 43.1543 19.3375 43.1543H21.0016C21.023 43.1543 21.0435 43.163 21.0584 43.1785C21.0734 43.194 21.0813 43.2147 21.0804 43.2362L21.0755 43.3612C21.0737 43.4035 21.0389 43.4368 20.9965 43.4368Z" fill="#04AB54"/>
<path fill-rule="evenodd" clip-rule="evenodd" d="M39.4341 43.0898C38.4585 43.0898 37.4842 43.0898 36.509 43.0898C36.5081 43.1319 36.5081 43.1735 36.5078 43.2147C37.4801 43.2147 38.4527 43.2147 39.425 43.2147C39.4282 43.1735 39.4308 43.1319 39.4341 43.0898Z" fill="#04AB54"/>
<path d="M39.3808 43.2493H36.4636C36.4426 43.2493 36.4225 43.241 36.4076 43.226C36.3928 43.2111 36.3845 43.1909 36.3848 43.1698L36.385 43.1359C36.3851 43.1055 36.3853 43.0748 36.386 43.044C36.3869 43.001 36.4219 42.9668 36.4648 42.9668H39.3899C39.4119 42.9668 39.4329 42.9759 39.4479 42.9922C39.4628 43.0084 39.4703 43.03 39.4686 43.052L39.4595 43.1767C39.4561 43.2178 39.4219 43.2493 39.3808 43.2493Z" fill="#04AB54"/>
<path fill-rule="evenodd" clip-rule="evenodd" d="M37.2334 41.5822C38.9736 41.5822 40.7138 41.5822 42.4535 41.5822C42.4547 41.5447 42.4556 41.5077 42.4559 41.4707C40.715 41.4707 38.9736 41.4707 37.2324 41.4707C37.233 41.5077 37.233 41.5447 37.2334 41.5822Z" fill="#04AB54"/>
<path d="M42.4307 41.6266H37.2106C37.1673 41.6266 37.1322 41.5918 37.1318 41.5486L37.1309 41.4373C37.1305 41.4162 37.1388 41.3959 37.1536 41.3808C37.1684 41.3658 37.1885 41.3574 37.2097 41.3574H42.4332C42.4543 41.3574 42.4745 41.3658 42.4893 41.3808C42.5041 41.3959 42.5124 41.4161 42.5121 41.4373C42.5116 41.4747 42.5107 41.5123 42.5096 41.5503C42.5082 41.5928 42.4733 41.6266 42.4307 41.6266Z" fill="#04AB54"/>
<path fill-rule="evenodd" clip-rule="evenodd" d="M21.8711 42.0164C22.5948 42.0164 23.288 42.0164 24.0516 42.0164C23.587 41.7301 22.2144 41.7434 21.8711 42.0164Z" fill="#04AB54"/>
<path d="M23.9957 42.055H21.8152C21.7817 42.055 21.7518 42.0339 21.7407 42.0022C21.7297 41.9704 21.7398 41.9353 21.7662 41.9144C21.9766 41.747 22.4774 41.6875 22.8759 41.6875C23.378 41.6875 23.8121 41.7702 24.0372 41.9089C24.0673 41.9274 24.0813 41.9637 24.0717 41.9977C24.0619 42.0316 24.031 42.055 23.9957 42.055ZM22.2574 41.8973H23.5098C23.3246 41.8638 23.1068 41.8452 22.8759 41.8452C22.6482 41.8452 22.4336 41.8641 22.2574 41.8973Z" fill="#04AB54"/>
<path d="M3.83394 53.2249C3.77217 53.212 3.72478 53.1894 3.69289 53.1575C3.66022 53.1248 3.63803 53.0809 3.6251 53.0233C3.61027 52.9576 3.6028 52.8709 3.6028 52.7656V52.5856H6.73571V51.7754H3.6028V51.6062C3.6028 51.5046 3.61027 51.4198 3.6251 51.3539C3.63792 51.2969 3.66056 51.2534 3.69445 51.2208C3.72924 51.1875 3.77841 51.1623 3.84041 51.146C3.90953 51.128 4.00074 51.1188 4.11168 51.1188H5.09645V50.2656H4.11168C3.83717 50.2656 3.60392 50.289 3.41849 50.3353C3.22671 50.3834 3.07006 50.4621 2.95298 50.5695C2.83457 50.6781 2.74983 50.822 2.7011 50.9974C2.6545 51.1652 2.63086 51.37 2.63086 51.6063V52.7603C2.63086 53.0003 2.6545 53.2061 2.70122 53.3721C2.74994 53.5456 2.83468 53.6885 2.95309 53.7971C3.07017 53.9046 3.22682 53.9834 3.4186 54.0313C3.60358 54.0776 3.83684 54.101 4.11179 54.101H6.75734V53.2478H4.11168C3.99929 53.2476 3.90574 53.24 3.83394 53.2249Z" fill="#04AB54"/>
<path d="M12.5585 50.2656H11.2042L9.75796 51.5429L8.38563 50.2656H6.96635L9.0505 52.1189L6.84961 54.1009H8.2293L9.70812 52.7223L11.1923 54.1009H12.6165L10.4673 52.1144L12.5585 50.2656Z" fill="#04AB54"/>
<path d="M16.868 50.5523C16.751 50.4488 16.5961 50.3739 16.4079 50.3297C16.2262 50.2871 15.9988 50.2656 15.732 50.2656H12.709V54.1008H13.6864V53.0492H15.7321C16.0058 53.0492 16.2358 53.0316 16.4158 52.9966C16.604 52.96 16.758 52.8938 16.8738 52.7996C16.9919 52.7034 17.0759 52.5742 17.1232 52.416C17.1684 52.2656 17.1913 52.0747 17.1913 51.8488V51.5306C17.1913 51.3083 17.1675 51.1157 17.1206 50.958C17.0716 50.7936 16.9865 50.6571 16.868 50.5523ZM13.6864 51.1297H15.7104C15.9583 51.1297 16.0672 51.1782 16.1148 51.2187C16.1805 51.2748 16.2139 51.3907 16.2139 51.5631V51.8166C16.2139 51.9823 16.1812 52.0962 16.1193 52.1461C16.0726 52.1835 15.9657 52.2284 15.7211 52.2284H13.6863V51.1297H13.6864Z" fill="#04AB54"/>
<path d="M18.7382 53.2249C18.6765 53.212 18.6291 53.1894 18.5972 53.1575C18.5645 53.1248 18.5423 53.0809 18.5294 53.0233C18.5146 52.9576 18.5071 52.8709 18.5071 52.7656V52.5856H21.64V51.7754H18.5071V51.6062C18.5071 51.5046 18.5146 51.4198 18.5294 51.3539C18.5422 51.2969 18.5649 51.2534 18.5987 51.2208C18.6335 51.1875 18.6827 51.1623 18.7447 51.146C18.8138 51.128 18.905 51.1188 19.016 51.1188H20.0007V50.2656H19.016C18.7415 50.2656 18.5082 50.289 18.3228 50.3353C18.131 50.3834 17.9744 50.4621 17.8573 50.5695C17.7389 50.6781 17.6541 50.822 17.6054 50.9974C17.5588 51.1652 17.5352 51.37 17.5352 51.6063V52.7603C17.5352 53.0003 17.5588 53.2061 17.6055 53.3721C17.6542 53.5456 17.739 53.6885 17.8574 53.7971C17.9745 53.9046 18.1311 53.9834 18.3229 54.0313C18.5079 54.0776 18.7411 54.101 19.0161 54.101H21.6616V53.2478H19.0161C18.9035 53.2476 18.81 53.24 18.7382 53.2249Z" fill="#04AB54"/>
<path d="M26.1484 50.5695C26.031 50.462 25.8735 50.3833 25.6799 50.3353C25.4928 50.289 25.257 50.2656 24.9789 50.2656H21.9883V54.1008H24.9789C25.2574 54.1008 25.4933 54.0773 25.6799 54.0311C25.8735 53.9832 26.0311 53.9045 26.1485 53.7969C26.2666 53.6885 26.3513 53.5456 26.4002 53.3719C26.4468 53.2058 26.4704 52.9998 26.4704 52.7601V51.6061C26.4704 51.37 26.4468 51.1652 26.4003 50.9972C26.3514 50.8217 26.2666 50.6777 26.1484 50.5695ZM22.9656 51.1297H24.9465C25.0617 51.1297 25.1569 51.139 25.2293 51.1571C25.295 51.1735 25.3479 51.1999 25.3863 51.2353C25.4239 51.2702 25.4499 51.3176 25.4661 51.3803C25.4841 51.4515 25.4933 51.5403 25.4933 51.644V52.7332C25.4933 52.8396 25.4826 52.928 25.4618 52.9956C25.4425 53.0571 25.413 53.106 25.3739 53.141C25.3339 53.1767 25.2804 53.2024 25.215 53.2173C25.1419 53.2339 25.0516 53.2423 24.9465 53.2423H22.9656V51.1297Z" fill="#04AB54"/>
<path d="M27.8485 50.2656H26.8711V54.1008H27.8485V50.2656Z" fill="#04AB54"/>
<path d="M28.1211 51.1297H29.6632V54.1009H30.6459V51.1297H32.188V50.2656H28.1211V51.1297Z" fill="#04AB54"/>
<path d="M33.4559 50.2656H32.4785V54.1008H33.4559V50.2656Z" fill="#04AB54"/>
<path d="M37.8815 50.5695C37.7644 50.4622 37.6079 50.3834 37.4159 50.3353C37.2303 50.289 36.9954 50.2656 36.7173 50.2656H35.3208C35.0462 50.2656 34.813 50.289 34.6276 50.3353C34.4357 50.3834 34.279 50.4621 34.1621 50.5695C34.0437 50.678 33.9589 50.8219 33.9101 50.9974C33.8635 51.1652 33.8398 51.37 33.8398 51.6063V52.7603C33.8398 53.0003 33.8635 53.2061 33.9102 53.3721C33.959 53.5457 34.0437 53.6887 34.162 53.7971C34.279 53.9046 34.4357 53.9834 34.6276 54.0313C34.8126 54.0776 35.0457 54.101 35.3208 54.101H36.7173C36.9957 54.101 37.2307 54.0776 37.4159 54.0313C37.6079 53.9834 37.7644 53.9045 37.8814 53.7971C37.9998 53.6887 38.0844 53.5457 38.1332 53.3721C38.18 53.2061 38.2036 53.0003 38.2036 52.7603V51.6063C38.2036 51.37 38.18 51.1652 38.1334 50.9974C38.0844 50.8218 37.9998 50.6778 37.8815 50.5695ZM34.8119 51.644C34.8119 51.5348 34.8195 51.4443 34.8344 51.3746C34.8475 51.3138 34.8713 51.2668 34.9073 51.2307C34.943 51.1951 34.9944 51.1694 35.0601 51.1547C35.1349 51.1382 35.2352 51.1296 35.3585 51.1296H36.685C36.7975 51.1296 36.8923 51.1381 36.967 51.1547C37.0327 51.1694 37.0841 51.1949 37.1198 51.2307C37.1564 51.2672 37.1829 51.3167 37.199 51.3782C37.2171 51.4468 37.2262 51.5363 37.2262 51.644V52.7279C37.2262 52.8394 37.2169 52.9316 37.1989 53.0023C37.1829 53.0647 37.1567 53.1138 37.1208 53.1483C37.0855 53.1825 37.0344 53.2064 36.9687 53.2195C36.8935 53.2345 36.798 53.2422 36.685 53.2422H35.3585C35.2347 53.2422 35.1337 53.2345 35.0585 53.2195C34.9929 53.2064 34.9417 53.1825 34.9063 53.1482C34.871 53.1142 34.8476 53.0676 34.8345 53.0056C34.8195 52.9341 34.8119 52.8407 34.8119 52.728V51.644Z" fill="#04AB54"/>
<path d="M42.1501 50.2976V52.8493L39.5831 50.3746C39.5363 50.3279 39.4769 50.2894 39.4064 50.2605C39.3358 50.2315 39.2477 50.2168 39.1446 50.2168C38.9994 50.2168 38.8782 50.2496 38.7843 50.3144C38.6812 50.3855 38.6289 50.4934 38.6289 50.6354V54.1329H39.5469V51.6214L42.0938 54.0196C42.1659 54.0878 42.2448 54.138 42.3285 54.1684C42.4104 54.1986 42.5003 54.2137 42.5955 54.2137C42.7333 54.2137 42.8483 54.1828 42.9369 54.1216C43.0347 54.0543 43.0842 53.9443 43.0842 53.7951V50.2976H42.1501Z" fill="#04AB54"/>
<path d="M4.15543 47.1008H5.13819V44.1297H6.68034V43.2656H2.61328V44.1297H4.15543V47.1008Z" fill="#04AB54"/>
<path d="M7.96569 45.6321H10.504V47.0988H11.4759V43.2637H10.504V44.7627H7.96569V43.2637H6.98828V47.0988H7.96569V45.6321Z" fill="#04AB54"/>
<path d="M15.9721 47.0988V46.2456H13.3265C13.2141 46.2456 13.1207 46.238 13.0488 46.223C12.987 46.21 12.9396 46.1874 12.9077 46.1555C12.8751 46.1229 12.8529 46.0789 12.8399 46.0214C12.8251 45.9556 12.8176 45.869 12.8176 45.7636V45.5836H15.9506V44.7735H12.8176V44.6042C12.8176 44.5027 12.8251 44.4178 12.8399 44.3519C12.8528 44.2949 12.8754 44.2514 12.9093 44.2189C12.9441 44.1855 12.9933 44.1603 13.0552 44.1441C13.1244 44.126 13.2156 44.1169 13.3265 44.1169H14.3113V43.2637H13.3265C13.052 43.2637 12.8188 43.2871 12.6333 43.3334C12.4416 43.3814 12.2849 43.4601 12.1678 43.5675C12.0494 43.6761 11.9647 43.8201 11.9159 43.9954C11.8693 44.1632 11.8457 44.3681 11.8457 44.6043V45.7584C11.8457 45.9983 11.8693 46.2041 11.9161 46.3702C11.9648 46.5436 12.0495 46.6866 12.1679 46.7952C12.285 46.9027 12.4417 46.9814 12.6334 47.0293C12.8184 47.0756 13.0517 47.099 13.3266 47.099H15.9721V47.0988Z" fill="#04AB54"/>
<path d="M23.0093 58.0871C30.4039 58.0871 37.3333 57.0544 41.6032 55.3555H4.41211C8.67998 57.0548 15.6098 58.0871 23.0093 58.0871Z" fill="#04AB54"/>
</svg>
