<svg width="38" height="30" viewBox="0 0 38 30" fill="none" xmlns="http://www.w3.org/2000/svg">
<path d="M15.7397 3.89717C15.7418 3.92744 15.7447 3.95771 15.7473 3.98756C15.9499 6.2813 17.2918 8.05331 18.9176 8.05331C20.5433 8.05331 21.8852 6.2813 22.0878 3.98756C22.0908 3.95771 22.0933 3.92744 22.0958 3.89717C22.1101 3.79753 22.1198 3.69706 22.1253 3.5949C22.1295 3.52511 22.1324 3.4549 22.1324 3.38386C22.1324 3.20939 22.1198 3.03786 22.0958 2.87054C21.8604 1.24525 20.5277 0 18.9176 0C17.3082 0 15.9747 1.24525 15.7397 2.87054C15.7153 3.03786 15.7031 3.20981 15.7031 3.38386C15.7031 3.4549 15.7061 3.52511 15.7099 3.5949C15.7157 3.69706 15.7254 3.79753 15.7397 3.89717ZM16.9349 2.07261C16.9349 2.07261 17.8602 2.5216 18.9176 2.55061C19.9753 2.52202 20.9006 2.07261 20.9006 2.07261C21.5712 2.33704 21.2533 4.22215 21.2533 4.22257C21.4207 4.10569 21.5745 4.04515 21.6994 4.01362C21.5152 6.01728 20.3406 7.56186 18.918 7.56186C17.4957 7.56186 16.3207 6.01686 16.1361 4.01362C16.261 4.04515 16.4149 4.10569 16.5822 4.22257C16.5818 4.22257 16.2644 2.33704 16.9349 2.07261Z" fill="white"/>
<path d="M21.7013 7.63598C21.6941 7.63514 21.6866 7.63472 21.679 7.63346C21.6197 7.62547 21.5604 7.61875 21.5003 7.61328C21.4999 7.61959 21.4986 7.62547 21.4982 7.63136C21.4974 7.64902 21.494 7.66625 21.4923 7.68391C21.4814 7.78355 21.4511 7.88024 21.4045 7.97315C21.0925 8.75973 20.0814 10.2509 19.4857 11.0972L19.3634 9.33863C19.537 9.2495 19.6867 9.10194 19.7821 8.93042C19.8511 8.80724 19.8935 8.67271 19.8935 8.53607C19.8935 8.53607 19.4496 8.73283 18.996 8.73283C18.9699 8.73283 18.9442 8.73198 18.9182 8.73072C18.8921 8.73198 18.8665 8.73283 18.8404 8.73283C18.3872 8.73283 17.9428 8.53607 17.9428 8.53607C17.9428 8.67271 17.9853 8.80724 18.0542 8.93042C18.1505 9.10194 18.2993 9.24908 18.4738 9.33863L18.3511 11.0972C17.7558 10.2509 16.7447 8.75973 16.4323 7.97315C16.3857 7.88024 16.3562 7.78355 16.3449 7.68391C16.3428 7.66625 16.3394 7.64902 16.3386 7.63136C16.3386 7.62547 16.3369 7.61959 16.3369 7.61328C16.2768 7.61875 16.2175 7.62589 16.1578 7.63346C16.1502 7.63472 16.1427 7.63514 16.1355 7.63598C14.0671 7.92396 12.4746 9.69976 12.4746 11.848C12.4746 14.1969 14.3791 14.1914 16.7279 14.1914H18.9186H21.1089C23.4577 14.1914 25.3622 14.1969 25.3622 11.848C25.3622 9.70018 23.7701 7.92396 21.7013 7.63598Z" fill="white"/>
<path d="M9.53062 24.2127C10.2319 24.2913 10.8478 24.4124 10.8478 24.4124C9.4478 23.6426 9.48438 20.8801 9.48438 20.8801C9.72863 15.5292 6.19764 15.8092 6.19764 15.8092L6.19511 15.818L6.19259 15.8092C6.19259 15.8092 2.6616 15.5296 2.90627 20.8801C2.90627 20.8801 2.94201 23.6426 1.54205 24.4124C1.54205 24.4124 1.91916 24.3867 2.4228 24.377C0.995103 25.0148 0 26.4471 0 28.1119C0 30.3704 1.83045 29.9714 4.08972 29.9714H8.30093C10.5598 29.9714 12.3902 30.3704 12.3902 28.1119C12.3898 26.2827 11.1879 24.7348 9.53062 24.2127ZM7.14061 25.2847L6.19469 26.8217L5.24878 25.2847C4.56141 25.1292 4.03044 24.8084 3.81603 24.4128C4.37055 24.4607 4.84056 24.5624 4.96248 24.7621L4.44118 23.5997C4.94062 24.0983 5.5439 24.3905 6.19427 24.3905C6.82993 24.3905 7.4206 24.1118 7.91332 23.6338L7.54966 24.3905C7.67158 24.19 8.12899 24.1357 8.66627 24.1492C8.58134 24.6633 7.97596 25.0955 7.14061 25.2847ZM8.91052 20.3605C8.85755 21.0693 8.6772 21.7209 8.40435 22.2687C7.90743 23.2642 7.10319 23.9112 6.19511 23.9112C4.81113 23.9112 3.66721 22.4074 3.48769 20.4572C3.48769 20.4572 4.58075 20.276 5.23322 20.0183C5.23322 20.0183 6.41583 19.6235 7.86035 18.5838C7.86749 18.5784 7.87422 18.5733 7.88179 18.5683C7.88179 18.5683 7.90743 18.6053 7.94443 18.6688C8.06971 18.8832 8.33835 19.5239 7.8305 19.8165L8.75497 19.9342H8.77221L8.94121 19.9653C8.93953 20.0994 8.92944 20.2314 8.91052 20.3605Z" fill="white"/>
<path d="M34.9779 24.2127C35.6791 24.2913 36.295 24.4124 36.295 24.4124C34.8951 23.6426 34.9312 20.8801 34.9312 20.8801C35.1759 15.5292 31.6449 15.8092 31.6449 15.8092L31.6424 15.818L31.6394 15.8092C31.6394 15.8092 28.1089 15.5296 28.3535 20.8801C28.3535 20.8801 28.3893 23.6426 26.9897 24.4124C26.9897 24.4124 27.3664 24.3867 27.8705 24.377C26.4428 25.0152 25.4473 26.4475 25.4473 28.1124C25.4473 30.3708 27.2777 29.9718 29.537 29.9718H33.7486C36.007 29.9718 37.8379 30.3708 37.8379 28.1124C37.8371 26.2827 36.6351 24.7348 34.9779 24.2127ZM32.5879 25.2847L31.6424 26.8217L30.6965 25.2847C30.0091 25.1292 29.4781 24.8084 29.2637 24.4128C29.8182 24.4607 30.2887 24.5624 30.4102 24.7621L29.8893 23.5997C30.3887 24.0983 30.992 24.3905 31.6424 24.3905C32.278 24.3905 32.8691 24.1118 33.3614 23.6338L32.9982 24.3905C33.1197 24.19 33.5775 24.1357 34.1144 24.1492C34.0282 24.6633 33.4228 25.0955 32.5879 25.2847ZM34.3578 20.3605C34.3048 21.0693 34.1245 21.7209 33.8516 22.2687C33.3547 23.2642 32.5505 23.9112 31.642 23.9112C30.2584 23.9112 29.1141 22.4074 28.935 20.4572C28.935 20.4572 30.028 20.276 30.6805 20.0183C30.6805 20.0183 31.8631 19.6235 33.3072 18.5838C33.3143 18.5784 33.3211 18.5733 33.3286 18.5683C33.3286 18.5683 33.3547 18.6053 33.3913 18.6688C33.5166 18.8832 33.7852 19.5239 33.2773 19.8165L34.2018 19.9342H34.2191L34.3876 19.9653C34.3864 20.0994 34.3767 20.2314 34.3578 20.3605Z" fill="white"/>
<path d="M19.943 15.8184H17.8931V20.936L13.4629 23.4933L14.4878 25.2691L18.9181 22.7114L23.3479 25.2691L24.3733 23.4933L19.943 20.936V15.8184Z" fill="white"/>
</svg>
