<svg width="30" height="30" viewBox="0 0 30 30" fill="none" xmlns="http://www.w3.org/2000/svg">
<path d="M6.68479 24.9624L13.7998 26.218L16.6066 24.2131V14.0316L14.5 12.8027C14.0035 13.4833 13.3532 14.0369 12.6022 14.4186C11.8512 14.8004 11.0207 14.9993 10.1783 14.9993C9.33582 14.9993 8.50529 14.8004 7.75429 14.4186C7.00329 14.0369 6.35304 13.4833 5.8565 12.8027L0.797335 15.7539C0.555076 15.8958 0.354079 16.0986 0.214233 16.3421C0.0743872 16.5855 0.00054044 16.8613 0 17.1421V24.6419C0.00160237 26.0621 0.566512 27.4238 1.57079 28.4281C2.57508 29.4323 3.93671 29.9972 5.35698 29.9988H13.3925V27.2341L6.49855 26.0175C5.87815 25.9088 5.31602 25.5846 4.9112 25.1021C4.50638 24.6196 4.28483 24.0097 4.28559 23.3798V20.3563H5.35698V23.3798C5.35652 23.7577 5.48946 24.1237 5.73236 24.4132C5.97526 24.7027 6.31254 24.8972 6.68479 24.9624Z" fill="white"/>
<path d="M23.3182 28.5524C23.3036 28.523 23.2799 28.4991 23.2507 28.4843C23.2215 28.4694 23.1882 28.4643 23.1559 28.4698L21.8183 28.6927C20.8132 28.8624 19.7802 28.7071 18.8695 28.2494L17.9732 27.8012C17.8681 27.7486 17.7832 27.663 17.7315 27.5574C17.6799 27.4518 17.6644 27.3322 17.6875 27.217L18.0918 25.1953C18.1052 25.1282 18.0982 25.0586 18.0715 24.9956C18.0449 24.9325 17.9999 24.8789 17.9424 24.8418C17.885 24.8046 17.8176 24.7856 17.7492 24.7872C17.6808 24.7888 17.6144 24.8109 17.5587 24.8507L14.4629 27.062V30.0005H19.8796C20.4617 29.9998 21.0356 29.8643 21.5566 29.6047L23.2496 28.7581C23.286 28.7399 23.3136 28.708 23.3264 28.6695C23.3393 28.6309 23.3363 28.5888 23.3182 28.5524Z" fill="white"/>
<path d="M26.3563 18.2138L24.1078 16.7148L21.8594 18.2138L24.1078 19.7127L26.3563 18.2138Z" fill="white"/>
<path d="M0 28.1914V29.9992H1.80775C1.09111 29.5226 0.476568 28.9081 0 28.1914Z" fill="white"/>
<path d="M14.464 2.99117V2.14171C14.4637 1.85766 14.3507 1.58533 14.1498 1.38448C13.949 1.18362 13.6766 1.07064 13.3926 1.07031V2.22107C13.6788 2.30857 13.939 2.46531 14.1502 2.67741L14.464 2.99117Z" fill="white"/>
<path d="M10.1782 13.9269C11.3144 13.9256 12.4037 13.4736 13.2071 12.6702C14.0105 11.8668 14.4625 10.7775 14.4638 9.64127V4.50617L13.3924 3.43477C13.2503 3.2927 13.0576 3.21289 12.8567 3.21289C12.6557 3.21289 12.463 3.2927 12.321 3.43477L11.4715 4.28429C11.1285 4.62729 10.6633 4.81999 10.1782 4.81999C9.69307 4.81999 9.22785 4.62729 8.88483 4.28429L8.03537 3.43477C7.89329 3.2927 7.7006 3.21289 7.49967 3.21289C7.29875 3.21289 7.10606 3.2927 6.96398 3.43477L5.89258 4.50617V9.64127C5.89386 10.7775 6.34579 11.8668 7.14922 12.6702C7.95264 13.4736 9.04195 13.9256 10.1782 13.9269ZM8.03537 8.56988C7.92942 8.56988 7.82585 8.53846 7.73775 8.47959C7.64966 8.42073 7.581 8.33707 7.54045 8.23918C7.49991 8.14129 7.4893 8.03358 7.50997 7.92967C7.53064 7.82575 7.58166 7.7303 7.65658 7.65538C7.7315 7.58046 7.82695 7.52944 7.93086 7.50877C8.03478 7.4881 8.14249 7.49871 8.24038 7.53926C8.33826 7.5798 8.42193 7.64846 8.48079 7.73656C8.53965 7.82465 8.57107 7.92823 8.57107 8.03418C8.57107 8.17625 8.51463 8.31251 8.41417 8.41297C8.31371 8.51344 8.17745 8.56988 8.03537 8.56988ZM12.321 8.56988C12.215 8.56988 12.1114 8.53846 12.0233 8.47959C11.9352 8.42073 11.8666 8.33707 11.826 8.23918C11.7855 8.14129 11.7749 8.03358 11.7956 7.92967C11.8162 7.82575 11.8672 7.7303 11.9422 7.65538C12.0171 7.58046 12.1125 7.52944 12.2165 7.50877C12.3204 7.4881 12.4281 7.49871 12.526 7.53926C12.6239 7.5798 12.7075 7.64846 12.7664 7.73656C12.8252 7.82465 12.8567 7.92823 12.8567 8.03418C12.8567 8.17625 12.8002 8.31251 12.6998 8.41297C12.5993 8.51344 12.463 8.56988 12.321 8.56988ZM11.2496 5.89138H13.3924V6.96278H11.2496V5.89138ZM10.1782 10.177V9.10557H11.2496V10.177C11.2491 10.6031 11.0796 11.0115 10.7783 11.3128C10.477 11.6141 10.0685 11.7836 9.64247 11.7841H9.10677V10.7127H9.64247C9.7845 10.7125 9.92066 10.656 10.0211 10.5556C10.1215 10.4552 10.178 10.319 10.1782 10.177ZM6.96398 5.89138H9.10677V6.96278H6.96398V5.89138Z" fill="white"/>
<path d="M7.49827 2.14279C7.73856 2.14214 7.97659 2.18915 8.19859 2.2811C8.42059 2.37305 8.62215 2.50812 8.79161 2.67849L9.64106 3.52801C9.78314 3.67007 9.97584 3.74989 10.1768 3.74989C10.3777 3.74989 10.5704 3.67007 10.7125 3.52801L11.5619 2.67849C11.7731 2.46639 12.0333 2.30965 12.3196 2.22215V1.0714C12.3192 0.787344 12.2062 0.515019 12.0054 0.314163C11.8045 0.113308 11.5322 0.000324859 11.2482 0H9.10536C8.29332 0.00106172 7.5117 0.309111 6.91729 0.862362C6.32288 1.41561 5.95962 2.17315 5.90039 2.98303L6.20493 2.67849C6.37438 2.50812 6.57594 2.37305 6.79794 2.2811C7.01994 2.18915 7.25798 2.14214 7.49827 2.14279Z" fill="white"/>
<path d="M24.999 22.4995L26.7847 21.1602V19.2148L24.4034 20.8024C24.3154 20.8611 24.212 20.8924 24.1062 20.8924C24.0005 20.8924 23.8971 20.8611 23.8091 20.8024L21.4277 19.2148V21.1602L23.2134 22.4995H24.999Z" fill="white"/>
<path d="M17.6777 23.7158C17.8932 23.7035 18.1085 23.7407 18.3073 23.8246C18.5061 23.9085 18.6831 24.0368 18.8246 24.1997C18.966 24.3627 19.0683 24.5558 19.1235 24.7644C19.1787 24.973 19.1854 25.1915 19.1431 25.4031L18.819 27.0235L19.3494 27.2887C20.0577 27.6447 20.8611 27.7655 21.6428 27.6335L22.9804 27.4106C23.2696 27.3624 23.5666 27.4196 23.8173 27.5718C24.0679 27.7239 24.2557 27.961 24.3464 28.2399C24.4371 28.5188 24.4247 28.8209 24.3115 29.0914C24.1983 29.3619 23.9917 29.5829 23.7295 29.714L23.1612 29.9981H29.4631C29.6051 29.998 29.7413 29.9415 29.8417 29.8411C29.9421 29.7406 29.9986 29.6045 29.9988 29.4624V14.4629H17.6777V23.7158ZM23.0347 26.2483H21.4276V25.1769H23.0347V26.2483ZM26.7846 26.2483H24.1061V25.1769H26.7846V26.2483ZM20.3562 18.2128C20.3562 18.1246 20.378 18.0378 20.4196 17.96C20.4612 17.8823 20.5214 17.816 20.5948 17.7671L23.809 15.6243C23.897 15.5656 24.0004 15.5343 24.1061 15.5343C24.2119 15.5343 24.3153 15.5656 24.4033 15.6243L27.6175 17.7671C27.6908 17.816 27.751 17.8823 27.7926 17.96C27.8342 18.0378 27.856 18.1246 27.856 18.2128V21.427C27.856 21.5101 27.8366 21.5922 27.7994 21.6665C27.7623 21.7409 27.7083 21.8056 27.6417 21.8555L25.4989 23.4626C25.4062 23.5322 25.2934 23.5698 25.1775 23.5698H23.0347C22.9188 23.5698 22.806 23.5322 22.7133 23.4626L20.5705 21.8555C20.504 21.8056 20.45 21.7409 20.4128 21.6665C20.3756 21.5922 20.3562 21.5101 20.3562 21.427V18.2128Z" fill="white"/>
<path d="M29.4631 11.25H18.2134C18.0714 11.2502 17.9352 11.3067 17.8348 11.4071C17.7344 11.5075 17.6779 11.6437 17.6777 11.7857V13.3928H29.9988V11.7857C29.9986 11.6437 29.9421 11.5075 29.8417 11.4071C29.7413 11.3067 29.6051 11.2502 29.4631 11.25ZM19.2848 12.8571C19.1789 12.8571 19.0753 12.8257 18.9872 12.7668C18.8991 12.708 18.8305 12.6243 18.7899 12.5264C18.7494 12.4285 18.7388 12.3208 18.7594 12.2169C18.7801 12.113 18.8311 12.0175 18.906 11.9426C18.981 11.8677 19.0764 11.8167 19.1803 11.796C19.2842 11.7753 19.3919 11.7859 19.4898 11.8265C19.5877 11.867 19.6714 11.9357 19.7302 12.0238C19.7891 12.1119 19.8205 12.2154 19.8205 12.3214C19.8205 12.4635 19.7641 12.5997 19.6636 12.7002C19.5632 12.8007 19.4269 12.8571 19.2848 12.8571ZM20.8919 12.8571C20.786 12.8571 20.6824 12.8257 20.5943 12.7668C20.5062 12.708 20.4376 12.6243 20.397 12.5264C20.3565 12.4285 20.3459 12.3208 20.3665 12.2169C20.3872 12.113 20.4382 12.0175 20.5131 11.9426C20.588 11.8677 20.6835 11.8167 20.7874 11.796C20.8913 11.7753 20.999 11.7859 21.0969 11.8265C21.1948 11.867 21.2785 11.9357 21.3373 12.0238C21.3962 12.1119 21.4276 12.2154 21.4276 12.3214C21.4276 12.4635 21.3712 12.5997 21.2707 12.7002C21.1703 12.8007 21.034 12.8571 20.8919 12.8571ZM22.499 12.8571C22.3931 12.8571 22.2895 12.8257 22.2014 12.7668C22.1133 12.708 22.0446 12.6243 22.0041 12.5264C21.9636 12.4285 21.9529 12.3208 21.9736 12.2169C21.9943 12.113 22.0453 12.0175 22.1202 11.9426C22.1951 11.8677 22.2906 11.8167 22.3945 11.796C22.4984 11.7753 22.6061 11.7859 22.704 11.8265C22.8019 11.867 22.8856 11.9357 22.9444 12.0238C23.0033 12.1119 23.0347 12.2154 23.0347 12.3214C23.0347 12.4635 22.9783 12.5997 22.8778 12.7002C22.7774 12.8007 22.6411 12.8571 22.499 12.8571Z" fill="white"/>
</svg>
