<svg width="30" height="30" viewBox="0 0 30 30" fill="none" xmlns="http://www.w3.org/2000/svg">
<path d="M20.9532 10.4219H9.09375C8.8125 10.4219 8.625 10.6097 8.625 10.8914V16.666C8.625 16.9008 8.8125 17.1355 9.09375 17.1355H21.0001C21.2345 17.1355 21.4688 16.9008 21.4688 16.666V10.8914C21.422 10.6097 21.2345 10.4219 20.9532 10.4219Z" fill="white"/>
<path d="M15.4688 22.91V18.0273H14.5313V22.91L10.7813 25.9617C10.6875 26.0556 10.5938 26.1964 10.5938 26.3373C10.5938 26.4781 10.6406 26.6189 10.7813 26.7128L14.7656 29.9054C14.8594 29.9992 14.9531 29.9993 15.0469 29.9993C15.1407 29.9993 15.2344 29.9523 15.3282 29.9054L19.3126 26.7128C19.4063 26.6189 19.5001 26.4781 19.5001 26.3373C19.5001 26.1964 19.4532 26.0556 19.3126 25.9617L15.4688 22.91Z" fill="white"/>
<path d="M27.4219 22.6768V13.7566C27.4219 13.5219 27.1875 13.2871 26.9532 13.2871H22.3594V14.2261H26.4844V22.6768C25.0313 22.8646 23.9063 23.9444 23.9063 25.2121C23.9063 26.6205 25.2656 27.7942 26.9532 27.7942C28.6407 27.7942 30 26.6205 30 25.2121C30 23.9444 28.875 22.8646 27.4219 22.6768Z" fill="white"/>
<path d="M14.5313 7.65263V9.43668H15.4688V7.65263C17.8125 7.46483 19.6407 5.82163 19.6407 3.84979C19.6407 1.7371 17.5782 0 15 0C12.4219 0 10.3594 1.7371 10.3594 3.84979C10.4063 5.82163 12.2344 7.46483 14.5313 7.65263Z" fill="white"/>
<path d="M2.62502 13.8035V22.7237C1.12501 22.8646 0 23.9444 0 25.2589C0 26.6674 1.35938 27.8411 3.04689 27.8411C4.7344 27.8411 6.09379 26.6674 6.09379 25.2589C6.09379 23.9913 4.96878 22.9115 3.51565 22.7237V14.273H7.64067V13.334H3.04689C2.85939 13.334 2.62502 13.5218 2.62502 13.8035Z" fill="white"/>
</svg>
