<svg width="30" height="30" viewBox="0 0 30 30" fill="none" xmlns="http://www.w3.org/2000/svg">
<path d="M12.3913 0H1.95652C1.43779 0.000566215 0.940474 0.206881 0.573677 0.573677C0.206881 0.940474 0.000566215 1.43779 0 1.95652V9.78261C0.000566215 10.3013 0.206881 10.7987 0.573677 11.1655C0.940474 11.5322 1.43779 11.7386 1.95652 11.7391H4.94735L6.71279 13.5046C6.77333 13.5651 6.84521 13.6132 6.92433 13.646C7.00345 13.6788 7.08825 13.6956 7.17389 13.6956C7.25954 13.6956 7.34434 13.6788 7.42346 13.646C7.50257 13.6132 7.57446 13.5651 7.635 13.5046L9.40047 11.7391H12.3913C12.91 11.7386 13.4074 11.5322 13.7741 11.1655C14.1409 10.7987 14.3473 10.3013 14.3478 9.78261V1.95652C14.3473 1.43779 14.1409 0.940474 13.7741 0.573677C13.4074 0.206881 12.91 0.000566215 12.3913 0ZM11.087 8.47826H6.52174C6.34877 8.47826 6.18289 8.40955 6.06058 8.28724C5.93828 8.16494 5.86957 7.99905 5.86957 7.82609C5.86957 7.65312 5.93828 7.48724 6.06058 7.36493C6.18289 7.24262 6.34877 7.17391 6.52174 7.17391H11.087C11.2599 7.17391 11.4258 7.24262 11.5481 7.36493C11.6704 7.48724 11.7391 7.65312 11.7391 7.82609C11.7391 7.99905 11.6704 8.16494 11.5481 8.28724C11.4258 8.40955 11.2599 8.47826 11.087 8.47826ZM11.087 4.56522H3.26087C3.0879 4.56522 2.92202 4.49651 2.79971 4.3742C2.67741 4.25189 2.6087 4.08601 2.6087 3.91304C2.6087 3.74008 2.67741 3.57419 2.79971 3.45189C2.92202 3.32958 3.0879 3.26087 3.26087 3.26087H11.087C11.2599 3.26087 11.4258 3.32958 11.5481 3.45189C11.6704 3.57419 11.7391 3.74008 11.7391 3.91304C11.7391 4.08601 11.6704 4.25189 11.5481 4.3742C11.4258 4.49651 11.2599 4.56522 11.087 4.56522ZM28.0435 0H17.6087C17.09 0.000566215 16.5926 0.206881 16.2259 0.573677C15.8591 0.940474 15.6527 1.43779 15.6522 1.95652V9.78261C15.6527 10.3013 15.8591 10.7987 16.2259 11.1655C16.5926 11.5322 17.09 11.7386 17.6087 11.7391H20.5995L22.365 13.5046C22.4255 13.5651 22.4974 13.6132 22.5765 13.646C22.6556 13.6788 22.7404 13.6956 22.8261 13.6956C22.9117 13.6956 22.9965 13.6788 23.0756 13.646C23.1547 13.6132 23.2266 13.5651 23.2872 13.5046L25.0526 11.7391H28.0435C28.5622 11.7386 29.0595 11.5322 29.4263 11.1655C29.7931 10.7987 29.9994 10.3013 30 9.78261V1.95652C29.9994 1.43779 29.7931 0.940474 29.4263 0.573677C29.0595 0.206881 28.5622 0.000566215 28.0435 0ZM26.7391 8.47826H22.1739C22.0009 8.47826 21.8351 8.40955 21.7128 8.28724C21.5905 8.16494 21.5217 7.99905 21.5217 7.82609C21.5217 7.65312 21.5905 7.48724 21.7128 7.36493C21.8351 7.24262 22.0009 7.17391 22.1739 7.17391H26.7391C26.9121 7.17391 27.078 7.24262 27.2003 7.36493C27.3226 7.48724 27.3913 7.65312 27.3913 7.82609C27.3913 7.99905 27.3226 8.16494 27.2003 8.28724C27.078 8.40955 26.9121 8.47826 26.7391 8.47826ZM26.7391 4.56522H18.913C18.7401 4.56522 18.5742 4.49651 18.4519 4.3742C18.3296 4.25189 18.2609 4.08601 18.2609 3.91304C18.2609 3.74008 18.3296 3.57419 18.4519 3.45189C18.5742 3.32958 18.7401 3.26087 18.913 3.26087H26.7391C26.9121 3.26087 27.078 3.32958 27.2003 3.45189C27.3226 3.57419 27.3913 3.74008 27.3913 3.91304C27.3913 4.08601 27.3226 4.25189 27.2003 4.3742C27.078 4.49651 26.9121 4.56522 26.7391 4.56522ZM23.1522 14.3478C19.7348 14.3478 16.9565 16.3957 16.9565 18.913C16.9831 19.5867 17.1757 20.2433 17.517 20.8246C17.8583 21.406 18.3378 21.8941 18.913 22.2457V23.1522C18.9143 23.8607 19.0928 24.5577 19.4322 25.1796C19.7716 25.8016 20.2613 26.3287 20.8565 26.713L20.6413 27.5674C20.5692 27.8559 20.5638 28.157 20.6255 28.4479C20.6871 28.7389 20.8143 29.0119 20.9972 29.2464C21.1801 29.4808 21.414 29.6706 21.6812 29.8011C21.9484 29.9317 22.2418 29.9997 22.5391 30H23.7652C24.0626 29.9997 24.356 29.9317 24.6232 29.8011C24.8903 29.6706 25.1243 29.4808 25.3072 29.2464C25.4901 29.0119 25.6172 28.7389 25.6789 28.4479C25.7405 28.157 25.7351 27.8559 25.663 27.5674L25.4478 26.713C26.0431 26.3287 26.5327 25.8016 26.8721 25.1796C27.2116 24.5577 27.3901 23.8607 27.3913 23.1522V22.2457C27.9665 21.8941 28.4461 21.406 28.7874 20.8246C29.1287 20.2433 29.3212 19.5867 29.3478 18.913C29.3478 16.3957 26.5696 14.3478 23.1522 14.3478ZM26.087 23.1522C26.087 23.9305 25.7778 24.677 25.2274 25.2274C24.677 25.7778 23.9305 26.087 23.1522 26.087C22.3738 26.087 21.6273 25.7778 21.077 25.2274C20.5266 24.677 20.2174 23.9305 20.2174 23.1522V20.1978C20.2174 19.8072 20.355 19.2479 20.7609 19.0879C21.1965 18.9162 21.7792 19.3681 22.1283 19.5717C23.113 20.1457 24.3978 20.9022 26.087 20.4913L26.087 23.1522ZM6.84783 14.3478C3.43043 14.3478 0.652174 16.3957 0.652174 18.913C0.678796 19.5867 0.871304 20.2433 1.21261 20.8246C1.55392 21.406 2.03347 21.8941 2.6087 22.2457V23.1522C2.60994 23.8607 2.78841 24.5577 3.12785 25.1796C3.4673 25.8016 3.95693 26.3287 4.55217 26.713L4.33696 27.5674C4.26488 27.8559 4.25947 28.157 4.32113 28.4479C4.38279 28.7389 4.5099 29.0119 4.69282 29.2464C4.87574 29.4808 5.10966 29.6706 5.37683 29.8011C5.644 29.9317 5.93741 29.9997 6.23478 30H7.46087C7.75824 29.9997 8.05165 29.9317 8.31882 29.8011C8.58599 29.6706 8.81991 29.4808 9.00283 29.2464C9.18575 29.0119 9.31286 28.7389 9.37452 28.4479C9.43618 28.157 9.43077 27.8559 9.3587 27.5674L9.14348 26.713C9.73872 26.3287 10.2284 25.8016 10.5678 25.1796C10.9072 24.5577 11.0857 23.8607 11.087 23.1522V22.2457C11.6622 21.8941 12.1417 21.406 12.483 20.8246C12.8243 20.2433 13.0169 19.5867 13.0435 18.913C13.0435 16.3957 10.2652 14.3478 6.84783 14.3478ZM9.78261 23.1522C9.78261 23.9305 9.47341 24.677 8.92303 25.2274C8.37265 25.7778 7.62618 26.087 6.84783 26.087C6.06947 26.087 5.323 25.7778 4.77262 25.2274C4.22224 24.677 3.91304 23.9305 3.91304 23.1522V20.1978C3.91304 19.8072 4.05065 19.2479 4.45653 19.0879C4.89218 18.9162 5.4749 19.3681 5.82391 19.5717C6.80869 20.1457 8.09347 20.9022 9.7826 20.4913L9.78261 23.1522Z" fill="white"/>
</svg>
