<svg width="20" height="30" viewBox="0 0 20 30" fill="none" xmlns="http://www.w3.org/2000/svg">
<path d="M0 28.2269C0 29.2269 0.818187 29.9997 1.77274 29.9997H18.0001C19.0001 29.9997 19.7729 29.1815 19.7729 28.2269V24.3633H0V28.2269ZM10.0455 25.6815C10.8637 25.6815 11.5455 26.3633 11.5455 27.1815C11.5455 28.0451 10.8637 28.7269 10.0455 28.7269C9.18188 28.7269 8.50005 28.0451 8.50005 27.1815C8.54551 26.3633 9.22733 25.6815 10.0455 25.6815Z" fill="white"/>
<path d="M18.045 0H1.81766C0.817655 0 0.0449219 0.818187 0.0449219 1.77274V4.09093H19.8632V1.77274C19.8178 0.818187 18.9996 0 18.045 0ZM9.2268 2.50002H7.59043C7.3177 2.50002 7.13588 2.27274 7.13588 2.04547C7.13588 1.77274 7.3177 1.59092 7.59043 1.59092H9.2268C9.49953 1.59092 9.68135 1.77274 9.68135 2.04547C9.68135 2.3182 9.45407 2.50002 9.2268 2.50002ZM12.2268 2.50002H11.2723C11.045 2.50002 10.8177 2.27274 10.8177 2.04547C10.8177 1.77274 11.045 1.59092 11.2723 1.59092H12.2723C12.545 1.59092 12.7268 1.77274 12.7268 2.04547C12.6814 2.3182 12.4995 2.50002 12.2268 2.50002Z" fill="white"/>
<path d="M0 23.4547H19.8183V5H0V23.4547ZM13.4546 8.18184C13.4546 7.95456 13.6365 7.72729 13.9092 7.72729H16.1819C16.4092 7.72729 16.6365 7.95456 16.6365 8.18184V10.4546C16.6365 10.6819 16.4092 10.9091 16.1819 10.9091H13.9092C13.6365 10.9091 13.4546 10.6819 13.4546 10.4546V8.18184ZM13.4546 13.091C13.4546 12.8637 13.6365 12.6364 13.9092 12.6364H16.1819C16.4092 12.6364 16.6365 12.8637 16.6365 13.091V15.3637C16.6365 15.6364 16.4092 15.8182 16.1819 15.8182H13.9092C13.6365 15.8182 13.4546 15.6364 13.4546 15.3637V13.091ZM13.4546 18.0455C13.4546 17.7728 13.6365 17.591 13.9092 17.591H16.1819C16.4092 17.591 16.6365 17.7728 16.6365 18.0455V20.3183C16.6365 20.5456 16.4092 20.7728 16.1819 20.7728H13.9092C13.6365 20.7728 13.4546 20.5456 13.4546 20.3183V18.0455ZM8.31824 8.18184C8.31824 7.95456 8.50006 7.72729 8.77278 7.72729H11.0455C11.3183 7.72729 11.5001 7.95456 11.5001 8.18184V10.4546C11.5001 10.6819 11.3183 10.9091 11.0455 10.9091H8.77278C8.50006 10.9091 8.31824 10.6819 8.31824 10.4546V8.18184ZM8.31824 13.091C8.31824 12.8637 8.50006 12.6364 8.77278 12.6364H11.0455C11.3183 12.6364 11.5001 12.8637 11.5001 13.091V15.3637C11.5001 15.6364 11.3183 15.8182 11.0455 15.8182H8.77278C8.50006 15.8182 8.31824 15.6364 8.31824 15.3637V13.091ZM8.31824 18.0455C8.31824 17.7728 8.50006 17.591 8.77278 17.591H11.0455C11.3183 17.591 11.5001 17.7728 11.5001 18.0455V20.3183C11.5001 20.5456 11.3183 20.7728 11.0455 20.7728H8.77278C8.50006 20.7728 8.31824 20.5456 8.31824 20.3183V18.0455ZM3.22729 8.18184C3.22729 7.95456 3.40911 7.72729 3.68184 7.72729H5.90913C6.18186 7.72729 6.36368 7.95456 6.36368 8.18184V10.4546C6.36368 10.6819 6.18186 10.9091 5.90913 10.9091H3.68184C3.40911 10.9091 3.22729 10.6819 3.22729 10.4546V8.18184ZM3.22729 13.091C3.22729 12.8637 3.40911 12.6364 3.68184 12.6364H5.90913C6.18186 12.6364 6.36368 12.8637 6.36368 13.091V15.3637C6.36368 15.6364 6.18186 15.8182 5.90913 15.8182H3.68184C3.40911 15.8182 3.22729 15.6364 3.22729 15.3637V13.091ZM3.22729 18.0455C3.22729 17.7728 3.40911 17.591 3.68184 17.591H5.90913C6.18186 17.591 6.36368 17.7728 6.36368 18.0455V20.3183C6.36368 20.5456 6.18186 20.7728 5.90913 20.7728H3.68184C3.40911 20.7728 3.22729 20.5456 3.22729 20.3183V18.0455Z" fill="white"/>
</svg>
