<svg width="540" height="407" viewBox="0 0 540 407" fill="none" xmlns="http://www.w3.org/2000/svg">
<path d="M70.4 401.598C70 401.598 69.6 401.398 69.3 400.998C67.9 398.598 66.5 396.099 65 393.398C64.7 392.798 64.9 392.098 65.5 391.698C66.1 391.398 66.8 391.598 67.2 392.198C68.6 394.798 70 397.298 71.4 399.698C71.7 400.298 71.5 400.999 71 401.398C70.8 401.499 70.6 401.598 70.4 401.598ZM510.6 396.898C510.5 396.898 510.5 396.898 510.4 396.898C509.7 396.798 509.2 396.198 509.3 395.498C509.6 392.898 510 390.099 510.6 386.898C510.7 386.198 511.4 385.798 512 385.898C512.7 385.999 513.1 386.698 513 387.298C512.5 390.499 512 393.298 511.7 395.798C511.8 396.398 511.2 396.898 510.6 396.898ZM62.1 386.398C61.7 386.398 61.2 386.198 61 385.698C59.7 383.198 58.4 380.599 57.1 377.898C56.8 377.298 57.1 376.499 57.7 376.298C58.3 375.999 59.1 376.298 59.3 376.898C60.6 379.499 61.9 382.098 63.1 384.598C63.4 385.198 63.2 385.999 62.6 386.298C62.5 386.398 62.3 386.398 62.1 386.398ZM513.5 379.798C513.4 379.798 513.3 379.798 513.3 379.798C512.6 379.698 512.2 378.999 512.3 378.398C512.8 375.599 513.4 372.798 514 369.898C514.1 369.198 514.8 368.798 515.5 368.898C516.2 368.999 516.6 369.698 516.5 370.398C515.9 373.298 515.3 376.099 514.8 378.898C514.5 379.398 514 379.798 513.5 379.798ZM54.6 370.898C54.1 370.898 53.7 370.598 53.5 370.198C52.3 367.598 51.1 364.898 50 362.298C49.7 361.698 50 360.898 50.6 360.698C51.2 360.398 52 360.698 52.2 361.298C53.3 363.898 54.5 366.598 55.7 369.198C56 369.798 55.7 370.598 55.1 370.798C54.9 370.798 54.8 370.898 54.6 370.898ZM516.9 362.898C516.8 362.898 516.7 362.898 516.6 362.898C515.9 362.798 515.5 362.099 515.7 361.398L517.5 352.898C517.6 352.198 518.3 351.798 519 351.998C519.7 352.098 520.1 352.798 519.9 353.498L518.1 361.898C518 362.499 517.5 362.898 516.9 362.898ZM47.7 354.998C47.2 354.998 46.8 354.698 46.6 354.198C45.5 351.498 44.4 348.798 43.4 346.198C43.2 345.598 43.5 344.798 44.1 344.598C44.7 344.398 45.4 344.698 45.7 345.298C46.7 347.999 47.8 350.598 48.9 353.298C49.2 353.898 48.9 354.698 48.2 354.898C48 354.999 47.9 354.998 47.7 354.998ZM520.5 345.998C520.4 345.998 520.3 345.998 520.2 345.998C519.5 345.898 519.1 345.198 519.2 344.498C519.8 341.598 520.4 338.798 520.9 335.998C521 335.298 521.7 334.898 522.4 334.998C523.1 335.098 523.5 335.798 523.4 336.498C522.8 339.298 522.3 342.098 521.7 344.998C521.6 345.598 521.1 345.998 520.5 345.998ZM41.5 338.898C41 338.898 40.5 338.598 40.3 338.098C39.3 335.398 38.3 332.599 37.4 329.898C37.2 329.298 37.5 328.598 38.2 328.298C38.8 328.098 39.5 328.398 39.8 329.098C40.7 331.798 41.7 334.498 42.7 337.198C42.9 337.798 42.6 338.499 42 338.798C41.8 338.898 41.6 338.898 41.5 338.898ZM523.9 329.098C523.8 329.098 523.8 329.098 523.7 329.098C523 328.998 522.6 328.298 522.7 327.698C523.3 324.598 523.7 321.798 524.1 319.198C524.2 318.498 524.8 318.098 525.5 318.198C526.2 318.298 526.6 318.898 526.5 319.598C526.1 322.198 525.6 324.998 525 328.198C525 328.598 524.5 329.098 523.9 329.098ZM35.8 322.598C35.3 322.598 34.8 322.298 34.6 321.698C33.7 318.898 32.8 316.099 32 313.398C31.8 312.698 32.2 312.099 32.8 311.898C33.5 311.698 34.1 312.098 34.3 312.698C35.1 315.398 36 318.198 36.8 320.898C37 321.499 36.7 322.198 36 322.498C36.1 322.598 36 322.598 35.8 322.598ZM526.5 311.998H526.4C525.7 311.898 525.2 311.298 525.3 310.598C525.5 308.898 525.6 307.298 525.7 305.898C525.7 304.698 525.7 303.398 525.6 302.098C525.6 301.398 526.1 300.798 526.8 300.798C527.5 300.798 528.1 301.298 528.1 301.998C528.2 303.298 528.2 304.698 528.2 305.898C528.1 307.398 528 308.999 527.8 310.798C527.7 311.499 527.1 311.998 526.5 311.998ZM30.9 305.998C30.4 305.998 29.9 305.598 29.7 305.098C28.9 302.298 28.2 299.498 27.5 296.698C27.3 295.998 27.7 295.398 28.4 295.198C29.1 294.998 29.7 295.398 29.9 296.098C30.6 298.798 31.3 301.599 32 304.398C32.2 305.099 31.8 305.698 31.1 305.898C31.1 305.999 31 305.998 30.9 305.998ZM525.9 294.798C525.3 294.798 524.8 294.398 524.7 293.698C524.3 290.998 523.8 288.198 523.1 285.298C522.9 284.598 523.4 283.998 524 283.798C524.7 283.598 525.3 284.098 525.5 284.698C526.2 287.598 526.7 290.498 527.1 293.298C527.2 293.998 526.7 294.598 526.1 294.698C526.1 294.698 526 294.798 525.9 294.798ZM26.8 289.198C26.2 289.198 25.7 288.798 25.6 288.198C25 285.298 24.4 282.498 23.9 279.698C23.8 278.998 24.2 278.398 24.9 278.298C25.6 278.198 26.2 278.598 26.3 279.298C26.8 281.998 27.3 284.898 28 287.698C28.1 288.398 27.7 288.998 27.1 289.198C27 289.198 26.9 289.198 26.8 289.198ZM522.1 277.898C521.6 277.898 521.1 277.598 520.9 276.998C520.1 274.398 519.2 271.598 518.2 268.898C518 268.298 518.3 267.598 518.9 267.298C519.5 267.098 520.2 267.398 520.5 267.998C521.5 270.798 522.4 273.598 523.2 276.298C523.4 276.998 523 277.598 522.4 277.798C522.4 277.898 522.3 277.898 522.1 277.898ZM23.8 272.198C23.2 272.198 22.7 271.798 22.6 271.098C22.2 268.098 21.9 265.198 21.6 262.498C21.5 261.798 22 261.198 22.7 261.198C23.4 261.098 24 261.598 24 262.298C24.3 264.998 24.6 267.898 25 270.798C25.1 271.498 24.6 272.098 23.9 272.198C23.9 272.198 23.9 272.198 23.8 272.198ZM516.3 261.698C515.8 261.698 515.4 261.398 515.2 260.898C515 260.499 514.8 259.998 514.7 259.598C513.7 257.398 512.8 255.198 511.8 252.998C511.5 252.398 511.8 251.598 512.4 251.398C513 251.098 513.8 251.398 514 251.998C515 254.198 515.9 256.398 516.9 258.598C517.1 259.098 517.3 259.498 517.5 259.998C517.8 260.598 517.5 261.398 516.8 261.598C516.6 261.598 516.5 261.698 516.3 261.698ZM22.3 254.998C21.6 254.998 21.1 254.498 21.1 253.798C21 252.198 21 250.598 21 248.998C21 247.698 21 246.298 21.1 244.998C21.1 244.298 21.7 243.698 22.4 243.798C23.1 243.798 23.6 244.398 23.6 245.098C23.6 246.398 23.5 247.698 23.5 248.998C23.5 250.498 23.5 252.098 23.6 253.698C23.5 254.398 23 254.998 22.3 254.998ZM509.4 245.798C508.9 245.798 508.5 245.498 508.3 245.098C507.2 242.398 506 239.798 505 237.098C504.7 236.498 505 235.698 505.7 235.498C506.3 235.198 507.1 235.498 507.3 236.198C508.4 238.898 509.5 241.498 510.6 244.098C510.9 244.698 510.6 245.498 510 245.698C509.7 245.798 509.6 245.798 509.4 245.798ZM23.1 237.798C23 237.798 23 237.798 22.9 237.798C22.2 237.698 21.8 237.098 21.9 236.398C22.4 233.499 23.1 230.598 23.9 227.798C24.1 227.098 24.8 226.798 25.4 226.998C26.1 227.198 26.4 227.898 26.2 228.498C25.4 231.198 24.7 233.998 24.3 236.698C24.2 237.398 23.7 237.798 23.1 237.798ZM502.9 229.798C502.4 229.798 501.9 229.498 501.7 228.998C500.6 226.098 499.7 223.498 498.8 220.798C498.6 220.198 498.9 219.498 499.6 219.198C500.2 218.998 500.9 219.298 501.2 219.998C502.1 222.598 503 225.298 504.1 228.098C504.3 228.698 504 229.398 503.4 229.698C503.2 229.798 503 229.798 502.9 229.798ZM28.2 221.298C28 221.298 27.9 221.298 27.7 221.198C27.1 220.898 26.8 220.198 27.1 219.598C28.3 216.998 29.7 214.398 31.3 211.898C31.7 211.298 32.4 211.098 33 211.498C33.6 211.898 33.8 212.598 33.4 213.198C31.9 215.598 30.5 218.098 29.4 220.698C29.1 220.998 28.6 221.298 28.2 221.298ZM497.3 213.498C496.8 213.498 496.3 213.198 496.1 212.598C495.3 209.798 494.5 206.898 493.8 204.198C493.6 203.498 494 202.898 494.7 202.698C495.4 202.498 496 202.898 496.2 203.598C496.9 206.298 497.6 209.098 498.4 211.898C498.6 212.598 498.2 213.198 497.6 213.398C497.6 213.498 497.5 213.498 497.3 213.498ZM37.2 206.698C36.9 206.698 36.7 206.598 36.4 206.398C35.9 205.998 35.8 205.198 36.2 204.698C38 202.498 39.9 200.298 42 198.198C42.5 197.698 43.3 197.698 43.7 198.198C44.2 198.698 44.2 199.498 43.7 199.898C41.7 201.898 39.8 204.098 38 206.198C37.9 206.498 37.6 206.698 37.2 206.698ZM493.3 196.698C492.7 196.698 492.2 196.298 492.1 195.698C491.8 193.898 491.4 191.998 491.2 190.198C491.1 189.098 491 187.998 491 186.998C491 186.298 491.5 185.698 492.2 185.698C492.8 185.698 493.5 186.198 493.5 186.898C493.6 187.898 493.6 188.898 493.7 189.898C494 191.598 494.3 193.498 494.6 195.298C494.7 195.998 494.3 196.598 493.6 196.698C493.4 196.698 493.3 196.698 493.3 196.698ZM49.4 194.498C49.1 194.498 48.7 194.398 48.5 194.098C48.1 193.598 48.1 192.798 48.6 192.398C50.8 190.498 53 188.698 55.3 186.898C55.8 186.498 56.6 186.598 57 187.098C57.4 187.598 57.3 188.398 56.8 188.798C54.6 190.598 52.3 192.398 50.2 194.298C50 194.398 49.7 194.498 49.4 194.498ZM62.9 183.698C62.5 183.698 62.2 183.498 61.9 183.198C61.5 182.698 61.6 181.898 62.1 181.498C64.4 179.798 66.7 177.998 69.1 176.398C69.7 175.998 70.4 176.098 70.8 176.698C71.2 177.298 71.1 177.998 70.5 178.398C68.2 180.098 65.8 181.798 63.6 183.498C63.4 183.598 63.1 183.698 62.9 183.698ZM492.1 179.498C491.4 179.498 490.8 178.898 490.9 178.198C491 175.298 491.3 172.398 491.5 169.498C491.6 168.798 492.1 168.298 492.8 168.398C493.5 168.498 494 169.098 493.9 169.698C493.7 172.598 493.4 175.398 493.3 178.298C493.3 178.998 492.7 179.498 492.1 179.498ZM76.9 173.598C76.5 173.598 76.1 173.398 75.9 173.098C75.5 172.498 75.7 171.798 76.2 171.398C78.6 169.798 81 168.198 83.5 166.698C84.1 166.298 84.8 166.498 85.2 167.098C85.6 167.698 85.4 168.398 84.8 168.798C82.4 170.298 79.9 171.898 77.6 173.498C77.4 173.598 77.2 173.598 76.9 173.598ZM91.6 164.398C91.2 164.398 90.8 164.198 90.5 163.798C90.2 163.198 90.3 162.498 90.9 162.098C93.4 160.598 95.9 159.198 98.4 157.798C99 157.498 99.7 157.698 100.1 158.298C100.4 158.898 100.2 159.598 99.6 159.998C97.1 161.398 94.6 162.798 92.1 164.298C92 164.398 91.8 164.398 91.6 164.398ZM493.4 162.298C493.3 162.298 493.3 162.298 493.4 162.298C492.6 162.298 492.1 161.698 492.2 160.998C492.3 158.598 492.4 156.398 492.4 154.298L492.2 152.598C492.1 151.898 492.6 151.298 493.3 151.198C494 151.098 494.6 151.598 494.7 152.298L494.9 154.098C494.9 154.098 494.9 154.198 494.9 154.298C494.9 156.398 494.8 158.698 494.7 161.198C494.5 161.798 494 162.298 493.4 162.298ZM106.7 156.098C106.3 156.098 105.8 155.898 105.6 155.398C105.3 154.798 105.5 154.098 106.1 153.698C108.6 152.398 111.2 151.098 113.8 149.798C114.4 149.498 115.1 149.798 115.5 150.398C115.8 150.998 115.5 151.798 114.9 152.098C112.3 153.398 109.7 154.698 107.2 155.998C107 155.998 106.8 156.098 106.7 156.098ZM122.2 148.398C121.7 148.398 121.3 148.098 121.1 147.698C120.8 147.098 121.1 146.298 121.7 146.098C123.7 145.198 125.7 144.298 127.8 143.398L128.9 142.298C129.4 141.798 130.2 141.798 130.6 142.298C131.1 142.798 131.1 143.598 130.6 143.998L129.4 145.198C129.3 145.298 129.2 145.398 129 145.498C126.9 146.398 124.8 147.398 122.8 148.298C122.5 148.398 122.3 148.398 122.2 148.398ZM492 145.198C491.4 145.198 490.9 144.798 490.8 144.198C490.2 141.198 489.4 138.498 488.5 136.098C488.2 135.498 488.6 134.698 489.2 134.498C489.8 134.198 490.6 134.598 490.8 135.198C491.8 137.698 492.6 140.498 493.3 143.698C493.4 144.398 493 144.998 492.3 145.198C492.2 145.198 492.1 145.198 492 145.198ZM136.6 139.298C136.2 139.298 135.8 139.098 135.5 138.698C135.2 138.098 135.3 137.398 135.9 136.998C138.8 135.298 141.1 133.798 143.1 132.398C143.7 131.998 144.4 132.098 144.8 132.698C145.2 133.298 145.1 133.998 144.5 134.398C142.4 135.898 140.1 137.398 137.1 139.098C137 139.298 136.8 139.298 136.6 139.298ZM485.5 129.298C485.1 129.298 484.7 129.098 484.5 128.798C484 128.098 483.4 127.298 482.8 126.698C481.5 125.298 480.2 123.898 478.9 122.498C478.4 121.998 478.4 121.198 478.9 120.798C479.4 120.298 480.2 120.298 480.6 120.798C482 122.198 483.3 123.598 484.6 125.098C485.2 125.898 485.9 126.598 486.4 127.398C486.8 127.998 486.7 128.698 486.1 129.098C486 129.298 485.7 129.298 485.5 129.298ZM150.5 129.198C150.2 129.198 149.9 129.098 149.6 128.798C149.1 128.298 149.1 127.498 149.6 127.098C151.5 125.298 153 123.498 154.5 121.498C154.5 121.398 154.6 121.398 154.6 121.298C154.8 121.098 155.1 120.798 155.3 120.598C155.8 120.098 156.6 120.198 157 120.698C157.5 121.198 157.4 121.998 156.9 122.398C156.7 122.598 156.5 122.798 156.3 122.898C154.8 124.998 153.1 126.898 151.2 128.798C151.2 129.098 150.8 129.198 150.5 129.198ZM162.9 117.298C162.6 117.298 162.3 117.198 162 116.898C161.5 116.398 161.5 115.598 162 115.198L162.1 115.098C163.7 113.198 165.4 110.998 167.4 108.498C167.8 107.998 168.6 107.898 169.1 108.298C169.6 108.698 169.7 109.498 169.3 109.998C167.3 112.498 165.6 114.698 163.9 116.698L163.8 116.798C163.5 117.198 163.2 117.298 162.9 117.298ZM473.4 116.998C473.1 116.998 472.8 116.898 472.6 116.698C470.5 114.898 468.2 113.198 465.8 111.498C465.2 111.098 465.1 110.298 465.5 109.798C465.9 109.198 466.7 109.098 467.2 109.498C469.6 111.198 471.9 112.998 474.1 114.798C474.6 115.198 474.7 115.998 474.2 116.498C474.1 116.898 473.8 116.998 473.4 116.998ZM459.3 107.098C459.1 107.098 458.9 106.998 458.7 106.898C456.7 105.698 454.5 104.598 452.3 103.498C452 103.398 451.5 103.198 451.1 102.998C450.5 102.698 450.2 101.998 450.4 101.398C450.7 100.798 451.4 100.498 452 100.698C452.4 100.898 452.8 101.098 453.2 101.198C455.5 102.298 457.7 103.498 459.7 104.698C460.3 104.998 460.5 105.798 460.1 106.398C460.1 106.898 459.7 107.098 459.3 107.098ZM173.7 103.798C173.4 103.798 173.2 103.698 172.9 103.498C172.4 103.098 172.3 102.298 172.7 101.798L174.6 99.3985C175.7 97.8985 176.9 96.4985 178 94.9985C178.4 94.4985 179.2 94.3985 179.7 94.7985C180.2 95.1985 180.3 95.9985 179.9 96.4985C178.8 97.9985 177.6 99.3985 176.5 100.898L174.6 103.298C174.4 103.598 174 103.798 173.7 103.798ZM443.6 99.9985C443.5 99.9985 443.3 99.9985 443.2 99.8985C440.6 98.9985 437.8 98.0985 435 97.2985C434.3 97.0985 434 96.3985 434.2 95.7985C434.4 95.0985 435.1 94.7985 435.7 94.9985C438.5 95.7985 441.3 96.6985 444 97.6985C444.6 97.8985 445 98.5985 444.8 99.2985C444.6 99.6985 444.1 99.9985 443.6 99.9985ZM427 95.1985C426.9 95.1985 426.8 95.1985 426.7 95.1985C424 94.4985 421.3 93.8985 418.3 93.2985C417.6 93.1985 417.2 92.4985 417.3 91.7985C417.4 91.0985 418.1 90.6985 418.8 90.7985C421.8 91.3985 424.6 92.0985 427.3 92.6985C428 92.8985 428.4 93.4985 428.2 94.1985C428.1 94.7985 427.6 95.1985 427 95.1985ZM410.1 91.5985C410 91.5985 409.9 91.5985 409.9 91.5985C407.1 91.0985 404.3 90.5985 401.4 90.0985C400.7 89.9985 400.3 89.2985 400.4 88.6985C400.5 87.9985 401.2 87.5985 401.8 87.6985C404.6 88.1985 407.5 88.6985 410.3 89.1985C411 89.2985 411.4 89.9985 411.3 90.5985C411.2 91.1985 410.7 91.5985 410.1 91.5985ZM184.3 90.1985C184 90.1985 183.8 90.0985 183.5 89.8985C183 89.4985 182.9 88.6985 183.3 88.1985C185.3 85.6985 187.1 83.4985 188.8 81.4985C189.2 80.9985 190 80.8985 190.5 81.3985C191 81.7985 191.1 82.5985 190.6 83.0985C188.9 85.0985 187.1 87.2985 185.1 89.7985C185 89.9985 184.7 90.1985 184.3 90.1985ZM393.1 88.5985C393 88.5985 393 88.5985 392.9 88.5985C390.1 88.0985 387.2 87.5985 384.4 87.0985C383.7 86.9985 383.3 86.2985 383.4 85.6985C383.5 84.9985 384.1 84.5985 384.8 84.6985C387.6 85.1985 390.5 85.6985 393.3 86.1985C394 86.2985 394.4 86.9985 394.3 87.5985C394.2 88.1985 393.7 88.5985 393.1 88.5985ZM376.1 85.5985C376 85.5985 375.9 85.5985 375.9 85.5985C372.9 84.9985 370.1 84.3985 367.4 83.7985C366.7 83.6985 366.3 82.9985 366.5 82.2985C366.6 81.5985 367.3 81.1985 368 81.3985C370.7 81.9985 373.4 82.5985 376.4 83.0985C377.1 83.1985 377.5 83.8985 377.4 84.4985C377.2 85.1985 376.7 85.5985 376.1 85.5985ZM359.2 82.0985C359.1 82.0985 359.1 82.0985 359 82.0985C356.2 81.5985 353.3 80.8985 350.5 80.0985C349.8 79.8985 349.5 79.1985 349.6 78.5985C349.8 77.8985 350.5 77.5985 351.1 77.6985C353.9 78.4985 356.7 79.0985 359.4 79.5985C360.1 79.6985 360.5 80.3985 360.4 80.9985C360.3 81.6985 359.8 82.0985 359.2 82.0985ZM342.5 77.5985C342.4 77.5985 342.2 77.5985 342.1 77.4985C340.2 76.7985 338.3 75.9985 336.4 75.1985C335.6 74.8985 334.8 74.4985 334 74.0985C333.4 73.7985 333.1 73.0985 333.4 72.4985C333.7 71.8985 334.4 71.5985 335 71.8985C335.8 72.2985 336.5 72.5985 337.3 72.8985C339.1 73.6985 341 74.3985 342.9 75.0985C343.5 75.2985 343.9 75.9985 343.6 76.6985C343.5 77.1985 343.1 77.5985 342.5 77.5985ZM195.5 76.9985C195.2 76.9985 194.9 76.8985 194.7 76.6985C194.2 76.1985 194.2 75.4985 194.6 74.9985C196.7 72.6985 198.6 70.6985 200.6 68.6985C201.1 68.1985 201.9 68.1985 202.3 68.6985C202.8 69.1985 202.8 69.9985 202.3 70.3985C200.3 72.2985 198.4 74.2985 196.4 76.5985C196.2 76.8985 195.8 76.9985 195.5 76.9985ZM326.8 70.4985C326.6 70.4985 326.4 70.4985 326.2 70.3985C323.6 69.0985 321.1 67.7985 318.5 66.3985C317.9 66.0985 317.7 65.2985 318 64.6985C318.3 64.0985 319.1 63.8985 319.7 64.1985C322.3 65.4985 324.8 66.8985 327.4 68.1985C328 68.4985 328.3 69.1985 327.9 69.8985C327.7 70.2985 327.2 70.4985 326.8 70.4985ZM207.8 64.8985C207.5 64.8985 207.1 64.7985 206.9 64.4985C206.5 63.9985 206.5 63.1985 207 62.7985C209.3 60.8985 211.6 58.9985 213.9 57.3985C214.5 56.9985 215.2 57.0985 215.6 57.6985C216 58.2985 215.9 58.9985 215.3 59.3985C213.1 60.9985 210.8 62.7985 208.6 64.6985C208.4 64.7985 208.1 64.8985 207.8 64.8985ZM311.5 62.4985C311.3 62.4985 311.1 62.4985 310.9 62.3985C308.4 61.0985 305.8 59.6985 303.3 58.3985C302.7 58.0985 302.4 57.2985 302.8 56.6985C303.1 56.0985 303.8 55.7985 304.5 56.1985C307.1 57.4985 309.6 58.7985 312.2 60.1985C312.8 60.4985 313 61.2985 312.7 61.8985C312.3 62.1985 311.9 62.4985 311.5 62.4985ZM221.8 54.8985C221.4 54.8985 221 54.6985 220.7 54.2985C220.4 53.6985 220.6 52.9985 221.1 52.5985C223.6 51.0985 226.3 49.7985 228.9 48.5985C229.5 48.2985 230.3 48.5985 230.5 49.1985C230.8 49.7985 230.5 50.5985 229.9 50.7985C227.3 51.8985 224.8 53.1985 222.3 54.6985C222.3 54.7985 222.1 54.8985 221.8 54.8985ZM296 54.6985C295.8 54.6985 295.7 54.6985 295.5 54.5985C292.7 53.2985 290.2 52.1985 287.6 51.1985C287 50.8985 286.7 50.1985 286.9 49.5985C287.2 48.9985 287.9 48.6985 288.5 48.8985C291.1 49.8985 293.7 50.9985 296.5 52.3985C297.1 52.6985 297.4 53.3985 297.1 53.9985C297 54.4985 296.5 54.6985 296 54.6985ZM280 48.3985C279.9 48.3985 279.8 48.3985 279.6 48.2985C276.8 47.3985 274 46.6985 271.4 46.0985C270.7 45.9985 270.3 45.2985 270.4 44.5985C270.5 43.8985 271.2 43.4985 271.9 43.5985C274.6 44.1985 277.5 44.8985 280.4 45.7985C281 45.9985 281.4 46.6985 281.2 47.2985C281 48.0985 280.5 48.3985 280 48.3985ZM237.6 47.8985C237.1 47.8985 236.6 47.5985 236.4 46.9985C236.2 46.3985 236.5 45.6985 237.2 45.3985C238.2 45.0985 239.3 44.7985 240.3 44.4985C242.1 43.9985 243.9 43.5985 245.7 43.2985C246.4 43.1985 247 43.5985 247.1 44.2985C247.2 44.9985 246.8 45.5985 246.1 45.6985C244.4 45.9985 242.7 46.3985 240.9 46.8985C239.9 47.1985 238.9 47.4985 237.8 47.7985C237.8 47.7985 237.7 47.8985 237.6 47.8985ZM263.1 44.8985H263C260.2 44.5985 257.4 44.5985 254.5 44.6985C253.8 44.6985 253.2 44.1985 253.2 43.4985C253.2 42.7985 253.7 42.1985 254.4 42.1985C257.3 42.0985 260.2 42.0985 263.2 42.3985C263.9 42.4985 264.4 43.0985 264.3 43.6985C264.3 44.3985 263.8 44.8985 263.1 44.8985Z" fill="#8EE4FD"/>
<path d="M11.2 200.498C11.2 203.598 8.7 206.098 5.6 206.098C2.5 206.098 0 203.598 0 200.498C0 197.398 2.5 194.898 5.6 194.898C8.7 194.998 11.2 197.398 11.2 200.498Z" fill="#8EE4FD"/>
<path d="M531.818 148.138C536.258 141.673 534.616 132.834 528.151 128.394C521.687 123.955 512.847 125.596 508.408 132.061C503.968 138.525 505.61 147.365 512.074 151.804C518.539 156.244 527.378 154.602 531.818 148.138Z" fill="#8EE4FD"/>
<path d="M516.4 134.499C524.905 134.499 531.8 127.604 531.8 119.099C531.8 110.594 524.905 103.699 516.4 103.699C507.895 103.699 501 110.594 501 119.099C501 127.604 507.895 134.499 516.4 134.499Z" stroke="#8EE4FD" stroke-width="1.2336" stroke-miterlimit="10"/>
<path d="M163 44.4992C168.467 44.4992 172.9 40.0668 172.9 34.5992C172.9 29.1316 168.467 24.6992 163 24.6992C157.532 24.6992 153.1 29.1316 153.1 34.5992C153.1 40.0668 157.532 44.4992 163 44.4992Z" fill="#8EE4FD"/>
<path d="M177.1 48.1992C182.899 48.1992 187.6 43.4982 187.6 37.6992C187.6 31.9002 182.899 27.1992 177.1 27.1992C171.301 27.1992 166.6 31.9002 166.6 37.6992C166.6 43.4982 171.301 48.1992 177.1 48.1992Z" stroke="#8EE4FD" stroke-width="1.2336" stroke-miterlimit="10"/>
<path d="M27.2996 176.5C30.7238 176.5 33.4996 173.724 33.4996 170.3C33.4996 166.875 30.7238 164.1 27.2996 164.1C23.8755 164.1 21.0996 166.875 21.0996 170.3C21.0996 173.724 23.8755 176.5 27.2996 176.5Z" stroke="#8EE4FD" stroke-width="1.2336" stroke-miterlimit="10"/>
<path d="M517.601 215.998C521.356 215.998 524.401 212.954 524.401 209.198C524.401 205.443 521.356 202.398 517.601 202.398C513.845 202.398 510.801 205.443 510.801 209.198C510.801 212.954 513.845 215.998 517.601 215.998Z" stroke="#8EE4FD" stroke-width="1.2336" stroke-miterlimit="10"/>
<path d="M393 135.101C393 135.101 389.9 62.9012 367.7 45.0012C345.5 27.2012 365.9 121.601 393 135.101Z" fill="#64E4E6"/>
<path d="M386.701 125.7C379.901 116.3 377.501 103.9 380.201 92.6003C380.801 90.1003 381.701 87.5003 383.701 85.9003C385.801 84.1003 388.901 83.7003 391.701 84.2003C394.501 84.7003 397.001 86.0003 399.501 87.3003C398.601 81.6003 398.701 75.5003 398.801 69.8003C398.801 65.0003 399.201 60.0003 401.501 55.8003C403.801 51.6003 408.401 48.3003 413.201 49.0003C418.601 49.7003 422.201 55.0003 425.001 59.7003C426.601 52.2003 430.501 44.6003 435.601 38.8003C440.301 33.4003 447.501 28.9003 454.501 30.9003C460.301 32.6003 464.201 38.5003 464.901 44.5003C465.701 50.5003 463.901 56.6003 461.601 62.2003C459.101 68.3003 456.001 74.2003 452.301 79.7003C456.601 79.2003 462.501 79.7003 465.101 83.1003C467.001 85.6003 467.201 89.0003 466.401 92.0003C465.201 96.7003 462.001 100.6 458.201 103.5C454.401 106.4 449.901 108.4 445.601 110.4C452.001 113 455.601 121.2 452.901 127.6C451.301 131.3 448.101 134.1 444.601 136.2C435.301 142 423.901 144.2 413.201 142.2C402.301 140.2 393.001 134.5 386.701 125.7Z" fill="#2CD0D1"/>
<path d="M453.9 33.5996L406.4 130" stroke="#0B334C" stroke-width="0.9252" stroke-miterlimit="10" stroke-linecap="round" stroke-linejoin="round"/>
<path d="M410.5 50.7988L429 83.6988" stroke="#0B334C" stroke-width="0.9252" stroke-miterlimit="10" stroke-linecap="round" stroke-linejoin="round"/>
<path d="M404.301 54.6992L425.901 90.2992" stroke="#0B334C" stroke-width="0.9252" stroke-miterlimit="10" stroke-linecap="round" stroke-linejoin="round"/>
<path d="M448.302 104.299L419.102 104.699" stroke="#0B334C" stroke-width="0.9252" stroke-miterlimit="10" stroke-linecap="round" stroke-linejoin="round"/>
<path d="M398.4 130.501C398.4 130.501 365 75.4009 340 70.9009C315 66.5009 371.4 131.601 398.4 130.501Z" fill="#2CD0D1"/>
<path d="M339.199 75.3008L377.399 112.501" stroke="#0B334C" stroke-width="0.9252" stroke-miterlimit="10" stroke-linecap="round" stroke-linejoin="round"/>
<path d="M85.7015 381.901C85.7015 381.901 46.6015 299.201 79.9015 279.901C113.201 260.601 91.4015 382.301 91.4015 382.301L85.7015 381.901Z" fill="#64E4E6"/>
<path d="M84.401 373.201C84.401 373.201 63.0011 310.301 45.3011 310.301C27.6011 310.301 40.801 343.601 79.401 374.901L84.401 373.201Z" fill="#2CD0D1"/>
<path d="M41.8008 314.602L70.4008 359.002" stroke="#0B334C" stroke-width="0.9252" stroke-miterlimit="10" stroke-linecap="round" stroke-linejoin="round"/>
<path d="M43.1002 401.601C43.1002 401.601 29.7003 388.901 35.7003 377.101C41.7003 365.401 58.9002 369.101 58.9002 369.101C58.9002 369.101 51.3002 353.101 64.9002 345.901C78.5003 338.701 89.6002 356.801 89.6002 356.801C89.6002 356.801 97.0003 336.001 126.8 336.701C156.6 337.301 154.8 369.201 154.8 369.201C154.8 369.201 162.2 362.401 171.7 368.601C181.2 374.801 171.7 386.501 171.7 386.501C171.7 386.501 181 389.201 180.3 401.501L43.1002 401.601Z" fill="#2CD0D1"/>
<path d="M419.9 311.099H84.9004V105.699C84.9004 101.299 88.5004 97.6992 92.9004 97.6992H411.9C416.3 97.6992 419.9 101.299 419.9 105.699V311.099Z" fill="white" stroke="#1F5B99" stroke-width="1.1536" stroke-miterlimit="10"/>
<path d="M419.9 113.799H84.9004V105.699C84.9004 101.299 88.5004 97.6992 92.9004 97.6992H411.9C416.3 97.6992 419.9 101.299 419.9 105.699V113.799Z" fill="#1F5B99"/>
<path d="M339.086 216.338C340.098 212.037 337.432 207.73 333.131 206.719C328.83 205.707 324.523 208.373 323.512 212.674C322.5 216.974 325.166 221.281 329.467 222.293C333.768 223.305 338.074 220.638 339.086 216.338Z" fill="#00A2DD"/>
<path d="M363.31 220.047C366.434 216.923 366.434 211.858 363.31 208.734C360.186 205.61 355.121 205.61 351.997 208.734C348.872 211.858 348.872 216.923 351.997 220.047C355.121 223.172 360.186 223.172 363.31 220.047Z" fill="#FCB13A"/>
<path d="M386.774 221.899C390.922 220.375 393.048 215.777 391.524 211.63C390.001 207.482 385.403 205.356 381.256 206.879C377.108 208.403 374.981 213.001 376.505 217.148C378.029 221.296 382.627 223.423 386.774 221.899Z" fill="#F64652"/>
<path d="M310.2 133.1H188.9V289.4H310.2V133.1Z" stroke="#0B334C" stroke-width="1.1536" stroke-miterlimit="10"/>
<path d="M314.701 206.699H305.701V215.699H314.701V206.699Z" fill="white" stroke="#1F5B99" stroke-width="1.1536" stroke-miterlimit="10"/>
<path d="M314.701 284.799H305.701V293.799H314.701V284.799Z" fill="white" stroke="#1F5B99" stroke-width="1.1536" stroke-miterlimit="10"/>
<path d="M314.701 128.799H305.701V137.799H314.701V128.799Z" fill="white" stroke="#1F5B99" stroke-width="1.1536" stroke-miterlimit="10"/>
<path d="M193.4 128.799H184.4V137.799H193.4V128.799Z" fill="white" stroke="#1F5B99" stroke-width="1.1536" stroke-miterlimit="10"/>
<path d="M192.9 206.699H183.9V215.699H192.9V206.699Z" fill="white" stroke="#1F5B99" stroke-width="1.1536" stroke-miterlimit="10"/>
<path d="M192.9 284.299H183.9V293.299H192.9V284.299Z" fill="white" stroke="#1F5B99" stroke-width="1.1536" stroke-miterlimit="10"/>
<path d="M245.045 129.111V138.111H254.045V129.111H245.045Z" fill="white" stroke="#1F5B99" stroke-width="1.1536" stroke-miterlimit="10"/>
<path d="M245.025 283.131V292.131H254.025V283.131H245.025Z" fill="white" stroke="#1F5B99" stroke-width="1.1536" stroke-miterlimit="10"/>
<path d="M290.401 188.398C290.401 166.198 272.7 148.098 250.7 147.398C227.9 146.698 208.5 165.398 208.3 188.198C208.2 199.298 212.6 209.398 219.8 216.898C226.5 223.798 230.401 232.898 230.401 242.498V244.098H268.401V242.498C268.401 233.098 272 223.898 278.7 217.198C285.9 209.698 290.401 199.598 290.401 188.398Z" fill="#FCB13A"/>
<path d="M258.6 275.398H240C234.7 275.398 230.4 271.098 230.4 265.798V243.598H268.2V265.798C268.2 271.098 263.9 275.398 258.6 275.398Z" fill="#0B334C"/>
<path d="M266.601 263.297L230.701 255.997C229.201 255.697 228.201 254.397 228.201 252.897C228.201 250.897 230.001 249.397 232.001 249.797L267.901 257.097C269.401 257.397 270.401 258.697 270.401 260.197C270.401 262.197 268.601 263.697 266.601 263.297Z" fill="#114D73"/>
<path d="M266.601 256.899L230.701 249.599C229.201 249.299 228.201 247.999 228.201 246.499C228.201 244.499 230.001 242.999 232.001 243.399L267.901 250.699C269.401 250.999 270.401 252.299 270.401 253.799C270.401 255.799 268.601 257.299 266.601 256.899Z" fill="#0B334C"/>
<path d="M266.601 269.698L230.701 262.398C229.201 262.098 228.201 260.798 228.201 259.298C228.201 257.298 230.001 255.798 232.001 256.198L267.901 263.498C269.401 263.798 270.401 265.098 270.401 266.598C270.401 268.598 268.601 270.098 266.601 269.698Z" fill="#0B334C"/>
<path d="M253.601 247.198L251.501 246.898C253.301 232.798 255.501 218.598 258.001 204.598C255.501 206.098 252.601 206.998 249.401 207.498C247.101 207.798 244.101 207.898 241.201 207.098C245.201 219.198 247.901 231.698 249.401 244.398L247.301 244.598C245.801 231.498 242.901 218.598 238.701 206.198C238.001 205.898 237.301 205.498 236.601 204.998C234.301 203.498 232.501 201.198 231.701 198.598C231.201 197.198 231.901 195.698 233.201 195.098C234.601 194.498 236.101 194.898 236.901 196.198C238.001 197.898 238.801 199.898 239.401 201.798C239.701 202.698 240.101 203.698 240.401 204.598C242.901 205.498 246.001 205.798 249.201 205.298C251.701 204.998 255.501 203.998 258.601 201.698C259.201 198.298 259.901 194.898 260.501 191.598C260.701 190.798 260.901 189.798 261.601 188.898C262.101 188.298 262.801 187.998 263.601 187.998C264.201 187.998 264.801 188.198 265.201 188.598C265.801 189.198 265.901 189.898 266.001 190.498C266.201 192.598 266.001 194.498 265.301 196.198C264.301 198.798 262.701 201.098 260.501 202.798C257.801 217.598 255.501 232.398 253.601 247.198ZM234.301 197.098C234.101 197.098 234.001 197.198 233.901 197.198C233.701 197.298 233.301 197.498 233.501 198.098C234.201 200.198 235.601 201.998 237.401 203.298C237.301 203.098 237.201 202.898 237.201 202.598C236.601 200.898 235.901 198.998 234.901 197.498C234.701 197.098 234.501 197.098 234.301 197.098ZM263.501 190.098C263.401 190.098 263.201 190.198 263.001 190.298C262.701 190.698 262.601 191.198 262.401 191.898C261.901 194.298 261.501 196.698 261.001 198.998C261.801 197.898 262.601 196.698 263.101 195.298C263.601 193.898 263.801 192.398 263.601 190.598C263.701 190.298 263.601 190.198 263.501 190.098C263.601 190.098 263.601 190.098 263.501 190.098Z" fill="#0B334C"/>
<path d="M232.699 243.398L268.199 250.898" stroke="white" stroke-width="0.3084" stroke-miterlimit="10" stroke-linecap="round" stroke-linejoin="round"/>
<path d="M230.5 262.199L266.9 269.999" stroke="white" stroke-width="0.3084" stroke-miterlimit="10" stroke-linecap="round" stroke-linejoin="round"/>
<path d="M183.3 324H168.9C167.6 324 166.5 322.9 166.5 321.6V303.9C166.5 302.6 167.5 301.6 168.8 301.6H183.4C184.7 301.6 185.7 302.6 185.7 303.9V321.6C185.7 322.9 184.6 324 183.3 324Z" fill="#0B334C"/>
<path d="M177.7 308.1H166.5V318.5H177.7V308.1Z" fill="#FCB13A"/>
<path d="M166.199 302.4V302.9C166.199 303.4 166.599 303.8 167.099 303.8C167.599 303.8 168.199 303.9 168.699 304.1C169.699 304.6 170.399 305.7 171.499 306.1C172.599 306.5 173.799 306 174.699 305.3C175.899 304.5 176.899 303.4 178.399 303.2C179.099 303.1 179.699 303.2 180.299 303.5C181.399 304.3 181.299 305.7 181.299 306.9C181.299 307.7 181.499 308.4 181.699 309.1C181.899 309.7 182.199 310.3 182.699 310.7C183.199 311.1 183.999 311.1 184.399 310.6C184.599 310.3 184.699 309.9 184.799 309.5C184.899 308.6 184.899 307.6 184.799 306.6C184.699 306.1 184.699 305.5 184.799 305C184.899 304.6 185.099 304.3 185.399 304.1C185.699 303.9 185.799 303.6 185.799 303.3V302.2C185.799 301.5 185.299 301 184.599 301H167.399C166.799 301.2 166.199 301.7 166.199 302.4Z" fill="#FCB13A"/>
<path d="M77.9 323.9H70.5V401.5H77.9V323.9Z" fill="#184778"/>
<path d="M50.4 323.9H43V401.5H50.4V323.9Z" fill="#1F5B99"/>
<path d="M164.201 323.9H156.801V401.5H164.201V323.9Z" fill="#184778"/>
<path d="M191.701 323.9H184.301V401.5H191.701V323.9Z" fill="#1F5B99"/>
<path d="M191.699 323.9H43.1992V331.3H191.699V323.9Z" fill="#1F5B99"/>
<path d="M160.601 264.5C158.401 263.4 157.501 263.9 153.201 263C152.601 262.9 151.801 262.7 150.901 262.6C149.701 267.5 148.301 272.4 147.401 277.4C147.301 277.9 147.301 278.3 147.201 278.8C149.501 278.6 151.801 278.5 154.101 278.4C152.101 291.3 149.601 307 147.701 319.9C149.101 320.1 150.001 321.1 151.601 320.5C156.401 312.1 164.101 288.1 165.501 281.5C166.901 274.9 166.901 276.5 166.901 274.5C167.001 267.4 166.201 267.3 160.601 264.5Z" fill="#FA9778"/>
<path d="M154.402 277.299L154.102 278.499" stroke="#0B334C" stroke-width="0.3084" stroke-miterlimit="10" stroke-linecap="round" stroke-linejoin="round"/>
<path d="M152.101 319.6C152.101 319.6 149.601 321.3 147.701 319.6L147.301 320.7C146.901 321.7 146.801 322.7 146.801 323.7V324H160.001C160.001 323 159.401 322.2 158.501 321.9L152.101 319.6Z" fill="#1F5B99"/>
<path d="M110.901 307.9C108.701 307.6 106.501 307.3 104.401 306.9C104.501 308.1 104.601 309.3 104.701 310.5C89.5008 309.4 66.4008 312.9 61.6008 313.7C61.0008 313.8 60.7008 313.8 60.7008 313.8L60.3008 317.9L61.5008 318.1L106.101 323.8L110.301 324.3C116.301 325.1 121.701 320.8 122.301 314.8L122.801 309.8V309.4C118.901 309 114.901 308.5 110.901 307.9Z" fill="#FA9778"/>
<path d="M104.701 310.6C104.701 310.6 108.201 311.5 108.601 311.9" stroke="#0B334C" stroke-width="0.3084" stroke-miterlimit="10" stroke-linecap="round" stroke-linejoin="round"/>
<path d="M61.6 318C61.6 318 60 315.4 61.7 313.6L60.6 313.2C59.6 312.8 58.6 312.6 57.6 312.6H57.3L57 325.8C58 325.8 58.8 325.2 59.2 324.4L61.6 318Z" fill="#1F5B99"/>
<path d="M108.501 260.6C108.501 260.6 103.801 273.1 103.801 277.5C103.801 281.8 103.801 308.5 103.801 308.5L122.701 310.6L128.701 281.4L152.101 280L155.401 261.5L137.001 258.5L108.501 260.6Z" fill="#F64652"/>
<path d="M129.901 271.4L128.701 281.1" stroke="#0B334C" stroke-width="0.3084" stroke-miterlimit="10" stroke-linecap="round" stroke-linejoin="round"/>
<path d="M153.2 261.301L150 279.201" stroke="#0B334C" stroke-width="0.3084" stroke-miterlimit="10" stroke-linecap="round" stroke-linejoin="round"/>
<path d="M104.301 306.201L122.401 308.301" stroke="#0B334C" stroke-width="0.3084" stroke-miterlimit="10" stroke-linecap="round" stroke-linejoin="round"/>
<path d="M129 278.9L150.1 278" stroke="#0B334C" stroke-width="0.3084" stroke-miterlimit="10" stroke-linecap="round" stroke-linejoin="round"/>
<path d="M109.502 263C109.502 263 105.702 273.1 105.702 277.8C105.702 282.5 105.602 306.3 105.602 306.3" stroke="#0B334C" stroke-width="0.3084" stroke-miterlimit="10" stroke-linecap="round" stroke-linejoin="round"/>
<path d="M114.202 263L107.102 270.8" stroke="#0B334C" stroke-width="0.3084" stroke-miterlimit="10" stroke-linecap="round" stroke-linejoin="round"/>
<path d="M167.701 232.601C166.901 231.601 165.501 231.301 164.401 232.001C164.401 232.001 164.401 232.001 164.301 232.001H164.201C161.901 233.601 159.501 235.301 157.101 236.901C154.701 238.501 152.301 240.001 149.801 241.501C146.001 243.801 142.201 245.901 138.401 247.801C138.001 246.801 137.701 245.801 137.401 244.801C136.701 242.501 136.001 240.101 135.301 237.701C134.701 238.001 134.101 238.401 133.601 238.601C131.001 239.801 128.401 240.901 125.701 241.601C126.401 243.801 127.101 245.901 127.901 248.101C128.301 249.201 128.801 250.401 129.301 251.501C130.001 253.201 130.701 254.801 131.501 256.501C132.501 258.401 134.801 259.301 136.801 258.301C137.401 258.001 138.101 257.601 138.701 257.301C139.601 256.801 140.601 256.301 141.501 255.701C143.201 254.701 144.901 253.701 146.501 252.601C147.801 251.801 149.001 250.901 150.201 250.001C151.401 249.101 152.601 248.201 153.801 247.301C158.501 243.701 162.901 239.901 167.101 235.701L167.201 235.601C168.301 234.901 168.401 233.601 167.701 232.601Z" fill="#FA9778"/>
<path d="M164.201 232.601C164.201 232.601 165.801 228.301 166.501 228.401C167.201 228.401 167.201 230.701 167.201 230.701C167.201 230.701 171.101 227.601 171.601 227.901C172.101 228.201 169.101 231.001 169.101 231.001C169.101 231.001 172.001 229.301 172.501 229.701C173.101 230.101 169.401 232.401 169.401 232.401C169.401 232.401 172.701 231.401 172.901 232.001C173.201 232.701 169.201 233.701 169.201 233.701C169.201 233.701 171.601 233.501 171.701 234.001C171.801 234.501 166.501 236.101 166.501 236.101L164.201 232.601Z" fill="#FA9778"/>
<path d="M126.6 245.001C126.6 245.001 119.8 228.701 124.8 225.401C129.8 222.101 133.3 227.601 133.6 229.001C133.9 230.501 136.9 242.201 136.9 242.201L126.6 245.001Z" fill="#1F5B99"/>
<path d="M125.901 221.102V211.602H118.401V221.102C118.401 222.202 117.501 223.202 116.301 223.202C124.801 235.602 128.001 223.202 128.001 223.202H127.901C126.801 223.202 125.901 222.302 125.901 221.102Z" fill="#FA9778"/>
<path d="M125.9 217.601V219.201C125.5 219.201 125.2 219.201 124.8 219.101C123.2 218.801 120.9 218.001 119.4 216.301C119.1 215.901 118.7 215.301 118.4 214.501V214.301C118.5 214.501 118.7 214.701 118.8 214.801C120.2 216.601 122.5 217.301 124.2 217.601C124.7 217.701 125.3 217.701 125.9 217.601Z" fill="#0B334C"/>
<path d="M133.5 226.702C132.7 225.602 131 224.402 129.5 223.502L130 223.002L126 221.602L123.9 228.202L118.4 221.102L114.4 222.302L115 222.702C113 223.102 108.4 224.702 108 230.402C107.6 236.002 107 259.502 106.9 263.402C106.9 263.702 107.1 263.902 107.4 263.902L127.6 261.702L129.2 259.602L131.5 261.902L140.7 259.102C140.7 259.002 135.2 229.102 133.5 226.702Z" fill="#1F5B99"/>
<path d="M123.901 230.502V228.202L114.801 222.602" stroke="#0B334C" stroke-width="0.3084" stroke-miterlimit="10" stroke-linecap="round" stroke-linejoin="round"/>
<path d="M129.3 223.602L123.9 228.202" stroke="#0B334C" stroke-width="0.3084" stroke-miterlimit="10" stroke-linecap="round" stroke-linejoin="round"/>
<path d="M134.101 233.701H128.701V234.701H134.101V233.701Z" stroke="#0B334C" stroke-width="0.3084" stroke-miterlimit="10" stroke-linecap="round" stroke-linejoin="round"/>
<path d="M129.301 259.401V251.201" stroke="#0B334C" stroke-width="0.3084" stroke-miterlimit="10" stroke-linecap="round" stroke-linejoin="round"/>
<path d="M169.901 234.401L172.301 233.401C172.401 233.401 172.401 233.301 172.401 233.201L169.001 224.901C169.001 224.801 168.901 224.801 168.801 224.801L166.401 225.801C166.301 225.801 166.301 225.901 166.301 226.001L169.701 234.301C169.701 234.401 169.801 234.401 169.901 234.401Z" fill="#1F5B99"/>
<path d="M168.301 228.3L165.801 222.1L159.301 224.8C158.401 225.2 157.301 224.7 156.901 223.8L155.201 219.6C155.001 219.2 155.001 218.7 155.201 218.2C155.401 217.8 155.701 217.4 156.201 217.2L162.901 214.4L163.301 215.3L156.601 218.1C156.401 218.2 156.201 218.3 156.201 218.5C156.101 218.7 156.101 218.9 156.201 219.1L157.901 223.3C158.101 223.7 158.601 223.9 159.001 223.7L166.401 220.7L169.301 227.8L168.301 228.3Z" fill="#1F5B99"/>
<path d="M160 219.101L176.3 212.401C176.8 212.201 177.1 211.601 176.9 211.101L175.7 208.301C175.5 207.801 174.9 207.501 174.4 207.701L158.1 214.401C157.6 214.601 157.3 215.201 157.5 215.701L158.7 218.501C158.9 219.101 159.5 219.301 160 219.101Z" fill="#FCB13A"/>
<path d="M172.001 231.301C172.001 231.001 171.601 230.001 171.601 230.001C171.601 229.401 170.701 228.601 170.701 228.601C170.701 228.601 171.101 227.601 170.401 227.301C170.001 227.101 169.301 227.601 168.901 228.001C168.201 228.401 167.701 228.801 167.701 228.801C167.701 228.801 167.901 226.601 167.201 226.501C166.701 226.401 165.401 228.901 164.801 230.001C164.801 230.001 164.801 230.001 164.701 230.001H164.601C162.201 231.401 159.601 232.901 157.101 234.201C154.601 235.601 152.001 236.901 149.401 238.101C145.001 240.201 140.501 242.201 136.001 243.901C134.101 242.201 132.301 240.501 130.501 238.701C129.701 237.901 128.901 237.101 128.101 236.301C126.801 237.401 125.401 238.501 124.101 239.601C123.501 240.301 122.801 241.001 122.201 241.701C121.701 242.301 121.201 242.801 120.701 243.401C121.701 244.301 122.601 245.201 123.601 246.101C124.001 246.401 124.301 246.701 124.701 247.001C126.601 248.701 128.601 250.301 130.701 251.801C130.901 251.901 131.101 252.101 131.201 252.201C132.801 253.401 135.001 253.601 136.901 252.901C139.101 251.901 141.301 250.901 143.501 249.801C144.101 249.501 144.601 249.201 145.101 248.901C146.401 248.201 147.701 247.401 149.001 246.701C150.301 245.901 151.601 245.101 152.801 244.301C157.801 241.101 162.501 237.701 167.101 233.901C168.101 233.701 169.901 233.301 171.001 232.901C171.501 232.801 172.101 232.701 172.301 232.501C172.901 232.301 172.001 231.301 172.001 231.301Z" fill="#FA9778"/>
<path d="M129.501 237.701L122.701 245.201L124.701 247.101L129.501 237.701Z" fill="#0B334C"/>
<path d="M132.701 246.202C132.701 246.202 135.401 244.302 136.201 244.002" stroke="#0B334C" stroke-width="0.3084" stroke-miterlimit="10" stroke-linecap="round" stroke-linejoin="round"/>
<path d="M137.602 252.702C137.602 252.702 158.602 241.802 167.502 234.002L169.602 233.502" stroke="#0B334C" stroke-width="0.3084" stroke-miterlimit="10" stroke-linecap="round" stroke-linejoin="round"/>
<path d="M122.3 245.802L110.3 232.902C110.3 232.902 108 227.602 111.7 225.102C115.4 222.602 119 225.302 120.4 227.002C121.8 228.602 129.7 237.602 129.7 237.602L122.3 245.802Z" fill="#1F5B99"/>
<path d="M112 234.902L122.2 245.902L122.7 245.302" stroke="#0B334C" stroke-width="0.3084" stroke-miterlimit="10" stroke-linecap="round" stroke-linejoin="round"/>
<path d="M120.5 244.102L128.6 236.502" stroke="#0B334C" stroke-width="0.3084" stroke-miterlimit="10" stroke-linecap="round" stroke-linejoin="round"/>
<path d="M129.899 203.801C128.999 199.701 124.899 197.201 120.899 198.301C117.199 199.301 114.899 203.001 115.499 206.601C115.399 206.601 115.399 206.601 115.299 206.601C114.299 207.001 113.699 208.201 114.199 209.301C114.599 210.201 115.899 211.301 116.999 211.201C117.599 212.701 118.199 214.001 118.799 214.701C120.199 216.501 122.499 217.201 124.199 217.501C125.399 217.701 126.699 217.401 127.599 216.601C128.499 215.901 129.499 214.801 130.199 213.501C130.499 212.901 130.699 212.301 130.899 211.601C130.999 211.201 130.999 210.801 130.999 210.301C130.799 208.601 130.399 206.101 129.899 203.801Z" fill="#FA9778"/>
<path d="M125.4 207.9C125.6 208.6 125.8 209.1 126 209.8C126.1 210.1 126.1 210.5 126 210.9C125.8 211.3 125.4 211.5 125.1 211.5C125.3 211.2 125.5 210.9 125.5 210.7C125.5 210.5 125.4 210.2 125.4 209.9C125.3 209.3 125.1 208.6 125.4 207.9Z" fill="#0B334C"/>
<path d="M123.6 206.301C123.2 206.301 122.9 206.201 122.5 206.301C122.2 206.401 121.8 206.501 121.6 206.801C121.5 206.901 121.5 206.901 121.4 206.801C121.4 206.801 121.3 206.701 121.4 206.601C121.5 206.401 121.6 206.201 121.8 206.001C122 205.801 122.2 205.701 122.4 205.601C122.9 205.501 123.4 205.501 123.8 205.701C123.9 205.801 124 205.901 123.9 206.001C123.8 206.301 123.7 206.301 123.6 206.301Z" fill="#0B334C"/>
<path d="M127.2 205.8C127.6 205.6 128.1 205.6 128.6 205.7C128.8 205.8 129.1 205.9 129.2 206.1C129.4 206.3 129.5 206.5 129.6 206.7C129.6 206.8 129.6 206.8 129.5 206.9C129.4 206.9 129.4 206.9 129.3 206.9C129 206.6 128.7 206.4 128.4 206.4C128.1 206.3 127.7 206.4 127.3 206.4C127.2 206.4 127 206.3 127 206.2C127.1 206 127.1 205.9 127.2 205.8Z" fill="#0B334C"/>
<path d="M128.8 208.901C128.8 209.501 128.5 210.001 128.1 210.001C127.7 210.001 127.4 209.501 127.4 208.901C127.4 208.301 127.7 207.801 128.1 207.801C128.5 207.801 128.8 208.301 128.8 208.901Z" fill="#0B334C"/>
<path d="M123.5 208.901C123.5 209.501 123.2 210.001 122.8 210.001C122.4 210.001 122.1 209.501 122.1 208.901C122.1 208.301 122.4 207.801 122.8 207.801C123.2 207.801 123.5 208.301 123.5 208.901Z" fill="#0B334C"/>
<path d="M125.301 214.1C125.101 214.2 125.001 214.2 124.801 214.2C124.601 214.2 124.401 214.2 124.301 214C124.501 214 124.601 214 124.801 214C124.901 214.1 125.101 214.1 125.301 214.1Z" fill="#0B334C"/>
<path d="M126.5 213.001C126.2 213.501 125.6 213.801 125 213.801C124.7 213.801 124.4 213.701 124.1 213.501C123.8 213.301 123.7 213.101 123.5 212.801C123.9 213.201 124.4 213.501 124.9 213.401C125.5 213.501 126 213.201 126.5 213.001Z" fill="#0B334C"/>
<path d="M122.799 212.6C122.799 212.6 122.699 211.5 125.199 211.5C125.199 211.5 126.799 211.5 127.099 212.6C127.199 212.6 125.999 213.6 122.799 212.6Z" fill="#0B334C"/>
<path d="M116.5 202.601C116.5 202.601 116.4 202.601 116.5 202.601C114.8 202.201 113.1 203.101 112.6 204.601C112.6 204.701 112.5 204.901 112.5 205.001C111.9 207.301 112.4 209.701 113.8 211.701C114.9 213.301 116.6 214.501 118.4 215.101V214.301C117.9 213.501 117.4 212.501 117 211.301C116 211.401 114.6 210.301 114.2 209.401C113.9 208.701 114 208.001 114.4 207.501C114.8 206.801 115.8 206.701 116.5 207.201C116.9 207.501 117.3 207.901 117.5 208.401C117.5 208.401 118.4 208.601 118.7 208.201C118.9 208.001 118.7 206.701 118.7 205.401C118.5 204.101 117.7 203.001 116.5 202.601Z" fill="#0B334C"/>
<path d="M131.9 205.5C131.9 205.3 131.9 205.2 131.9 205C131.9 204.9 131.9 204.8 131.9 204.7V204.6V204.5C131.6 201.7 129.4 202.4 129.4 202.4C129.6 202.7 129.8 203.4 129.8 203.4C129.8 203.4 130.8 208.5 130.9 210.3C130.9 210.6 130.9 210.9 130.9 211.1C131.2 210.3 131.5 209.4 131.6 208.6C131.7 207.9 131.9 207 131.9 206.3C131.9 206.1 131.9 205.8 131.9 205.5Z" fill="#0B334C"/>
<path d="M328.101 375L322.801 382.1H328.401L328.101 375Z" fill="#FCB13A"/>
<path d="M371.802 375L377.102 382.1H371.602L371.802 375Z" fill="#FCB13A"/>
<path d="M371.802 375H328.102V398.3H371.802V375Z" fill="#FCB13A"/>
<path d="M374.801 384.6H325.201L328.101 375H371.801L374.801 384.6Z" fill="#FCB13A"/>
<path d="M371.801 375.1L374.101 382.1H376.001L371.801 375.1Z" fill="#0B334C"/>
<path d="M371.802 384.6H328.102V388L371.802 384.6Z" fill="#0B334C"/>
<path d="M274.9 373.699L277.4 379.599H271H266.7H256.8C256.8 379.599 254.5 382.999 252.3 387.299C248.9 393.799 251.8 401.799 258.6 404.599C266.9 407.999 276.4 407.099 283.9 402.199C297.6 398.599 314.9 392.899 320.1 386.099C326.6 377.499 274.9 373.699 274.9 373.699Z" fill="#0B334C"/>
<path d="M277.099 380C277.099 380 274.3 391 280.2 392.3C286 393.6 307.5 386.9 306.8 380.5" stroke="white" stroke-width="0.3305" stroke-miterlimit="10" stroke-linecap="round" stroke-linejoin="round"/>
<path d="M279.4 379.5L294.5 377.5" stroke="white" stroke-width="0.3305" stroke-miterlimit="10" stroke-linecap="round" stroke-linejoin="round"/>
<path d="M259.9 388.9L269.3 389.2C269.3 389.2 269.6 400.7 265.3 401C261 401.4 257.6 397.5 259.9 388.9Z" stroke="white" stroke-width="0.3305" stroke-miterlimit="10" stroke-linecap="round" stroke-linejoin="round"/>
<path d="M256.5 381.801C256.5 381.801 267 383.201 276.6 382.501" stroke="white" stroke-width="0.3305" stroke-miterlimit="10" stroke-linecap="round" stroke-linejoin="round"/>
<path d="M293.801 403.699C290.801 403.499 290.001 399.399 292.801 398.099C298.601 395.499 306.301 392.399 308.801 393.499C312.201 394.999 304.901 404.499 293.801 403.699Z" fill="#00A2DD"/>
<path d="M304 347.7C303.5 345.7 303 343.7 302.8 343C302.8 342.9 302.7 342.8 302.7 342.7C302.3 341.2 301.8 339.6 301.3 338.1C299.4 332.1 297.2 326.3 294.5 320.6C294.6 319 294.7 315.4 294.3 315.4C293.7 315.3 293.1 317.8 293.1 317.8C293.1 317.8 293.5 313.4 292.7 313.4C291.9 313.4 291.8 317.1 291.8 317.1C291.8 317.1 290.8 312.6 290.2 313C289.6 313.4 290.3 316.9 290.3 316.9C290.3 316.9 288.6 312.9 288.1 313.3C287.6 313.7 289.3 318.7 289.3 318.7C289.3 318.7 287.1 317.9 286.8 318.6C286.6 319.1 288.8 321.1 289.7 322C289.7 322 289.7 322 289.7 322.1V322.2C290.5 325.1 291.3 328.1 292 331.1C292.7 334.1 293.4 337.1 294 340.1C294.3 341.7 294.6 343.3 294.9 344.9C290.8 345.6 286.7 346.1 282.5 346.4C281.5 346.5 280.5 346.5 279.5 346.6C279.7 349.2 279.9 351.7 279.9 354.3C279.9 355.4 280 356.4 280.1 357.5C281.3 357.4 282.4 357.3 283.6 357.1C286.8 356.7 290 356.2 293.2 355.5C294.2 355.3 295.2 355 296.3 354.8C297.3 354.5 299.2 354 300.9 353.4C303.2 352.5 304.5 350.1 304 347.7Z" fill="#FFCBA1"/>
<path d="M294.801 344.699C294.801 344.699 295.301 348.299 296.001 349.499" stroke="#0B334C" stroke-width="0.3305" stroke-miterlimit="10" stroke-linecap="round" stroke-linejoin="round"/>
<path d="M281.7 357.5C281.7 357.5 263 360.9 259.1 355.7C255.2 350.5 261.4 346.4 262.6 346.3C263.8 346.2 280.6 346.1 280.6 346.1L281.7 357.5Z" fill="#F64652"/>
<path d="M269.899 345.1V334.9H261.899V345.1C261.899 346.3 261.099 347.4 259.799 347.4L259.199 347.5C270.699 357 272.199 347.3 272.199 347.3H272.099C270.899 347.4 269.899 346.4 269.899 345.1Z" fill="#FFCBA1"/>
<path d="M269.899 341.201V343.501C268.999 343.101 268.099 342.501 267.299 341.701C266.999 341.301 266.699 340.901 266.299 340.301C267.399 340.801 268.499 341.001 269.399 341.201C269.599 341.201 269.699 341.201 269.899 341.201Z" fill="#0B334C"/>
<path d="M261.3 346.699C261.3 346.699 271 346.799 272.2 347.299C273.4 347.899 279 353.199 279.8 356.599C280.6 359.899 275.8 369.699 276.4 371.599C277 373.499 279.1 379.599 279.1 379.599H255.9C255.9 379.599 258.9 368.099 256.1 361.299C253.4 354.499 254.1 346.999 261.3 346.699Z" fill="#F64652"/>
<path d="M343.899 382.499C343.799 381.899 338.499 380.999 338.499 380.999C338.499 380.999 340.299 379.399 339.799 378.799C339.499 378.399 336.699 379.299 335.399 379.799C335.399 379.799 335.399 379.799 335.299 379.799H335.199C332.299 379.099 329.199 378.399 326.299 377.599C323.299 376.799 320.399 375.999 317.499 375.099C311.699 373.299 305.899 371.299 300.599 368.799C295.299 366.299 290.199 363.199 285.299 359.799C283.699 358.699 281.999 357.499 280.399 356.299C280.099 356.899 279.699 357.599 279.399 358.199C278.099 360.799 276.799 363.499 275.299 366.199C276.699 367.099 277.999 367.999 279.399 368.799C282.199 370.499 284.999 372.099 287.899 373.499C290.799 374.899 293.899 376.299 296.999 377.399C300.099 378.499 303.199 379.499 306.299 380.299C307.899 380.699 309.399 381.099 310.999 381.399C312.599 381.699 314.099 382.099 315.699 382.299C321.899 383.499 328.099 384.199 334.399 384.599C335.799 385.399 338.799 387.199 339.099 386.899C339.399 386.399 337.499 384.699 337.499 384.699C337.499 384.699 341.199 387.099 341.499 386.399C341.899 385.699 338.699 383.899 338.699 383.899C338.699 383.899 343.099 385.099 343.099 384.399C342.999 383.699 339.599 382.599 339.599 382.599C339.599 382.599 343.999 383.099 343.899 382.499Z" fill="#FFCBA1"/>
<path d="M278.699 369.1C278.699 369.1 259.499 360.5 261.299 352.2C263.099 343.9 270.599 347.7 273.299 350.7C276.099 353.7 285.299 359.8 285.299 359.8L278.699 369.1Z" fill="#F64652"/>
<path d="M277.098 368.399C277.098 368.399 265.298 361.499 261.998 357.199" stroke="#0B334C" stroke-width="0.3305" stroke-miterlimit="10" stroke-linecap="round" stroke-linejoin="round"/>
<path d="M281.298 356.899L272.398 349.799" stroke="#0B334C" stroke-width="0.3305" stroke-miterlimit="10" stroke-linecap="round" stroke-linejoin="round"/>
<path d="M277.5 333.5C277.4 333.3 277.2 333.2 277 333.1C276.6 332.8 276.3 332.4 276.1 331.9C275.9 330.2 275.4 328.2 274.9 326.2C273.8 321.9 269.3 319.4 265 320.7C260.7 322 258.4 326.6 259.9 330.8C261 333.9 262.3 337.1 263.5 338.4C265.1 340.2 267.6 340.9 269.3 341.2C270.6 341.4 271.9 341 272.9 340.1C273.8 339.3 274.9 338.1 275.5 336.6C275.7 336.2 275.8 335.8 276 335.3C276.4 335 276.8 334.7 277.2 334.3C277.3 334.2 277.4 334.1 277.5 334C277.7 333.9 277.7 333.7 277.5 333.5Z" fill="#FFCBA1"/>
<path d="M272.601 334.9C272.601 335.9 271.801 336.8 270.701 336.8C269.701 336.8 268.801 336 268.801 334.9C268.801 333.9 269.601 333 270.701 333C271.801 333 272.601 333.8 272.601 334.9Z" fill="#FFB285"/>
<path d="M274.001 328.9C273.601 328.9 273.201 328.8 272.801 328.9C272.401 329 272.101 329.1 271.801 329.5C271.701 329.6 271.701 329.6 271.601 329.5C271.601 329.5 271.501 329.4 271.601 329.3C271.701 329.1 271.801 328.8 272.001 328.7C272.201 328.5 272.401 328.4 272.701 328.3C273.201 328.1 273.701 328.2 274.201 328.4C274.301 328.5 274.401 328.6 274.301 328.8C274.201 328.9 274.101 328.9 274.001 328.9Z" fill="#0B334C"/>
<path d="M273.4 337C273.2 337 273 337 272.8 336.9C272.6 336.8 272.4 336.7 272.4 336.5C272.6 336.6 272.7 336.7 272.9 336.7C273.1 336.9 273.2 336.9 273.4 337Z" fill="#0B334C"/>
<path d="M275.101 336.4C274.601 336.7 273.901 336.8 273.301 336.6C273.001 336.5 272.701 336.3 272.501 336C272.301 335.7 272.201 335.4 272.201 335.1C272.501 335.6 272.801 336.1 273.401 336.3C273.901 336.5 274.501 336.5 275.101 336.4Z" fill="#0B334C"/>
<path d="M274.201 332.001C273.801 331.901 273.401 331.801 273.001 331.801C272.601 331.801 272.301 331.901 271.801 332.001C271.901 331.801 272.101 331.601 272.301 331.501C272.501 331.401 272.701 331.301 273.001 331.301C273.601 331.301 274.001 331.601 274.201 332.001Z" fill="#0B334C"/>
<path d="M275.901 323.799C275.501 322.099 274.401 320.499 272.901 319.599C272.001 319.099 271.101 318.699 270.101 318.599C267.801 318.199 265.301 318.599 263.201 319.799C262.501 320.199 261.801 320.699 261.201 321.199C260.401 321.899 259.701 322.599 259.101 323.399C258.101 324.899 257.801 326.799 257.501 328.599C257.001 331.299 255.901 333.799 254.601 336.199C254.001 337.299 253.401 338.399 253.101 339.599C252.701 340.799 252.701 342.099 253.101 343.199C253.601 344.399 254.701 345.399 256.001 345.799C256.901 346.099 259.601 346.199 261.401 346.399C262.901 346.499 264.401 346.199 265.601 345.299C270.301 341.699 263.901 334.399 263.901 334.399C260.001 331.599 263.301 329.799 263.301 329.799C264.101 329.899 264.801 329.899 265.501 329.899C265.801 330.399 266.201 331.299 266.001 332.499C266.001 332.499 267.701 330.799 268.201 329.399C271.901 328.299 274.301 325.699 274.801 325.199C274.901 325.499 275.101 325.899 275.201 326.299C275.401 327.099 275.601 327.899 275.801 328.699C276.201 326.999 276.301 325.399 275.901 323.799Z" fill="#0B334C"/>
<path d="M308.699 17.7L320.699 24.5L333.199 0L308.699 17.7Z" fill="#8EE4FD"/>
<path d="M308.699 17.6992L308.299 26.6992L315.899 21.7992L308.699 17.6992Z" fill="#84D3EB"/>
<path d="M308.3 26.7L304 16.5L333.2 0L308.7 17.7L308.3 26.7Z" fill="#51BAD9"/>
<path d="M333.2 0L294.1 13L304 16.5L333.2 0Z" fill="#8EE4FD"/>
<path d="M487.3 229.9H442.6V178.5H476.2L487.3 190.5V229.9Z" fill="#8EE4FD"/>
<path d="M476.199 178.5L473.199 190.6L487.299 190.5L476.199 178.5Z" fill="#8EE4FD"/>
<path d="M476.099 178.4L473.199 190.7L487.199 190.6" stroke="#0B334C" stroke-width="0.9252" stroke-miterlimit="10" stroke-linecap="round" stroke-linejoin="round"/>
<path d="M115.3 81.7992C118.4 80.7992 121.7 81.2992 124.3 82.6992L115.7 54.1992L89.6004 62.0992C89.8004 60.5992 89.6004 58.9992 89.2004 57.3992C87.3004 51.1992 80.8004 47.6992 74.6004 49.5992C68.4004 51.4992 64.9004 57.9992 66.8004 64.1992C67.3004 65.7992 68.1004 67.1992 69.0004 68.2992L42.9004 76.1992L51.6004 104.799C53.0004 102.099 55.5004 99.9992 58.6004 98.9992C64.8004 97.0992 71.3004 100.599 73.2004 106.799C75.1004 112.999 71.6004 119.499 65.4004 121.399C62.3004 122.399 59.0004 121.899 56.4004 120.499L65.1004 149.099L91.2004 141.199C91.0004 142.699 91.2004 144.299 91.6004 145.899C93.5004 152.099 100 155.599 106.2 153.699C112.4 151.799 115.9 145.299 114 139.099C113.5 137.499 112.7 136.099 111.8 134.999L137.9 127.099L129.2 98.4992C127.8 101.199 125.3 103.299 122.2 104.299C116 106.199 109.5 102.699 107.6 96.4992C105.6 90.1992 109.1 83.6992 115.3 81.7992Z" fill="#00A2DD"/>
<path d="M66.3008 145.3L89.4008 138.5" stroke="#0B334C" stroke-width="0.9252" stroke-miterlimit="10" stroke-linecap="round" stroke-linejoin="round"/>
<path d="M91.9004 64.7996L114.7 57.5996" stroke="#0B334C" stroke-width="0.9252" stroke-miterlimit="10" stroke-linecap="round" stroke-linejoin="round"/>
<path d="M447.301 386.299L448.101 398.199L452.201 397.999C452.201 397.999 453.301 393.099 454.501 386.299H447.301Z" fill="#CC6F49"/>
<path d="M448 396.998C448 396.998 450.5 398.698 452.4 396.998L452.8 398.098C453.2 399.098 453.3 400.098 453.3 401.098V401.398H440C440 400.398 440.6 399.598 441.5 399.298L448 396.998Z" fill="#0B334C"/>
<path d="M468.102 386.299L469.402 398.299L473.502 397.999C473.502 397.999 474.402 393.199 475.402 386.299H468.102Z" fill="#CC6F49"/>
<path d="M469.301 396.998C469.301 396.998 471.801 398.698 473.701 396.998L474.101 398.098C474.501 399.098 474.601 400.098 474.601 401.098V401.398H461.301C461.301 400.398 461.901 399.598 462.801 399.298L469.301 396.998Z" fill="#0B334C"/>
<path d="M443.8 267.299C443.6 267.699 443.5 268.099 443.3 268.399C441.1 273.599 438.6 278.599 435.6 283.299C432.6 287.999 429 292.499 425.3 296.799C423.4 298.999 421.5 301.099 419.5 303.199C417.5 305.299 415.5 307.399 413.5 309.399L413.4 309.499C412.5 310.399 412.5 311.999 413.4 312.899C414.2 313.699 415.6 313.799 416.5 313.099C421.4 309.599 426 305.799 430.4 301.699C431.5 300.699 432.6 299.599 433.7 298.599C434.8 297.499 435.8 296.499 436.9 295.299C439 293.099 441 290.799 442.9 288.299C444.8 285.799 446.5 283.199 448.1 280.599C449.7 277.999 451.1 275.299 452.5 272.499C452.9 271.799 453.2 270.999 453.6 270.199C450.3 269.499 447 268.499 443.8 267.299Z" fill="#CC6F49"/>
<path d="M414 309.398C414 309.398 409.5 310.198 409.4 310.898C409.3 311.598 411.5 311.998 411.5 311.998C411.5 311.998 407.8 315.398 408 315.898C408.3 316.498 411.5 313.998 411.5 313.998C411.5 313.998 409.3 316.598 409.6 317.198C409.9 317.798 412.8 314.598 412.8 314.598C412.8 314.598 411.2 317.698 411.9 317.998C412.5 318.398 414.3 314.598 414.3 314.598C414.3 314.598 413.7 316.998 414.2 317.198C414.7 317.398 417.1 312.398 417.1 312.398L414 309.398Z" fill="#CC6F49"/>
<path d="M458.499 259.399C458.399 259.699 458.299 259.899 458.199 260.199C456.199 265.799 452.999 272.499 452.999 272.499L452.599 272.299L449.599 271.199L447.999 270.599H447.899L443.099 268.799L442.699 268.599C442.699 268.599 443.399 266.999 444.199 264.899C444.799 263.399 445.499 261.699 446.199 259.899C446.299 259.699 446.299 259.499 446.399 259.399C446.599 258.799 446.799 258.199 446.999 257.699C447.299 256.899 447.599 256.099 447.799 255.399C447.999 254.799 448.199 254.199 448.299 253.799C448.699 252.399 449.499 251.399 450.499 250.599C451.799 249.499 453.399 248.999 454.399 248.699C454.399 248.699 454.399 248.699 454.499 248.699C454.699 248.599 454.899 248.599 455.099 248.499C455.099 248.499 455.099 248.499 455.199 248.499C456.399 248.299 458.499 250.499 459.499 252.999C459.599 253.199 459.599 253.299 459.699 253.499C459.699 253.499 459.699 253.499 459.699 253.599C460.099 254.199 459.499 256.599 458.499 259.399Z" fill="#FCB13A"/>
<path d="M465.5 248.899C464.7 250.099 463.9 250.999 463.1 251.699C462.7 252.099 462.3 252.299 461.9 252.599C461.5 252.799 461.2 252.999 460.8 253.099C460.4 253.199 460.1 253.299 459.7 253.299C459.6 253.299 459.5 253.299 459.4 253.299C458.9 253.299 458.4 253.199 458 253.099C457.3 252.899 456.7 252.499 456.2 252.099C456.2 252.099 456.2 252.099 456.1 251.999C455.5 251.499 455 250.999 454.6 250.499C454.4 250.199 454.2 249.999 454.1 249.799C453.9 249.499 453.8 249.299 453.7 249.099C453.7 248.999 453.6 248.999 453.6 248.999H453.7C453.8 248.999 453.9 248.999 453.9 248.999C454.4 248.899 454.8 248.699 455.1 248.399L455.2 248.299C455.5 247.899 455.7 247.399 455.7 246.899V237.199H463.2V239.899V246.799C463.2 247.199 463.3 247.599 463.5 247.899C463.6 248.099 463.8 248.299 464.1 248.499C464.3 248.599 464.4 248.699 464.6 248.799C465 248.799 465.2 248.899 465.5 248.899Z" fill="#CC6F49"/>
<path d="M463.399 239.898V240.098C463.099 240.798 462.699 241.498 462.299 241.898C460.899 243.698 458.499 244.398 456.899 244.698C456.499 244.798 456.199 244.798 455.799 244.798V243.198C456.399 243.298 456.999 243.398 457.599 243.298C459.199 242.998 461.599 242.198 462.999 240.498C463.099 240.298 463.299 240.098 463.399 239.898Z" fill="#0B334C"/>
<path d="M467.998 269.798C467.398 272.098 467.098 273.898 467.598 274.798C468.798 277.398 469.898 279.698 469.898 279.698H445.898C445.898 279.698 447.198 278.198 448.298 275.998C448.798 274.998 449.298 273.898 449.498 272.698C449.598 272.198 449.698 271.598 449.698 271.098C449.698 270.398 449.698 269.698 449.498 269.098V268.998C448.298 265.498 446.698 262.498 446.398 259.998C446.398 259.898 446.398 259.798 446.398 259.698C446.398 259.098 446.398 258.498 446.598 257.898C446.798 257.098 447.398 256.198 448.098 255.098C449.098 253.698 450.398 252.098 451.798 250.798C451.998 250.598 452.198 250.398 452.398 250.198C452.898 249.698 453.498 249.298 453.998 248.898C454.098 248.898 454.198 248.798 454.198 248.798C454.398 248.598 454.598 248.498 454.798 248.398C454.898 248.398 454.898 248.298 454.998 248.298L455.498 248.098V248.198V248.298C455.498 248.798 455.398 250.698 456.398 251.998C456.398 251.998 456.398 251.998 456.398 252.098C456.798 252.598 457.298 252.898 458.098 253.098H458.198C458.698 253.198 459.198 253.098 459.698 252.898C461.798 251.898 463.498 248.498 463.698 248.098C463.698 248.298 463.698 248.598 464.298 248.798C464.398 248.898 464.598 248.898 464.898 248.898C465.098 248.898 465.398 248.998 465.798 248.998C465.898 248.998 465.998 248.998 465.998 248.998C466.898 248.998 467.698 249.198 468.498 249.598C469.998 250.398 472.098 252.198 471.798 255.698C471.798 255.798 471.798 255.898 471.798 255.898C471.498 259.198 469.698 264.398 468.498 268.598C468.498 268.798 468.398 268.998 468.298 269.198C468.098 269.298 468.098 269.598 467.998 269.798Z" fill="#FCB13A"/>
<path d="M476.299 353.798C478.599 365.298 477.899 378.598 476.799 388.598H465.999L458.899 318.398V318.098V318.398L456.599 353.898C458.299 363.498 457.099 377.798 455.599 388.498H445.799C444.699 369.798 442.699 337.098 441.399 317.498V317.398C441.199 313.998 440.999 310.998 440.799 308.498C440.599 305.598 440.399 303.398 440.299 302.198C439.999 298.998 440.599 295.298 441.499 291.498C441.699 290.798 441.799 290.198 441.999 289.498C442.699 286.798 443.599 284.198 444.499 281.798C444.699 281.198 444.899 280.598 445.199 280.098C445.799 278.398 446.399 276.998 446.899 275.698C447.499 274.198 447.899 273.098 448.099 272.598C448.299 272.098 448.299 271.298 448.199 270.398V270.298C448.099 269.698 448.099 269.098 447.899 268.498C447.599 266.898 447.199 265.198 446.699 263.698C446.399 262.498 446.299 261.198 446.499 259.998C446.599 259.698 446.599 259.498 446.699 259.198C446.799 258.598 447.099 257.998 447.299 257.498C447.499 257.098 447.699 256.698 447.999 256.398L451.999 250.898L452.399 250.298L453.199 249.198L453.899 248.898L454.699 248.498L454.899 248.398L455.399 248.198V248.298V248.398L454.799 250.598L454.499 251.698L452.599 258.998L458.599 259.498L459.499 259.598L461.799 253.298L461.999 252.598L463.699 247.998L465.699 248.798V248.898L465.499 250.098L464.799 253.998L463.599 260.798L467.399 268.398L467.699 269.098L468.099 269.898L470.699 275.098C470.699 275.098 470.999 275.998 471.599 277.698C472.899 281.498 475.599 289.198 479.299 299.598C484.499 314.598 476.299 353.798 476.299 353.798Z" fill="#0B334C"/>
<path d="M454.399 248.997L451.299 259.597L460.099 260.297L464.399 248.197" stroke="white" stroke-width="0.3084" stroke-miterlimit="10" stroke-linecap="round" stroke-linejoin="round"/>
<path d="M455.398 320.397L462.498 316.197" stroke="white" stroke-width="0.3084" stroke-miterlimit="10" stroke-linecap="round" stroke-linejoin="round"/>
<path d="M457.199 291.197H475.199" stroke="white" stroke-width="0.3084" stroke-miterlimit="10" stroke-linecap="round" stroke-linejoin="round"/>
<path d="M469.498 291.197C469.498 291.197 470.098 304.897 477.298 305.597" stroke="white" stroke-width="0.3084" stroke-miterlimit="10" stroke-linecap="round" stroke-linejoin="round"/>
<path d="M472.699 291.197C472.699 291.197 477.699 301.997 477.399 307.997C477.099 313.997 473.499 354.597 473.499 354.597V386.597" stroke="white" stroke-width="0.3084" stroke-miterlimit="10" stroke-linecap="round" stroke-linejoin="round"/>
<path d="M456.698 319.396L454.898 353.896C454.898 353.896 454.398 370.496 453.398 387.196" stroke="white" stroke-width="0.3084" stroke-miterlimit="10" stroke-linecap="round" stroke-linejoin="round"/>
<path d="M423.533 232.87L355.918 276.732L399.78 344.348L467.396 300.485L423.533 232.87Z" fill="white"/>
<path d="M421.236 243.656L366.707 279.029L402.08 333.558L456.609 298.185L421.236 243.656Z" fill="#8EE4FD"/>
<path d="M450.198 288.299L456.598 298.199L402.098 333.599L392.498 318.799C394.398 313.099 397.898 307.899 402.998 304.799C407.298 302.199 412.398 301.299 417.398 300.399C425.998 298.799 440.098 291.499 450.198 288.299Z" fill="#2CD0D1"/>
<path d="M417.1 268.999C419.2 272.199 418.3 276.599 415 278.699C411.8 280.799 407.4 279.899 405.3 276.599C403.2 273.399 404.1 268.999 407.4 266.899C410.7 264.799 415 265.699 417.1 268.999Z" fill="#FCB13A"/>
<path d="M423.6 232.898L356 276.698L399.7 344.498L467.5 300.698L423.6 232.898Z" stroke="#0B334C" stroke-width="0.3084" stroke-miterlimit="10" stroke-linecap="round" stroke-linejoin="round"/>
<path d="M462 267.598C462 268.898 462 270.198 462 271.398C462 273.398 461.9 275.298 461.7 277.198C458.5 277.098 455.2 276.798 452 276.398C449.1 276.098 446.3 275.698 443.4 275.298C440.5 274.898 437.7 274.398 434.9 273.798H434.8C434.8 273.798 434.8 273.798 434.7 273.798C433.8 272.898 431.7 270.998 431.3 271.298C430.7 271.598 431.6 273.698 431.6 273.698C431.6 273.698 426.7 272.498 426.4 272.998C426.1 273.498 430 274.798 430 274.798C430 274.798 426.6 274.398 426.3 274.998C426 275.598 430.3 276.198 430.3 276.198C430.3 276.198 426.9 276.598 426.9 277.398C426.9 278.098 431 277.398 431 277.398C431 277.398 428.7 278.198 428.8 278.698C428.9 279.098 432.2 278.698 433.7 278.498C439.3 280.498 444.9 282.098 450.7 283.498C452.2 283.798 453.6 284.098 455.1 284.398C456.6 284.698 458.1 284.998 459.6 285.198C460 285.298 460.4 285.298 460.8 285.398C461.8 285.498 463.2 285.698 464.7 285.798C467.7 286.098 470.4 284.098 471 281.098C471 281.098 471 281.098 471 280.998C471.2 279.698 471.4 278.398 471.5 277.198C471.7 275.398 471.9 273.698 472.1 271.898C472.2 270.698 472.3 269.598 472.3 268.398C468.8 268.598 465.3 268.298 462 267.598Z" fill="#CC6F49"/>
<path d="M472.901 254.798C472.901 255.298 472.901 255.598 472.901 255.798C472.901 256.898 472.501 269.198 472.501 269.198H472.301L468.301 269.098H467.701L462.101 268.898H461.801C461.801 268.898 463.001 260.198 464.501 253.898C464.801 252.498 465.201 251.098 465.601 250.098C465.801 249.698 465.901 249.298 466.101 248.898C472.201 248.698 472.901 252.698 472.901 254.798Z" fill="#FCB13A"/>
<path d="M467.601 234.999C467.201 235.899 465.801 236.999 464.801 236.899C464.301 238.099 463.901 239.099 463.401 239.899C463.301 240.099 463.101 240.299 463.001 240.399C461.601 242.199 459.201 242.899 457.601 243.199C457.001 243.299 456.401 243.299 455.801 243.199C455.201 242.999 454.601 242.799 454.101 242.299C453.201 241.499 452.201 240.499 451.501 239.099C451.201 238.499 450.901 237.899 450.801 237.099C450.701 236.699 450.701 236.299 450.701 235.799C450.701 233.999 451.201 231.599 451.701 229.199C452.601 225.099 456.701 222.599 460.801 223.699C464.601 224.699 466.801 228.399 466.201 232.099C466.201 232.099 466.301 232.099 466.401 232.099C467.501 232.699 468.101 233.899 467.601 234.999Z" fill="#CC6F49"/>
<path d="M458.602 237.499C458.602 238.499 459.402 239.299 460.402 239.299C461.402 239.299 462.202 238.499 462.202 237.499C462.202 236.499 461.402 235.699 460.402 235.699C459.402 235.699 458.602 236.499 458.602 237.499Z" fill="#C4533A"/>
<path d="M453.501 237.499C453.501 238.499 452.701 239.299 451.701 239.299C451.601 239.299 451.601 239.299 451.601 239.299C451.301 238.699 451.001 238.099 450.901 237.299C450.801 236.899 450.801 236.499 450.801 235.999C451.101 235.799 451.401 235.799 451.701 235.799C452.701 235.699 453.501 236.499 453.501 237.499Z" fill="#C4533A"/>
<path d="M456.301 233.498C456.601 234.198 456.501 234.898 456.301 235.498C456.201 235.798 456.101 236.098 456.201 236.298C456.201 236.498 456.401 236.798 456.601 237.098C456.301 236.998 455.901 236.898 455.701 236.398C455.601 235.998 455.701 235.598 455.701 235.298C455.901 234.698 456.101 234.098 456.301 233.498Z" fill="#0B334C"/>
<path d="M458.001 231.398C458.401 231.198 458.901 231.198 459.401 231.298C459.601 231.398 459.901 231.498 460.001 231.698C460.201 231.898 460.301 232.098 460.401 232.298C460.401 232.398 460.401 232.398 460.301 232.498C460.201 232.498 460.201 232.498 460.101 232.498C459.801 232.198 459.501 231.998 459.201 231.998C458.901 231.898 458.501 231.998 458.101 231.998C458.001 231.998 457.801 231.898 457.801 231.798C457.901 231.598 457.901 231.498 458.001 231.398Z" fill="#0B334C"/>
<path d="M454.401 231.899C454.001 231.899 453.601 231.799 453.301 231.899C452.901 231.999 452.601 232.099 452.401 232.399C452.301 232.499 452.301 232.499 452.201 232.399C452.201 232.399 452.101 232.298 452.201 232.198C452.301 231.998 452.401 231.798 452.601 231.598C452.801 231.398 453.001 231.298 453.201 231.198C453.701 231.098 454.201 231.099 454.601 231.299C454.701 231.399 454.801 231.498 454.701 231.598C454.601 231.798 454.501 231.899 454.401 231.899Z" fill="#0B334C"/>
<path d="M453.6 235.499C453.987 235.499 454.3 235.006 454.3 234.399C454.3 233.791 453.987 233.299 453.6 233.299C453.214 233.299 452.9 233.791 452.9 234.399C452.9 235.006 453.214 235.499 453.6 235.499Z" fill="#0B334C"/>
<path d="M458.301 234.399C458.301 234.999 458.601 235.499 459.001 235.499C459.401 235.499 459.701 234.999 459.701 234.399C459.701 233.799 459.401 233.299 459.001 233.299C458.601 233.399 458.301 233.899 458.301 234.399Z" fill="#0B334C"/>
<path d="M457.9 238.5C458.1 238.4 458.2 238.4 458.4 238.3C458.6 238.3 458.7 238.2 458.9 238.1C458.8 238.3 458.6 238.4 458.5 238.5C458.2 238.4 458.1 238.5 457.9 238.5Z" fill="#0B334C"/>
<path d="M456.301 237.899C456.901 237.999 457.401 237.999 457.901 237.799C458.401 237.599 458.701 237.199 459.001 236.699C459.001 236.999 458.901 237.299 458.701 237.499C458.501 237.799 458.301 237.999 458.001 238.099C457.401 238.299 456.801 238.199 456.301 237.899Z" fill="#0B334C"/>
<path d="M475 246.399C474.5 243.799 473.5 241.299 471.5 239.699C472.1 237.699 472 235.599 471.3 233.599C470.6 231.699 469.301 229.999 467.401 229.099C467.601 227.599 462.9 218.799 453.5 222.899C451.4 223.799 450.4 226.399 450.7 229.099C449.2 230.399 448.4 232.399 448.3 234.399C448.2 236.399 448.6 238.299 449.2 240.199C449.6 241.199 450 242.299 450.5 243.299C449.7 243.999 449.3 244.999 449.2 245.999C449.1 246.999 449.401 248.099 449.901 248.999C450.101 249.499 450.4 249.899 450.8 250.299C452.1 249.199 453.7 248.699 454.7 248.399L454.901 248.299C455.101 248.199 455.301 248.099 455.401 248.099V248.199C455.701 247.799 455.901 247.299 455.901 246.799V243.199C455.301 242.999 454.7 242.799 454.2 242.299C453.3 241.499 452.301 240.499 451.601 239.099C451.301 238.499 451.001 237.899 450.901 237.099C450.801 236.699 450.8 236.299 450.8 235.799C450.8 234.499 451.101 232.899 451.401 231.099C452.301 231.099 454.2 230.899 456.2 229.099C456.2 229.099 457.001 233.599 462.401 233.099C462.401 233.099 462.1 235.299 463.2 235.499C464.1 235.599 465.6 233.199 466.3 231.899H466.401C467.401 232.299 468 233.499 467.5 234.599C467.1 235.499 465.7 236.599 464.7 236.499C464.2 237.699 463.8 238.699 463.3 239.499V246.399C463.3 246.799 463.401 247.199 463.601 247.499L465.601 248.299V248.399C465.701 248.399 465.8 248.399 465.8 248.399C472.1 248.299 472.8 252.299 472.8 254.299C473.9 252.699 475 251.099 475.2 249.199C475.4 248.499 475.3 247.499 475 246.399Z" fill="#0B334C"/>
</svg>
