<svg width="605" height="324" viewBox="0 0 605 324" fill="none" xmlns="http://www.w3.org/2000/svg">
<path opacity="0.5" d="M586.697 321.472C586.656 321.554 586.594 321.636 586.553 321.718C586.224 322.315 585.874 322.911 585.525 323.528L47.2727 323.363C47.2727 323.363 46.7586 322.787 45.8128 321.657C45.7511 321.595 45.71 321.533 45.6483 321.451C43.2427 318.572 38.4108 312.486 32.7359 303.933C17.7056 281.192 -3.12294 240.933 0.393035 196.253C1.37997 183.649 4.29967 170.675 9.85121 157.66C26.6703 118.162 76.8192 91.5349 122.013 91.0003C139.51 90.7947 156.247 94.4957 170.023 102.864C172.47 104.345 175.534 105.496 179.111 106.277C182.113 106.935 185.485 107.347 189.145 107.47C218.486 108.498 266.229 91.9667 294.542 50.3507C309.572 28.2473 332.663 13.7928 359.187 6.24678C360.42 5.89724 361.675 5.56826 362.908 5.23928C368.933 3.69719 375.142 2.48407 381.434 1.64106C382.565 1.49713 383.716 1.3532 384.847 1.20927C412.831 -2.03941 442.809 1.31208 470.32 10.6058C473.939 11.8189 477.517 13.1554 481.053 14.5741C532.806 35.526 573.065 78.314 569.528 138.065C569.384 140.43 569.179 142.815 568.891 145.241C568.356 149.847 567.575 154.535 566.526 159.325C565.909 162.142 565.19 165 564.367 167.899C543.045 243.668 628.292 247.081 586.697 321.472Z" fill="#DCEAFF"/>
<path d="M586.697 321.472L167.74 321.513L171.359 196.295V162.307H187.027V135.722H218.28V158.277H227.82V116.579H229.897V113.659H230.267V116.579H237.813V113.659H238.183V116.579H248.854V113.659H249.225V116.579H255.948V113.659H256.318V116.579H259.073V155.522H269.621V149.21L282.061 149.272V139.073H284.569V137.058H284.898V139.073H294.5H296.413V137.058H296.742V139.073H299.065V159.367H313.869V166.831H322.114V162.492H329.742V145.283H333.546V137.243H334.122V145.283H343.251V130.232H344.156V145.283H350.201V145.077V143.165V141.355V138.354V136.441V133.439V131.527V128.525V126.449V123.447V120.794V117.792V115.798H351.99V113.557H352.278V115.798H365.601V113.557H365.889V115.798H368.315V131.527H370.022H370.001V128.525H370.022V126.449H370.001V123.447H370.022V121.37H370.001V118.368H370.022H386.183H388.959C389.103 118.45 389.247 118.532 389.391 118.615V138.682H392.372V135.783H426.504V158.339H436.928V116.579H439.19V113.659H439.601V116.579H447.826V113.659H448.237V116.579H459.895V113.659H460.306V116.579H467.647V113.659H468.058V116.579H471.081V155.522H482.595V149.21L496.165 149.272V139.073H498.9V137.058H499.27V139.073H509.756H511.854V137.058H512.224V139.073H514.753V159.367H530.914V166.831H539.899V162.492H548.226V145.283H552.38V137.243H553.017V145.283H562.989V130.232H563.976V145.283H568.87C568.335 149.888 567.554 154.576 566.505 159.367C565.889 162.184 565.169 165.042 564.346 167.941C543.045 243.668 628.292 247.081 586.697 321.472Z" fill="#DFEBFA"/>
<path d="M481.053 14.6158V321.492H470.32V10.627C473.96 11.8606 477.537 13.1765 481.053 14.6158Z" fill="#AFCDFB"/>
<path d="M179.112 106.298V321.677H45.8129C45.7512 321.615 45.7101 321.553 45.6484 321.471C43.2427 318.592 38.4108 312.506 32.7359 303.953C17.7056 281.212 -3.12294 240.953 0.393036 196.274C1.37998 183.67 4.29968 170.695 9.85122 157.68C26.6703 118.161 76.8193 91.5346 122.013 91C139.346 91.1851 155.857 94.9272 169.571 102.864C172.141 104.365 175.369 105.516 179.112 106.298Z" fill="#CEE1FD"/>
<path d="M384.867 1.23047V39.022C384.867 41.9623 384.148 44.368 383.264 44.368H383.037C382.153 44.368 381.434 41.9623 381.434 39.022V1.66225C382.585 1.49776 383.716 1.35384 384.867 1.23047Z" fill="#9FC1F4"/>
<path d="M382.257 35.2793C369.797 35.2793 359.701 45.9506 359.701 59.1304H404.813C404.813 45.9506 394.717 35.2793 382.257 35.2793Z" fill="#FF9843"/>
<path d="M384.066 35.5669C383.408 35.423 382.75 35.3613 382.092 35.3613C373.97 35.3613 367.391 46.0121 367.391 59.1301H371.359C371.338 47.0812 376.89 37.1296 384.066 35.5669Z" fill="#FFC48A"/>
<path d="M530.789 286.31C530.789 286.31 524.785 279.298 530.419 274.857C530.419 274.857 534.531 272.369 537.883 272.575C537.883 272.575 533.133 280.553 534.675 281.334C536.218 282.136 539.322 272.081 539.322 272.081C539.322 272.081 548.678 271.177 551.7 272.616C551.7 272.616 543.702 279.155 545.388 279.545C547.074 279.936 555.71 273.5 555.71 273.5C555.71 273.5 564.428 274.981 563.955 280.306C563.482 285.611 560.48 287.256 559.164 287.112C557.848 286.968 550.117 284.028 549.952 285.097C549.788 286.166 554.435 289.702 557.683 289.867C557.683 289.867 551.536 296.632 547.465 294.678C543.373 292.725 543.044 289.62 540.494 288.469C537.945 287.297 535.786 287.317 536.834 288.489C537.883 289.682 542.489 290.833 543.949 293.403C545.408 295.974 546.704 297.721 542.489 297.084C538.274 296.446 531.406 293.362 531.098 289.826C530.789 286.31 530.789 286.31 530.789 286.31Z" fill="#77A4E5"/>
<path d="M559.678 280.45C559.678 280.45 536.012 279.546 530.789 286.31C530.789 286.31 529.638 289.765 526.081 292.931L525.525 294.432C525.525 294.432 529.617 290.114 531.098 289.847C531.077 289.847 528.795 281.458 559.678 280.45Z" fill="#77A4E5"/>
<path d="M526.061 292.911C526.061 292.911 520.982 296.674 520.633 303.377L521.558 303.459C521.558 303.459 523.182 296.509 526.102 293.795C529.042 291.102 526.061 292.911 526.061 292.911Z" fill="#77A4E5"/>
<path d="M509.798 277.511C509.798 277.511 519.338 272.165 514.897 264.907C514.897 264.907 511.34 260.445 507.516 259.314C507.516 259.314 509.551 270.13 507.516 270.397C505.48 270.644 506.118 258.184 506.118 258.184C506.118 258.184 496.063 253.352 492.115 253.722C492.115 253.722 498.345 264.29 496.31 264.023C494.274 263.756 487.263 253.084 487.263 253.084C487.263 253.084 476.962 251.172 475.296 257.279C473.651 263.386 476.324 266.449 477.846 266.819C479.367 267.21 489.175 267.066 488.928 268.341C488.682 269.616 482.061 271.651 478.36 270.5C478.36 270.5 482.431 280.554 487.777 280.04C493.123 279.526 494.788 276.216 498.078 275.969C501.388 275.722 503.815 276.606 502.149 277.491C500.504 278.375 494.891 277.778 492.218 280.061C489.545 282.343 487.386 283.741 492.342 284.749C497.297 285.777 506.22 285.139 507.989 281.315C509.798 277.511 509.798 277.511 509.798 277.511Z" fill="#77A4E5"/>
<path d="M480.004 259.17C480.004 259.17 506.734 267.826 509.797 277.49C509.797 277.49 509.674 281.808 512.347 286.784V288.696C512.347 288.696 509.55 282.199 508.029 281.314C508.008 281.314 513.992 272.925 480.004 259.17Z" fill="#77A4E5"/>
<path d="M512.346 286.784C512.346 286.784 516.459 293.034 514.115 300.663L513.045 300.375C513.045 300.375 514.073 291.986 511.914 287.75C509.776 283.556 512.346 286.784 512.346 286.784Z" fill="#77A4E5"/>
<path d="M524.993 270.129C524.993 270.129 512.409 263.076 518.29 253.515C518.29 253.515 522.998 247.635 528.015 246.134C528.015 246.134 525.322 260.403 528.015 260.732C530.709 261.061 529.866 244.633 529.866 244.633C529.866 244.633 543.128 238.259 548.33 238.752C548.33 238.752 540.105 252.672 542.799 252.343C545.492 252.014 554.704 237.909 554.704 237.909C554.704 237.909 568.295 235.401 570.474 243.44C572.654 251.5 569.138 255.53 567.123 256.024C565.108 256.517 552.195 256.353 552.524 258.039C552.853 259.725 561.592 262.398 566.444 260.897C566.444 260.897 561.078 274.159 554.025 273.48C546.973 272.802 544.793 268.443 540.434 268.114C536.075 267.785 532.888 268.957 535.068 270.129C537.247 271.301 544.629 270.52 548.165 273.501C551.702 276.482 554.539 278.333 548.001 279.69C541.462 281.026 529.701 280.183 527.357 275.166C525.013 270.149 524.993 270.129 524.993 270.129Z" fill="#9FC1F4"/>
<path d="M564.245 245.969C564.245 245.969 529.003 257.38 524.973 270.128C524.973 270.128 525.137 275.824 521.621 282.383V284.891C521.621 284.891 525.322 276.338 527.317 275.166C527.337 275.166 519.442 264.083 564.245 245.969Z" fill="#9FC1F4"/>
<path d="M521.642 282.383C521.642 282.383 516.213 290.628 519.298 300.682L520.696 300.312C520.696 300.312 519.339 289.25 522.176 283.678C525.014 278.106 521.642 282.383 521.642 282.383Z" fill="#9FC1F4"/>
<path d="M524.561 322.458C538.173 322.458 549.214 311.416 549.214 297.805H499.908C499.908 311.416 510.95 322.458 524.561 322.458Z" fill="#9FC1F4"/>
<path d="M530.627 322.273C529.619 322.396 528.612 322.458 527.563 322.458C513.952 322.458 502.91 311.416 502.91 297.805H509.037C509.037 310.388 518.454 320.751 530.627 322.273Z" fill="#AFCDFB"/>
<path d="M549.789 297.805H499.105V298.565H549.789V297.805Z" fill="#9FC1F4"/>
<path d="M409.807 321.244L385.586 220.7L387.272 216.752L411.267 321.244C411.329 321.511 411.123 321.758 410.856 321.758H410.465C410.136 321.758 409.869 321.553 409.807 321.244Z" fill="#77A4E5"/>
<path d="M300.483 321.758C299.989 321.758 299.599 321.306 299.681 320.813L306.816 277.572H309.879L301.367 321.018C301.285 321.45 300.915 321.758 300.483 321.758Z" fill="#77A4E5"/>
<path d="M368.912 321.758C368.419 321.758 368.028 321.306 368.111 320.813L375.245 277.572H378.309L369.797 321.018C369.714 321.45 369.344 321.758 368.912 321.758Z" fill="#77A4E5"/>
<path d="M385.505 277.675H300.299L317.961 166.994H403.167L385.505 277.675Z" fill="#F5FBFF"/>
<path d="M391.878 276.812H294.027V280.061H391.878V276.812Z" fill="#77A4E5"/>
<path d="M351.702 190.145C351.64 191.03 351.517 191.873 351.311 192.716C349.543 200.632 342.491 206.677 334.533 206.697C325.733 206.718 319.133 199.316 319.812 190.187C320.49 181.057 328.16 173.635 336.98 173.635C338.831 173.635 340.578 173.964 342.182 174.56C342.902 174.827 343.601 175.156 344.259 175.526C345.678 176.328 346.952 177.377 348.022 178.611C348.618 179.289 349.153 180.05 349.625 180.831C349.893 181.284 350.139 181.777 350.366 182.271C350.982 183.648 351.414 185.129 351.62 186.691C351.723 187.473 351.764 188.295 351.764 189.117C351.743 189.446 351.723 189.796 351.702 190.145Z" fill="#BDD1F9"/>
<path d="M350.345 182.271L335.746 190.188C335.746 190.188 341.771 179.578 344.238 175.527C345.657 176.329 346.931 177.378 348.001 178.612C348.597 179.29 349.131 180.051 349.604 180.832C349.892 181.305 350.139 181.778 350.345 182.271Z" fill="white"/>
<path d="M351.867 180.255L338.543 187.493C338.543 187.493 344.033 177.808 346.295 174.107C347.59 174.848 348.762 175.793 349.728 176.924C350.263 177.541 350.756 178.24 351.188 178.96C351.435 179.371 351.661 179.803 351.867 180.255Z" fill="#F99746"/>
<path d="M378.718 269.246H308.584L315.678 228.781H385.812L378.718 269.246ZM309.16 268.835H378.307L385.257 229.192H316.109L309.16 268.835Z" fill="#BDD1F9"/>
<path d="M374.543 263.693H312.346C312.346 263.693 323.387 257.772 326.41 258.08C329.432 258.389 333.791 260.794 336.587 260.877C339.384 260.959 342.406 252.57 345.532 252.96C348.636 253.351 349.808 260.794 351.433 260.054C353.057 259.314 357.889 259.006 360.665 260.054C363.461 261.103 367.512 256.744 369.958 256.888C372.405 257.052 374.543 263.693 374.543 263.693Z" fill="#F99746"/>
<path d="M327.317 251.809H315.453L315.556 251.172H327.44L327.317 251.809Z" fill="#F99746"/>
<path d="M327.068 253.167L315.184 253.146L315.286 252.529H327.171L327.068 253.167Z" fill="#F99746"/>
<path d="M315.904 243.422H378.102C378.102 243.422 369.137 237.5 366.012 237.809C362.866 238.117 357.685 240.523 354.847 240.605C352.01 240.708 351.928 232.298 348.679 232.689C345.43 233.08 341.647 240.502 340.29 239.783C338.933 239.063 334.204 238.734 331.058 239.783C327.912 240.831 325.362 236.472 322.875 236.616C320.366 236.76 315.904 243.422 315.904 243.422Z" fill="#BDD1F9"/>
<path d="M330.691 232.688H318.807L318.909 232.051H330.794L330.691 232.688Z" fill="#BDD1F9"/>
<path d="M330.422 234.025H318.537L318.66 233.408H330.524L330.422 234.025Z" fill="#BDD1F9"/>
<path d="M319.934 223.147H317.199L319.584 210.357H322.298L319.934 223.147Z" fill="#BDD1F9"/>
<path d="M323.657 223.147H320.922L322.772 213.236H325.486L323.657 223.147Z" fill="#BDD1F9"/>
<path d="M327.377 223.147H324.643L326.555 212.805H329.289L327.377 223.147Z" fill="#BDD1F9"/>
<path d="M331.077 223.147H328.363L329.823 215.293H332.537L331.077 223.147Z" fill="#BDD1F9"/>
<path d="M334.799 223.147H332.064L333.627 214.717H336.362L334.799 223.147Z" fill="#BDD1F9"/>
<path d="M338.522 223.146H335.787L337 216.607H339.735L338.522 223.146Z" fill="#BDD1F9"/>
<path d="M356.43 223.147H353.695L356.08 210.357H358.795L356.43 223.147Z" fill="#F99746"/>
<path d="M360.151 223.147H357.416L359.246 213.236H361.981L360.151 223.147Z" fill="#F99746"/>
<path d="M363.873 223.147H361.139L363.051 212.805H365.786L363.873 223.147Z" fill="#F99746"/>
<path d="M367.573 223.147H364.859L366.299 215.293H369.033L367.573 223.147Z" fill="#F99746"/>
<path d="M371.295 223.147H368.561L370.123 214.717H372.858L371.295 223.147Z" fill="#F99746"/>
<path d="M375.018 223.146H372.283L373.496 216.607H376.231L375.018 223.146Z" fill="#F99746"/>
<path d="M369.568 181.408H360.686L360.912 180.195H369.794L369.568 181.408Z" fill="#BDD1F9"/>
<path d="M380.466 181.408H370.658L370.884 180.195H380.692L380.466 181.408Z" fill="#BDD1F9"/>
<path d="M387.456 181.408H381.205L381.431 180.195H387.682L387.456 181.408Z" fill="#BDD1F9"/>
<path d="M393.295 181.408H388.463L388.689 180.195H393.521L393.295 181.408Z" fill="#BDD1F9"/>
<path d="M368.603 186.59H359.721L359.947 185.377H368.829L368.603 186.59Z" fill="#BDD1F9"/>
<path d="M379.48 186.59H369.672L369.919 185.377H379.706L379.48 186.59Z" fill="#BDD1F9"/>
<path d="M386.471 186.59H380.221L380.447 185.377H386.697L386.471 186.59Z" fill="#BDD1F9"/>
<path d="M392.31 186.59H387.479L387.725 185.377H392.537L392.31 186.59Z" fill="#BDD1F9"/>
<path d="M374.853 178.571H361.221L361.447 177.357H375.079L374.853 178.571Z" fill="#BDD1F9"/>
<path d="M384.003 178.571H376.148L376.375 177.357H384.229L384.003 178.571Z" fill="#BDD1F9"/>
<path d="M393.831 178.571H385.113L385.339 177.357H394.057L393.831 178.571Z" fill="#BDD1F9"/>
<path d="M373.805 184.08H360.193L360.42 182.867H374.031L373.805 184.08Z" fill="#BDD1F9"/>
<path d="M382.954 184.08H375.1L375.326 182.867H383.18L382.954 184.08Z" fill="#BDD1F9"/>
<path d="M392.782 184.08H384.064L384.291 182.867H393.009L392.782 184.08Z" fill="#BDD1F9"/>
<path d="M367.615 191.791H358.732L358.959 190.578H367.841L367.615 191.791Z" fill="#BDD1F9"/>
<path d="M378.513 191.791H368.705L368.931 190.578H378.739L378.513 191.791Z" fill="#BDD1F9"/>
<path d="M385.503 191.791H379.252L379.478 190.578H385.729L385.503 191.791Z" fill="#BDD1F9"/>
<path d="M391.344 191.791H386.512L386.738 190.578H391.57L391.344 191.791Z" fill="#BDD1F9"/>
<path d="M372.837 189.283H359.205L359.431 188.07H373.063L372.837 189.283Z" fill="#BDD1F9"/>
<path d="M381.987 189.283H374.133L374.359 188.07H382.213L381.987 189.283Z" fill="#BDD1F9"/>
<path d="M391.816 189.283H383.098L383.324 188.07H392.042L391.816 189.283Z" fill="#BDD1F9"/>
<path d="M366.711 196.665H357.828L358.054 195.432H366.937L366.711 196.665Z" fill="#BDD1F9"/>
<path d="M377.588 196.665H367.801L368.027 195.432H377.835L377.588 196.665Z" fill="#BDD1F9"/>
<path d="M384.579 196.665H378.328L378.554 195.432H384.825L384.579 196.665Z" fill="#BDD1F9"/>
<path d="M390.417 196.665H385.605L385.832 195.432H390.643L390.417 196.665Z" fill="#BDD1F9"/>
<path d="M371.912 194.135H358.301L358.527 192.922H372.139L371.912 194.135Z" fill="#BDD1F9"/>
<path d="M381.061 194.135H373.207L373.454 192.922H381.308L381.061 194.135Z" fill="#BDD1F9"/>
<path d="M390.91 194.135H382.172L382.398 192.922H391.137L390.91 194.135Z" fill="#BDD1F9"/>
<path d="M346.5 212.249H342.141L342.264 211.652H346.602L346.5 212.249Z" fill="#BDD1F9"/>
<path d="M351.826 212.249H347.035L347.138 211.652H351.949L351.826 212.249Z" fill="#BDD1F9"/>
<path d="M346.027 214.799H341.668L341.791 214.203H346.13L346.027 214.799Z" fill="#BDD1F9"/>
<path d="M351.352 214.799H346.541L346.664 214.203H351.455L351.352 214.799Z" fill="#BDD1F9"/>
<path d="M349.07 210.872H342.408L342.511 210.275H349.193L349.07 210.872Z" fill="#BDD1F9"/>
<path d="M353.552 210.872H349.707L349.83 210.275H353.675L353.552 210.872Z" fill="#BDD1F9"/>
<path d="M348.577 213.565H341.895L342.018 212.969H348.68L348.577 213.565Z" fill="#BDD1F9"/>
<path d="M353.06 213.565H349.215L349.318 212.969H353.163L353.06 213.565Z" fill="#BDD1F9"/>
<path d="M381.309 212.249H376.971L377.074 211.652H381.432L381.309 212.249Z" fill="#BDD1F9"/>
<path d="M386.655 212.249H381.844L381.967 211.652H386.758L386.655 212.249Z" fill="#BDD1F9"/>
<path d="M380.836 214.799H376.498L376.601 214.203H380.939L380.836 214.799Z" fill="#BDD1F9"/>
<path d="M386.162 214.799H381.371L381.474 214.203H386.285L386.162 214.799Z" fill="#BDD1F9"/>
<path d="M383.9 210.872H377.238L377.341 210.275H384.003L383.9 210.872Z" fill="#BDD1F9"/>
<path d="M388.382 210.872H384.537L384.64 210.275H388.485L388.382 210.872Z" fill="#BDD1F9"/>
<path d="M383.386 213.565H376.725L376.827 212.969H383.51L383.386 213.565Z" fill="#BDD1F9"/>
<path d="M387.868 213.565H384.023L384.147 212.969H387.971L387.868 213.565Z" fill="#BDD1F9"/>
<path d="M404.442 320.114C404.298 322.191 401.358 322.212 398.027 321.821C394.696 321.43 395.58 322.273 390.913 322.335C386.245 322.397 384.642 320.855 384.415 320.197C384.21 319.6 386.451 319.107 388.857 318.531C389.165 318.449 389.453 318.387 389.761 318.305C392.475 317.626 394.264 315.591 396.588 313.823C398.788 312.137 401.625 306.071 401.625 306.071L407.999 305.783C407.999 305.783 405.326 311.232 404.319 313.576C403.722 314.954 403.969 316.66 404.237 317.955C404.36 318.655 404.504 319.374 404.442 320.114Z" fill="#FFB27D"/>
<path d="M398.027 321.842C394.696 321.451 395.58 322.294 390.913 322.356C386.245 322.418 384.642 320.876 384.415 320.218C384.21 319.621 386.451 319.128 388.857 318.552L388.877 318.593C388.877 318.593 391.879 320.197 395.724 319.827C398.849 319.519 402.057 318.203 404.216 317.977C404.36 318.676 404.483 319.416 404.442 320.135C404.298 322.192 401.358 322.212 398.027 321.842Z" fill="#233862"/>
<path d="M448.444 320.546C448.3 322.623 445.36 322.644 442.029 322.274C438.698 321.883 439.582 322.726 434.915 322.808C430.247 322.87 428.644 321.348 428.417 320.67C428.212 320.073 430.453 319.58 432.859 318.984C433.167 318.901 433.455 318.84 433.763 318.758C436.477 318.058 438.266 316.043 440.59 314.255C442.79 312.569 440.59 302.637 440.59 302.637L447.601 301.959C447.601 301.959 447.272 310.327 447.272 314.131C447.272 315.632 447.971 317.072 448.218 318.387C448.362 319.087 448.485 319.806 448.444 320.546Z" fill="#FFB27D"/>
<path d="M442.029 322.274C438.698 321.883 439.582 322.726 434.915 322.808C430.247 322.87 428.644 321.349 428.417 320.67C428.212 320.074 430.453 319.58 432.859 318.984L432.879 319.025C432.879 319.025 435.881 320.629 439.726 320.238C442.851 319.93 446.038 318.614 448.197 318.367C448.341 319.066 448.465 319.806 448.423 320.526C448.28 322.623 445.36 322.664 442.029 322.274Z" fill="#233862"/>
<path d="M427.986 148.715C426.773 143.76 428.52 141.436 430.104 140.223C430.844 138.393 431.707 137.077 432.571 136.584C434.154 135.679 436.066 135.576 437.403 135.659C437.053 135.309 436.375 135.165 436.375 135.165C437.197 135.042 439.048 135.864 439.048 135.864C450.562 131.423 452.371 148.386 452.125 152.313C451.878 156.261 451.919 160.887 457.902 163.992C469.335 169.914 454.099 192.223 454.099 192.223C454.386 189.036 439.706 172.237 432.036 167.22C430.165 164.465 429.507 159.633 429.466 159.242C429.795 163.087 430.453 165.246 431.029 166.459C427.575 163.231 427.061 155.521 427.986 148.715Z" fill="#A9453D"/>
<path d="M432.53 167.468C432.489 167.488 436.231 169.421 439.048 168.66C441.7 167.941 443.427 164.507 443.386 164.507C442.276 164.281 441.947 162.739 441.967 156.139L441.453 156.241L432.941 157.928C432.941 157.928 433.126 160.6 433.146 163.129C433.146 165.227 433.023 167.242 432.53 167.468Z" fill="#FFB27D"/>
<path d="M432.939 157.907C432.939 157.907 433.125 160.58 433.145 163.109C437.915 162.965 440.424 158.626 441.452 156.221L432.939 157.907Z" fill="#ED975D"/>
<path d="M398.315 309.443C397.904 310.759 398.829 312.095 400.207 312.157L403.538 312.322L407.054 312.424C407.938 312.445 408.781 312.075 409.336 311.376C412.153 307.922 420.789 296.448 426.032 279.753C426.176 279.28 426.34 278.807 426.505 278.334C429.959 268.238 437.155 255.552 440.939 244.079C441.535 242.249 442.09 240.522 442.563 238.897C442.727 238.383 442.871 237.869 443.015 237.355C445.812 227.671 446.614 221.297 447.354 214.512L420.028 214.738C420.007 214.758 414.271 259.479 398.315 309.443Z" fill="#2A4E96"/>
<path d="M423.832 199.071C423.893 212.065 421.92 217.658 421.92 217.658C421.92 217.658 433.619 223.6 447.518 219.221C447.683 219.159 457.47 216.404 457.47 216.404C457.244 215.869 455.311 207.172 455.085 206.699C452.145 200.386 451.343 197.755 450.993 195.801C450.356 192.183 450.335 188.44 450.664 184.904C451.507 175.548 454.036 167.797 454.036 167.797C450.253 166.933 446.696 165.412 442.748 163.952C441.843 165.083 439.068 166.255 436.662 166.214C433.886 166.152 433.002 164.959 433.146 163.664C430.185 165.309 427.841 166.851 427.841 166.851C425.333 171.21 420.254 175.446 419.884 182.128C419.802 183.773 423.832 198.7 423.832 199.071Z" fill="white"/>
<path d="M447.334 200.509C448.526 202.195 450.809 212.475 456.525 213.771C453.585 206.451 451.364 203.243 451.014 200.982C450.377 196.787 450.356 192.428 450.685 188.337C448.773 184.985 447.354 182.703 447.354 182.703C447.211 182.168 444.332 173.245 443.407 181.222C442.461 189.18 445.997 198.617 447.334 200.509Z" fill="#5F9AA8"/>
<path d="M431.357 160.291C431.357 160.291 442.624 160.476 442.645 153.464C442.645 146.453 444.105 141.744 436.908 141.333C429.712 140.922 428.314 143.595 427.738 145.939C427.162 148.262 428.416 160.065 431.357 160.291Z" fill="#FFB27D"/>
<path d="M431.768 141.148C431.768 141.148 434.852 149.393 439.581 150.606C444.31 151.82 446.366 150.565 446.366 150.565C446.366 150.565 442.727 147.687 441.987 142.649C442.007 142.629 434.091 137.221 431.768 141.148Z" fill="#A9453D"/>
<path d="M432.528 141.806C432.528 141.806 430.225 143.636 429.67 145.425C429.115 147.214 428.848 150.894 427.779 150.771C427.779 150.771 425.455 145.178 428.066 142.012C430.842 138.66 432.528 141.806 432.528 141.806Z" fill="#A9453D"/>
<path d="M413.613 208.096L408.309 224.319L411.331 225.532L420.131 211.2L413.613 208.096Z" fill="#FFB27D"/>
<path d="M427.965 165.904C427.965 165.904 421.693 168.392 419.863 172.278C418.054 176.164 415.299 202.215 414.209 204.888C413.119 207.561 412.297 209.679 412.297 209.679C412.297 209.679 415.463 212.352 418.65 212.537C421.837 212.722 427.965 165.904 427.965 165.904Z" fill="#F99746"/>
<path d="M433.145 163.664C433.145 163.664 426.627 179.764 426.442 183.033C426.257 186.302 425.681 236.348 425.681 236.348C425.681 236.348 426.072 238.651 421.651 237.685C417.23 236.718 416.1 235.772 416.1 235.772C416.1 235.772 420.315 204.889 419.163 194.156C418.012 183.423 427.984 165.905 427.984 165.905L433.145 163.664Z" fill="#F99746"/>
<path d="M403.537 312.321L407.361 312.444C408.04 312.465 408.698 312.177 409.13 311.642C411.7 308.538 420.644 296.9 426.031 279.772C426.175 279.3 426.34 278.827 426.504 278.354C429.958 268.258 437.155 255.572 440.938 244.099C441.534 242.269 442.089 240.542 442.562 238.917C442.727 238.403 442.871 237.889 443.015 237.375L438.985 234.332C438.985 234.332 426.895 253.886 423.173 272.309C419.904 288.305 406.889 307.551 403.537 312.321Z" fill="#1E3D70"/>
<path d="M438.553 274.016C438.491 282.487 438.882 301.363 439.91 310.595C440.013 311.438 440.712 312.075 441.575 312.075H444.433C445.626 312.075 446.531 312.075 447.127 312.054C447.641 312.054 448.093 311.684 448.176 311.17C451.013 296.736 453.049 284.749 454.529 274.407C455.763 265.73 456.873 258.307 457.716 251.913C458.58 245.477 459.176 240.09 459.381 235.525C459.423 234.806 459.443 234.107 459.443 233.428C459.464 232.75 459.464 232.092 459.464 231.434L435.859 229.131C436.168 244.84 438.594 268.814 438.553 274.016Z" fill="#2A4E96"/>
<path d="M444.434 312.075C445.503 312.075 446.346 312.075 446.942 312.054C447.579 312.054 448.114 311.602 448.237 310.985C451.054 296.633 453.069 284.708 454.55 274.407C455.783 265.73 456.894 258.307 457.737 251.913C458.6 245.477 459.197 240.09 459.402 235.525L450.746 240.625C450.746 240.625 456.277 242.578 454.159 257.341C452.041 272.104 447.374 309.998 444.434 312.075Z" fill="#1E3D70"/>
<path d="M443.324 235.382C443.324 235.382 444.989 241.386 450.746 240.625C456.503 239.864 464.687 236.41 464.687 236.41C464.687 236.41 462.219 228.638 459.176 218.439C455.475 206.082 450.89 190.147 448.731 180.113C448.135 177.296 447.703 174.952 447.559 173.266L442.789 164.014C442.789 164.014 435.675 179.99 435.284 184.02C434.873 188.009 443.324 235.382 443.324 235.382Z" fill="#F99746"/>
<path d="M449.061 183.381L442.769 163.971C442.79 163.971 450.726 166.335 454.715 168.35C454.715 168.35 457.203 171.578 458.766 179.001C458.766 179.001 460.39 196.828 456.751 203.345C456.751 203.345 445.236 205.648 426.834 199.315V195.1C426.834 195.1 446.963 196.149 451.096 196.643L449.061 183.381Z" fill="#FFB27D"/>
<path d="M443.57 192.428C443.817 198.945 445.359 211.611 459.032 218.376C459.073 218.396 459.114 218.417 459.135 218.438C455.434 206.08 450.848 190.145 448.69 180.111C446.202 183.853 443.426 188.829 443.57 192.428Z" fill="#ED7D2B"/>
<path d="M442.768 163.992C442.768 163.992 454.447 164.815 457.264 171.086C460.081 177.357 460.965 198.186 457.387 204.333C457.387 204.333 452.453 205.732 443.735 204.107C443.632 204.087 443.529 204.066 443.406 204.046C443.406 204.046 440.63 197.24 443.118 195.903C443.118 195.903 450.479 196.294 449.697 193.868C448.916 191.441 442.768 163.992 442.768 163.992Z" fill="#F99746"/>
<path d="M413.49 197.713L413.84 198.823L433.003 192.86C433.003 192.86 433.25 192.572 433.126 192.182C432.982 191.75 432.653 191.75 432.653 191.75L413.49 197.713Z" fill="#A9453D"/>
<path d="M412.092 198.762L413.49 197.713L413.819 198.823L412.092 198.762Z" fill="#A9453D"/>
<path d="M409.049 223.887C409.049 223.887 404.196 226.58 403.538 228.616C402.901 230.672 403.333 234.949 404.114 234.887C404.895 234.825 406.047 230.281 406.684 229.952C407.321 229.623 408.226 228.678 408.226 229.377C408.226 230.076 407.589 231.35 407.897 231.556C408.226 231.741 409.234 229.767 409.953 229.377C410.652 228.986 410.961 225.84 411.639 224.976C412.318 224.113 409.049 223.887 409.049 223.887Z" fill="#FFB27D"/>
<path d="M426.834 195.102C426.834 195.102 422.496 192.429 420.666 192.84C418.836 193.251 414.189 196.623 416.43 197.343C418.671 198.062 420.481 197.302 421.344 197.836C422.208 198.371 422.845 199.337 426.855 199.317C430.864 199.296 426.834 195.102 426.834 195.102Z" fill="#FFB27D"/>
<g opacity="0.6">
<g opacity="0.6">
<path opacity="0.6" d="M216.285 321.76H216.224C215.792 321.76 215.463 321.411 215.463 321L216.614 271.529L219.986 271.139L217.128 321C217.067 321.411 216.717 321.76 216.285 321.76Z" fill="#77A4E5"/>
</g>
<g opacity="0.6">
<path opacity="0.6" d="M196.69 321.76H196.628C196.196 321.76 195.867 321.411 195.867 321L197.019 271.529L200.391 271.139L197.533 321C197.471 321.411 197.121 321.76 196.69 321.76Z" fill="#77A4E5"/>
</g>
<g opacity="0.6">
<path opacity="0.6" d="M250.767 321.76H250.829C251.261 321.76 251.59 321.411 251.59 321L250.438 271.529L247.066 271.139L249.924 321C249.966 321.411 250.336 321.76 250.767 321.76Z" fill="#77A4E5"/>
</g>
<path opacity="0.6" d="M194.477 268.444V234.539C194.477 228.576 199.308 223.744 205.271 223.744H229.698C235.661 223.744 240.493 228.576 240.493 234.539V269.74L194.477 268.444Z" fill="#77A4E5"/>
<path opacity="0.6" d="M244.865 273.79H197.698C195.909 273.79 194.449 272.33 194.449 270.542V268.424H244.845V273.79H244.865Z" fill="#77A4E5"/>
<path opacity="0.6" d="M250.519 273.79H214.845C213.529 273.79 212.439 272.721 212.439 271.385V270.829C212.439 269.514 213.509 268.424 214.845 268.424H250.519C251.835 268.424 252.925 269.493 252.925 270.829V271.385C252.925 272.721 251.835 273.79 250.519 273.79Z" fill="#77A4E5"/>
</g>
<path d="M277.209 302.022C277.558 303.729 279.985 303.441 282.699 302.783C285.413 302.125 284.775 302.906 288.62 302.474C292.465 302.043 293.658 300.603 293.761 300.028C293.863 299.514 291.951 299.329 289.916 299.102C289.648 299.082 289.402 299.041 289.134 299C286.831 298.712 285.125 297.211 283.028 295.998C281.033 294.846 278.072 290.117 278.072 290.117L272.768 290.528C272.768 290.528 275.543 294.743 276.613 296.594C277.25 297.684 277.209 299.102 277.127 300.213C277.127 300.809 277.085 301.426 277.209 302.022Z" fill="#FFB27D"/>
<path d="M282.699 302.782C285.413 302.124 284.776 302.905 288.621 302.474C292.466 302.042 293.658 300.603 293.761 300.027C293.864 299.513 291.952 299.328 289.916 299.102L289.896 299.143C289.896 299.143 287.572 300.788 284.365 300.87C281.753 300.932 278.977 300.191 277.168 300.212C277.127 300.808 277.086 301.425 277.209 302.021C277.559 303.728 279.985 303.44 282.699 302.782Z" fill="#233862"/>
<path d="M231.686 309.649C230.637 311.027 232.447 312.672 234.75 314.255C237.052 315.838 236.024 315.879 238.903 318.511C241.782 321.143 243.632 321.04 244.146 320.752C244.598 320.485 243.468 318.943 242.296 317.257C242.152 317.051 242.008 316.825 241.843 316.62C240.527 314.687 240.527 312.446 240.054 310.061C239.602 307.799 243.303 299.492 243.303 299.492L237.381 298.752C237.381 298.752 236.6 303.769 235.942 305.784C235.551 306.976 233.907 307.758 233.022 308.416C232.55 308.786 232.056 309.156 231.686 309.649Z" fill="#FFB27D"/>
<path d="M234.75 314.254C237.032 315.858 236.024 315.879 238.903 318.511C241.782 321.142 243.632 321.04 244.146 320.752C244.598 320.484 243.468 318.942 242.296 317.256L242.254 317.277C242.254 317.277 239.499 316.619 237.299 314.275C235.51 312.342 234.236 309.772 233.022 308.436C232.55 308.806 232.056 309.176 231.686 309.669C230.637 311.026 232.467 312.671 234.75 314.254Z" fill="#233862"/>
<path d="M255.887 267.211L250.479 281.768L243.406 300.787C243.406 300.787 241.494 300.973 239.643 300.438C237.957 299.944 236.004 298.67 236.004 298.67C236.004 298.67 237.957 278.252 241.617 266.532C242.563 263.53 243.612 261.084 244.763 259.727C250.479 253.024 255.887 267.211 255.887 267.211Z" fill="#163560"/>
<path d="M250.396 244.1C246.86 242.949 236.168 243.648 226.01 245.622L224.448 242.908L202.509 241.201C202.509 241.201 195.271 257.259 199.24 267.478C199.815 268.979 200.987 269.946 202.961 269.987H203.29C203.29 269.987 216.347 269.987 220.582 269.987C231.5 269.987 243.673 262.482 245.256 262.174C247.826 261.66 248.875 266.821 251.445 272.228C254.015 277.636 275.686 296.203 275.686 296.203C275.686 296.203 279.017 296.244 280.395 295.73C281.875 295.174 282.41 294.455 282.41 294.455C282.41 294.455 258.394 246.67 250.396 244.1Z" fill="#2A4E96"/>
<path d="M216.759 176.495C213.675 175.755 209.48 176.618 208.781 176.7C200.454 177.667 198.583 190.62 199.2 194.239C200.351 200.901 197.144 202.793 193.319 208.118C185.65 218.81 190.955 227.631 197.185 229.81C200.927 231.126 206.026 227.548 206.026 227.548C206.129 227.59 219.268 215.027 225.786 208.92C236.745 204.417 224.634 178.366 216.759 176.495Z" fill="#233862"/>
<path d="M218.547 207.008C218.588 207.028 215.154 209.269 212.358 208.796C209.726 208.365 206.95 204.931 206.971 204.91C208.04 204.581 208.965 203.348 208.307 196.953L208.801 196.994L217.21 197.796C217.21 197.796 217.293 200.407 217.519 202.854C217.745 204.89 218.053 206.823 218.547 207.008Z" fill="#FFB27D"/>
<path d="M217.232 197.796C217.232 197.796 217.314 200.407 217.54 202.854C212.914 203.183 210.056 199.215 208.822 196.994L217.232 197.796Z" fill="#ED975D"/>
<path d="M219.001 199.956C219.001 199.956 208.103 201.231 207.425 194.425C206.746 187.619 204.875 183.219 211.784 182.109C218.713 180.999 220.316 183.466 221.118 185.687C221.92 187.907 221.817 199.442 219.001 199.956Z" fill="#FFB27D"/>
<path d="M219.801 182.191C219.801 182.191 214.538 189.716 210.076 191.361C205.614 193.006 203.496 191.978 203.496 191.978C203.496 191.978 205.634 189.038 206.334 185.008C206.539 183.815 207.362 182.828 208.513 182.437C211.721 181.307 217.889 179.579 219.801 182.191Z" fill="#233862"/>
<path d="M215.463 182.745C215.463 182.745 218.28 184.349 219.39 185.789C220.48 187.166 221.631 190.847 221.467 192.471C221.467 192.471 223.235 184.74 220.398 181.923C217.396 178.962 215.463 182.745 215.463 182.745Z" fill="#233862"/>
<path d="M226.937 225.041C226.608 247.042 226.855 242.456 224.449 244.533C223.874 245.027 222.229 245.335 220.09 245.479C213.346 245.931 201.482 244.821 201.03 243.567C199.467 239.249 200.578 237.912 199.282 231.312C199.138 230.613 198.974 229.852 198.789 229.03C197.699 224.486 196.65 222.944 200.495 215.665C203.97 209.065 207.733 203.781 208.062 203.986C217.253 209.435 217.849 204.768 217.849 204.768C217.849 204.768 227.081 214.308 226.937 225.041Z" fill="white"/>
<path d="M250.48 281.769L243.263 301.57C243.263 301.57 240.672 302.413 238.78 302.145C236.847 301.857 235.799 300.809 235.799 300.809C235.799 300.809 237.999 278.253 241.659 266.533L250.48 281.769Z" fill="#2A4E96"/>
<path d="M217.828 204.746C217.828 204.746 227.286 206.35 228.397 210.421C229.507 214.492 237.629 236.924 237.629 236.924C237.629 236.924 231.234 239.289 229.013 237.068C226.793 234.848 221.282 216.466 221.282 216.466L217.828 204.746Z" fill="white"/>
<path d="M220.07 245.478C213.326 245.931 201.462 244.82 201.009 243.566C199.447 239.248 200.557 237.912 199.262 231.312L202.428 224.115C202.428 224.115 201.976 232.36 204.998 235.054C208 237.747 217.314 240.235 218.774 242.476C219.473 243.525 219.946 244.615 220.07 245.478Z" fill="#DFEBFD"/>
<path d="M220.625 240.77C220.625 240.77 222.64 242.497 223.216 242.641C223.791 242.785 224.12 242.641 224.12 242.641L222.661 240.934L220.625 240.77Z" fill="#FFB27D"/>
<path d="M219.822 238.734L224.901 240.05C224.901 240.05 224.778 240.42 224.202 240.503C223.626 240.585 222.084 240.359 222.084 240.359L219.822 238.734Z" fill="#FFB27D"/>
<path d="M211.207 241.551C211.207 241.551 218.465 238.323 219.843 238.755C221.22 239.186 224.695 241.037 225.25 241.818C225.806 242.6 222.392 241.715 221.323 241.654C220.624 241.613 219.041 242.558 218.239 243.011C214.888 244.923 212.564 244.758 212.564 244.758L211.207 241.551Z" fill="#FFB27D"/>
<path d="M208.041 203.965C208.041 203.965 197.76 205.898 195.869 208.735C191.715 214.945 182.874 240.708 187.829 244.162C193.401 248.048 213.202 245.17 213.202 245.17C213.202 245.17 213.86 242.085 212.934 240.605C212.009 239.125 197.123 236.698 196.424 236.02C195.745 235.341 203.209 225.39 202.428 223.477C199.878 217.391 208.041 203.965 208.041 203.965Z" fill="white"/>
<path d="M248.649 240.441C248.649 240.441 255.845 242.374 256.585 243.505C257.326 244.615 258.765 248.029 258.703 248.933C258.642 249.817 256.688 247.165 255.948 246.486C255.475 246.055 253.748 245.787 252.905 245.643C250.767 245.294 249.739 244.327 248.937 243.834C248.402 243.505 247.744 243.567 247.744 243.567L248.649 240.441Z" fill="#FFB27D"/>
<path d="M255.969 245.459C255.969 245.459 256.401 247.906 256.73 248.338C257.058 248.769 257.367 248.872 257.367 248.872L257.326 246.754L255.969 245.459Z" fill="#FFB27D"/>
<path d="M256.586 243.506L259.506 247.474C259.506 247.474 259.197 247.659 258.724 247.392C258.251 247.125 257.264 246.035 257.264 246.035L256.586 243.506Z" fill="#FFB27D"/>
<path d="M248.938 243.834C248.938 243.834 249.595 245.458 250.932 246.034C252.268 246.61 253.235 247.494 253.461 247.165C253.667 246.857 252.453 245.212 252.453 245.212L248.938 243.834Z" fill="#FFB27D"/>
<path d="M235.717 231.619L250.85 241.18C250.85 241.18 249.266 243.298 248.732 243.504C245.936 244.532 233.332 243.545 229.014 237.068L235.717 231.619Z" fill="white"/>
<path d="M229.712 242.004C230.596 242.004 239.478 241.387 239.478 241.387C239.478 241.387 239.232 242.97 239.766 243.792L231.11 245.458L229.342 244.944L229.712 242.004Z" fill="#F9DDBF"/>
<path d="M214.908 243.442L229.712 242.023C229.712 242.023 229.198 244.758 231.131 245.478L214.806 246.67C214.806 246.67 213.49 244.799 214.908 243.442Z" fill="#F99746"/>
<path d="M239.459 241.592L229.445 242.352C229.445 242.352 229.528 242.003 229.713 242.003C229.898 242.003 239.664 241.283 239.664 241.283L239.623 241.55L239.459 241.592Z" fill="#F99746"/>
<path d="M231.131 245.458L239.931 243.793L239.869 243.566L230.473 245.355L231.131 245.458Z" fill="#F99746"/>
<path d="M128.572 321.678H128.49C128.017 321.678 127.646 321.288 127.646 320.815L128.921 265.567L132.663 265.135L129.476 320.815C129.435 321.308 129.045 321.678 128.572 321.678Z" fill="#77A4E5"/>
<path d="M106.818 321.678H106.736C106.263 321.678 105.893 321.288 105.893 320.815L107.167 265.567L110.91 265.135L107.723 320.815C107.681 321.308 107.291 321.678 106.818 321.678Z" fill="#77A4E5"/>
<path d="M166.836 321.678H166.918C167.391 321.678 167.761 321.288 167.761 320.815L166.486 265.567L162.744 265.135L165.931 320.815C165.952 321.308 166.363 321.678 166.836 321.678Z" fill="#77A4E5"/>
<path d="M104.357 262.153V224.3C104.357 217.638 109.724 212.23 116.345 212.23H143.465C150.086 212.23 155.452 217.638 155.452 224.3V263.593L104.357 262.153Z" fill="#77A4E5"/>
<path d="M160.298 268.116H107.949C105.954 268.116 104.33 266.492 104.33 264.497V262.133H160.277V268.116H160.298Z" fill="#77A4E5"/>
<path d="M166.569 268.116H126.968C125.487 268.116 124.295 266.924 124.295 265.443V264.806C124.295 263.325 125.487 262.133 126.968 262.133H166.548C168.029 262.133 169.221 263.325 169.221 264.806V265.443C169.221 266.924 168.029 268.116 166.569 268.116Z" fill="#77A4E5"/>
<path d="M145.267 198.248C145.267 198.248 143.005 200.181 142.512 205.177C142.142 208.981 144.773 238.486 146.768 240.83C152.361 247.431 159.351 244.634 162.086 245.642L164.677 243.318C164.677 243.318 155.589 236.615 154.89 234.415C152.217 226.006 153.862 201.435 145.267 198.248Z" fill="#F9DDBF"/>
<path d="M143.642 174.191C143.642 174.191 143.786 168.784 136.652 167.715C129.517 166.645 127.543 168.331 126.33 170.141C125.117 171.971 122.834 179.393 123.061 182.354C123.287 185.315 131.429 188.975 131.306 190.702C131.162 192.409 143.642 174.191 143.642 174.191Z" fill="#163560"/>
<path d="M176.746 317.01C176.519 318.84 179.007 319.375 181.906 319.642C184.806 319.889 183.901 320.465 187.869 321.349C191.817 322.233 193.462 321.184 193.77 320.65C194.038 320.177 192.228 319.354 190.275 318.409C190.028 318.285 189.781 318.182 189.535 318.059C187.355 316.99 186.183 314.913 184.518 312.96C182.934 311.109 181.577 305.352 181.577 305.352L176.211 303.975C176.211 303.975 177.547 309.156 178 311.377C178.267 312.672 177.753 314.091 177.301 315.18C177.075 315.756 176.828 316.352 176.746 317.01Z" fill="#FFB27D"/>
<path d="M181.906 319.621C184.805 319.868 183.901 320.443 187.869 321.328C191.817 322.212 193.462 321.163 193.77 320.628C194.037 320.156 192.228 319.333 190.275 318.387L190.234 318.428C190.234 318.428 187.396 319.292 184.189 318.284C181.577 317.462 179.089 315.755 177.28 315.18C177.033 315.776 176.807 316.372 176.725 317.01C176.519 318.84 179.007 319.374 181.906 319.621Z" fill="#233862"/>
<path d="M136.528 242.434C136.528 242.434 172.449 246.156 178.37 251.666C184.292 257.156 183.243 308.395 183.243 308.395C182.318 309.361 181.64 309.32 180.18 309.217C178.782 309.114 175.924 307.901 175.924 307.901C175.924 307.901 168.234 282.755 168.131 276.915C168.028 271.096 166.815 261.206 164.368 260.631C161.921 260.055 132.848 263.304 129.661 254.133C126.474 244.942 131.758 237.396 131.758 237.396L136.528 242.434Z" fill="#ED7D2B"/>
<path d="M119.751 251.667C121.293 252.695 124.069 254.298 128.716 254.463C137.043 254.771 147.426 253.764 149.462 251.852C149.997 251.358 150.243 250.536 150.326 249.487C150.552 246.3 149.03 241.036 148.002 236.698C147.344 233.881 146.892 231.434 147.262 230.18C148.393 226.376 151.888 218.645 152.197 216.116C152.505 213.566 149.462 199.955 145.268 198.269C141.073 196.583 124.891 198.269 124.891 198.269C118.558 199.544 118.291 213.032 120.409 224.505C120.471 224.793 120.512 225.101 120.573 225.389C122.835 237.027 115.433 248.767 119.751 251.667Z" fill="#F9DDBF"/>
<path d="M140.662 200.736C140.538 201.476 138.523 202.669 134.205 201.538C130.052 200.448 129.559 199.091 129.559 198.207C129.559 197.158 131.368 195.74 131.347 189.242L131.841 189.345L140.209 191.01C140.209 191.01 140.024 193.642 140.004 196.11C139.983 198.166 140.847 199.502 140.662 200.736Z" fill="#FFB27D"/>
<path d="M140.189 190.97C140.189 190.97 140.004 193.602 139.983 196.069C135.295 195.946 132.828 191.669 131.82 189.305L140.189 190.97Z" fill="#ED975D"/>
<path d="M141.752 193.335C141.752 193.335 130.69 193.52 130.669 186.632C130.669 179.744 129.23 175.118 136.303 174.707C143.376 174.296 144.754 176.927 145.309 179.23C145.864 181.513 144.63 193.109 141.752 193.335Z" fill="#FFB27D"/>
<path d="M141.34 174.521C141.34 174.521 138.318 182.601 133.65 183.814C129.003 185.007 126.988 183.773 126.988 183.773C126.988 183.773 130.545 180.936 131.286 176.001C131.306 175.981 139.058 170.676 141.34 174.521Z" fill="#163560"/>
<path d="M140.6 175.178C140.6 175.178 142.861 176.988 143.417 178.735C143.972 180.483 144.218 184.102 145.267 183.978C145.267 183.978 147.549 178.489 144.979 175.363C142.245 172.073 140.6 175.178 140.6 175.178Z" fill="#163560"/>
<path d="M149.77 318.511C149.749 320.362 152.278 320.608 155.198 320.526C158.118 320.444 157.275 321.122 161.305 321.534C165.335 321.945 166.836 320.711 167.082 320.156C167.308 319.642 165.396 319.046 163.361 318.347C163.114 318.264 162.847 318.162 162.6 318.079C160.318 317.257 158.919 315.345 157.048 313.597C155.28 311.952 159.187 303.974 159.187 303.974L154.067 301.445C154.067 301.445 153.101 307.141 151.846 312.117C151.517 313.412 150.469 315.53 150.14 316.64C149.955 317.236 149.79 317.853 149.77 318.511Z" fill="#FFB27D"/>
<path d="M119.977 250.289C121.519 251.317 124.069 254.298 128.736 254.463C136.406 252.715 145.144 250.68 150.346 249.466C150.572 246.28 149.051 241.016 148.023 236.677C141.957 238.528 132.951 232.216 129.908 229.728C126.721 227.116 126.824 218.398 126.824 218.398L120.409 224.485C120.471 224.772 120.512 225.081 120.574 225.369C122.835 237.027 115.639 247.41 119.977 250.289Z" fill="#F2CCAA"/>
<path d="M155.198 320.526C158.118 320.443 157.275 321.122 161.305 321.533C165.335 321.944 166.836 320.711 167.082 320.156C167.308 319.642 165.396 319.045 163.361 318.346L163.34 318.387C163.34 318.387 160.626 319.58 157.316 318.942C154.622 318.428 151.97 317.03 150.119 316.66C149.955 317.277 149.77 317.894 149.77 318.552C149.749 320.341 152.278 320.608 155.198 320.526Z" fill="#233862"/>
<path d="M128.776 244.613C137.905 244.346 165.129 246.525 170.372 250.473C176.807 255.326 158.405 307.839 158.405 307.839C158.405 307.839 156.267 308.045 155.588 307.963C152.668 307.634 151.476 306.749 151.476 306.749C151.476 306.749 151.538 275.846 153.696 269.924C155.691 264.455 156.904 262.522 154.416 262.193C151.928 261.864 120.86 265.833 118.269 256.457C116.254 249.137 119.236 242.352 119.236 242.352C119.236 242.352 120.367 244.86 128.776 244.613Z" fill="#F99746"/>
<path d="M124.89 198.248C124.89 198.248 118.558 198.783 118.064 203.8C117.694 207.603 114.939 234.559 116.913 236.903C122.505 243.503 141.113 244.901 143.848 245.909L144.609 242.784C144.609 242.784 124.726 232.77 125.034 230.488C125.343 228.226 130.956 197.343 124.89 198.248Z" fill="#F9DDBF"/>
<path d="M129.784 170.429C129.784 170.429 130.236 167.55 126.226 166.79C122.217 166.049 122.155 174.562 121.723 176.597C121.292 178.653 122.361 179.887 123.882 180.011C125.404 180.134 129.784 170.429 129.784 170.429Z" fill="#163560"/>
<path d="M144.815 242.66C144.815 242.66 150.469 241.056 151.826 241.427C153.183 241.797 157.789 244.86 157.152 245.683C156.494 246.505 152.423 245.189 150.552 245.436C148.68 245.683 147.221 246.608 145.884 246.402C144.527 246.197 143.129 245.683 143.129 245.683L144.815 242.66Z" fill="#FFB27D"/>
<path d="M144.814 242.661C144.814 242.661 147.59 241.242 148.372 240.419C148.474 240.317 148.639 240.337 148.721 240.46C148.927 240.789 149.132 241.427 148.166 242.085C146.768 242.989 144.814 242.661 144.814 242.661Z" fill="#FFB27D"/>
<path d="M164.656 243.34C164.656 243.34 170.537 243.669 171.688 244.45C172.839 245.252 176.212 249.632 175.327 250.207C174.443 250.783 171.03 248.213 169.18 247.843C167.329 247.473 165.664 247.884 164.45 247.246C163.237 246.609 162.086 245.663 162.086 245.663L164.656 243.34Z" fill="#FFB27D"/>
<path d="M124.316 322.15H100.403C99.2516 320.752 99.6834 315.57 99.8479 313.884C99.889 313.535 99.9096 313.35 99.9096 313.35C99.9096 313.35 108.072 306.832 109.183 311.828C109.224 311.993 109.265 312.137 109.306 312.281C110.725 316.948 117.058 319.086 120.718 319.683C123.103 320.053 123.987 321.286 124.316 322.15Z" fill="#1B3051"/>
<path d="M59.0944 244.49C59.958 244.49 100.032 252.016 106.653 260.22C109.963 264.311 110.456 311.664 110.456 311.664C110.456 311.664 106.365 316.743 97.5028 313.802C97.5028 313.802 91.0055 281.418 91.4989 271.59C91.6223 268.876 64.1113 271.199 59.0738 269.883C54.0363 268.588 41.7407 257.629 44.4548 252.283C47.1895 246.958 59.0944 244.49 59.0944 244.49Z" fill="#233862"/>
<path d="M88.1063 242.27C88.1063 242.27 90.6764 244.49 93.3083 245.107C94.8093 245.457 96.2691 245.868 97.1327 246.258C99.5178 247.348 104.021 252.221 103.609 252.715C102.273 254.277 96.8448 250.227 95.7962 250.515C94.7681 250.802 97.5028 253.146 96.413 253.784C95.8373 254.113 94.7681 252.077 93.7812 251.789C92.4241 251.399 91.54 249.363 91.1288 249.219C90.3475 248.952 87.0371 245.991 87.0371 245.991L88.1063 242.27Z" fill="#FFB27D"/>
<path d="M134.884 322.15H110.971C109.82 320.752 110.252 315.57 110.416 313.884C110.457 313.535 110.478 313.35 110.478 313.35C110.478 313.35 118.641 306.832 119.751 311.828C119.792 311.993 119.833 312.137 119.874 312.281C121.293 316.948 127.626 319.086 131.286 319.683C133.671 320.053 134.555 321.286 134.884 322.15Z" fill="#1E3C68"/>
<path d="M70.9186 244.49C71.7822 244.49 111.856 252.016 118.477 260.22C121.787 264.311 122.281 311.664 122.281 311.664C122.281 311.664 118.189 316.743 109.327 313.802C109.327 313.802 102.83 281.418 103.323 271.59C103.447 268.876 75.9356 271.199 70.8981 269.883C65.8606 268.588 53.5649 257.629 56.279 252.283C58.9931 246.958 70.9186 244.49 70.9186 244.49Z" fill="#2B478B"/>
<path d="M68.4088 195.802C65.5302 195.555 62.5077 194.794 59.8964 193.951C56.6272 192.882 53.9954 191.34 55.7019 188.359C57.2646 185.603 59.7936 179.456 59.6291 174.377L65.7153 179.271L69.8481 182.601C69.8481 182.601 69.8275 184.555 69.3752 188.009C69.2929 188.626 69.1901 189.304 69.0873 190.045C69.0051 190.62 69.2724 191.217 69.7658 191.525C69.807 191.546 69.8275 191.566 69.8686 191.587C71.8631 192.841 70.8145 195.987 68.4088 195.802Z" fill="#FFB27D"/>
<path d="M69.807 181.778C69.807 181.778 70.0126 182.498 69.663 185.109C65.9826 184.513 62.5488 181.573 62.5488 181.573C64.4199 181.059 65.0984 179.044 66.4966 179.229L69.807 181.778Z" fill="#ED975D"/>
<path d="M73.2201 182.376C73.2201 182.376 59.074 184.72 57.7375 175.899C56.401 167.057 53.6869 161.403 62.6722 159.532C71.6575 157.661 73.9192 160.766 75.0912 163.603C76.2221 166.441 76.8595 181.533 73.2201 182.376Z" fill="#FFB27D"/>
<path d="M77.1472 159.696C77.764 161.835 76.1191 164.425 73.405 165.268C69.3545 166.543 70.2386 171.498 68.4292 171.437C66.5993 171.375 65.8591 168.579 64.2347 170.799C62.8366 172.691 65.3862 174.953 65.2217 176.001C64.9133 177.79 62.1169 181.45 59.5879 181.265C57.0588 181.08 52.3298 169.072 53.2756 165.351C54.2214 161.629 58.0047 157.722 61.5823 157.167C65.16 156.633 70.1358 158.175 71.2872 158.175C72.4181 158.195 76.8182 158.545 77.1472 159.696Z" fill="#2B478B"/>
<path d="M80.6636 241.839C80.4169 243.874 80.0057 245.272 79.3271 245.725C77.2093 247.144 74.413 248.891 71.2877 250.639C60.2052 256.807 45.0516 262.77 41.9674 252.346C38.3486 240.091 40.7337 217.083 44.2702 202.772C46.3058 194.527 51.9807 185.892 55.7845 185.912C62.3024 185.933 71.6578 187.639 75.4411 196.974C76.9009 200.593 79.0599 213.115 80.1496 224.588C80.8281 231.414 81.116 237.87 80.6636 241.839Z" fill="white"/>
<path d="M55.1465 185.974L56.6269 182.643C56.6269 182.643 69.7038 183.979 71.9244 191.484C71.9244 191.504 61.8083 186.138 55.1465 185.974Z" fill="#DFEBFD"/>
<path d="M80.6639 241.839C80.4171 243.875 80.0059 245.273 79.3274 245.725C77.2096 247.144 74.4132 248.892 71.2879 250.64C68.0393 248.666 61.3363 243.937 59.7736 238.364C57.7381 231.086 59.1568 222.121 59.1568 222.121L80.6639 241.839Z" fill="#DFEBFD"/>
<path d="M57.7988 197.2C57.7988 197.2 58.9297 228.515 60.7185 234.703C63.7616 245.251 91.437 249.014 91.437 249.014C91.437 249.014 93.0614 247.164 92.3417 244.1C92.3417 244.1 75.7899 231.044 75.2964 228.576C74.803 226.088 78.8947 209.269 74.2273 203.142C69.5599 196.994 60.9447 191.689 57.7988 197.2Z" fill="white"/>
<path d="M23.093 321.863H23.0107C22.2705 321.842 21.6948 321.246 21.7565 320.547L26.7323 270.871L31.0707 271.262L23.936 321.205C23.8743 321.575 23.5042 321.863 23.093 321.863Z" fill="#77A4E5"/>
<path d="M48.6906 321.863H48.6084C47.8682 321.842 47.2925 321.246 47.3541 320.547L52.33 270.871L56.6684 271.262L49.5336 321.205C49.472 321.575 49.1018 321.863 48.6906 321.863Z" fill="#77A4E5"/>
<path d="M96.7629 321.863H96.8452C97.5854 321.842 98.1611 321.246 98.0994 320.547L93.1236 270.871L88.7852 271.262L95.9199 321.205C95.9816 321.575 96.3311 321.863 96.7629 321.863Z" fill="#77A4E5"/>
<path d="M24.4907 263.819L19.7616 222.326C19.1448 216.343 21.1392 210.483 29.7749 210.03L44.9491 209.105C53.955 208.735 58.0055 216.219 59.1364 221.976L68.1422 267.581L24.4907 263.819Z" fill="#77A4E5"/>
<path d="M27.0396 271.59H94.3982C95.7553 271.59 96.8656 270.48 96.8656 269.123V266.1C96.8656 264.743 95.7553 263.633 94.3982 263.633H24.5723V269.123C24.5723 270.48 25.6826 271.59 27.0396 271.59Z" fill="#77A4E5"/>
<path d="M26.4845 271.59H66.2705C67.3191 271.59 68.1826 270.726 68.1826 269.678V265.545C68.1826 264.496 67.3191 263.633 66.2705 263.633H24.5723V269.678C24.5723 270.726 25.4358 271.59 26.4845 271.59Z" fill="#77A4E5"/>
<path d="M603.866 324H4.19653C3.72362 324 3.35352 323.609 3.35352 323.157V322.396C3.35352 321.923 3.74418 321.553 4.19653 321.553H603.866C604.339 321.553 604.709 321.943 604.709 322.396V323.157C604.709 323.609 604.318 324 603.866 324Z" fill="#2E3552"/>
<path d="M131.244 137.798H107.928C106.859 137.798 105.975 136.914 105.975 135.845V113.33C105.975 112.261 106.859 111.377 107.928 111.377H131.244C132.314 111.377 133.198 112.261 133.198 113.33V135.845C133.198 136.914 132.314 137.798 131.244 137.798Z" fill="#77A4E5"/>
<path d="M130.238 136.647H108.936C107.949 136.647 107.168 135.845 107.168 134.878V114.317C107.168 113.33 107.97 112.549 108.936 112.549H130.238C131.225 112.549 132.006 113.351 132.006 114.317V134.878C132.006 135.845 131.225 136.647 130.238 136.647Z" fill="#DFEBFD"/>
<path d="M119.586 115.509C119.893 115.509 120.142 115.26 120.142 114.954C120.142 114.647 119.893 114.398 119.586 114.398C119.28 114.398 119.031 114.647 119.031 114.954C119.031 115.26 119.28 115.509 119.586 115.509Z" fill="#77A4E5"/>
<path d="M123.575 115.735C123.719 115.467 124.068 115.365 124.335 115.509C124.603 115.652 124.705 116.002 124.562 116.269C124.418 116.537 124.068 116.639 123.801 116.495C123.513 116.352 123.41 116.023 123.575 115.735Z" fill="#77A4E5"/>
<path d="M127.461 118.839C127.728 118.674 128.078 118.736 128.242 119.003C128.407 119.271 128.345 119.62 128.078 119.785C127.811 119.949 127.461 119.887 127.297 119.62C127.132 119.353 127.214 119.003 127.461 118.839Z" fill="#77A4E5"/>
<path d="M129.395 123.631C129.703 123.631 129.95 123.878 129.95 124.186C129.95 124.494 129.703 124.741 129.395 124.741C129.087 124.741 128.84 124.494 128.84 124.186C128.84 123.878 129.087 123.631 129.395 123.631Z" fill="#77A4E5"/>
<path d="M128.016 130.147C128.323 130.147 128.571 129.899 128.571 129.592C128.571 129.286 128.323 129.037 128.016 129.037C127.709 129.037 127.461 129.286 127.461 129.592C127.461 129.899 127.709 130.147 128.016 130.147Z" fill="#77A4E5"/>
<path d="M124.87 132.74C125.096 132.966 125.096 133.316 124.87 133.542C124.644 133.768 124.294 133.768 124.068 133.542C123.842 133.316 123.842 132.966 124.068 132.74C124.294 132.514 124.644 132.514 124.87 132.74Z" fill="#77A4E5"/>
<path d="M119.586 135.124C119.893 135.124 120.142 134.875 120.142 134.569C120.142 134.262 119.893 134.014 119.586 134.014C119.28 134.014 119.031 134.262 119.031 134.569C119.031 134.875 119.28 135.124 119.586 135.124Z" fill="#77A4E5"/>
<path d="M115.578 115.735C115.434 115.467 115.084 115.365 114.817 115.509C114.549 115.652 114.447 116.002 114.591 116.269C114.734 116.537 115.084 116.639 115.351 116.495C115.639 116.352 115.742 116.023 115.578 115.735Z" fill="#77A4E5"/>
<path d="M111.69 118.839C111.423 118.674 111.074 118.736 110.909 119.003C110.745 119.271 110.806 119.62 111.074 119.785C111.341 119.949 111.69 119.887 111.855 119.62C112.019 119.353 111.958 119.003 111.69 118.839Z" fill="#77A4E5"/>
<path d="M109.758 123.631C109.45 123.631 109.203 123.878 109.203 124.186C109.203 124.494 109.45 124.741 109.758 124.741C110.067 124.741 110.313 124.494 110.313 124.186C110.313 123.878 110.067 123.631 109.758 123.631Z" fill="#77A4E5"/>
<path d="M111.135 130.147C111.442 130.147 111.69 129.899 111.69 129.592C111.69 129.286 111.442 129.037 111.135 129.037C110.829 129.037 110.58 129.286 110.58 129.592C110.58 129.899 110.829 130.147 111.135 130.147Z" fill="#77A4E5"/>
<path d="M114.281 132.74C114.055 132.966 114.055 133.316 114.281 133.542C114.507 133.768 114.857 133.768 115.083 133.542C115.309 133.316 115.309 132.966 115.083 132.74C114.857 132.514 114.507 132.514 114.281 132.74Z" fill="#77A4E5"/>
<path d="M119.441 124.186C119.441 123.878 119.688 123.631 119.997 123.631C120.305 123.631 120.552 123.878 120.552 124.186C120.552 124.494 120.305 124.741 119.997 124.741C119.688 124.762 119.441 124.494 119.441 124.186Z" fill="#77A4E5"/>
<path d="M120.058 117.154H119.914V124.207H120.058V117.154Z" fill="#77A4E5"/>
<path d="M123.521 121.055L119.785 123.988L120.064 124.344L123.801 121.411L123.521 121.055Z" fill="#77A4E5"/>
</svg>
