<svg width="570" height="420" viewBox="0 0 570 420" fill="none" xmlns="http://www.w3.org/2000/svg">
<path d="M62.8711 109.227H504.822" stroke="#DED8D5" stroke-width="1.9678" stroke-miterlimit="10"/>
<path d="M499.069 353.704H68.6245C65.438 353.704 62.8711 351.137 62.8711 347.95V86.0366C62.8711 82.8501 65.438 80.2832 68.6245 80.2832H499.069C502.255 80.2832 504.822 82.8501 504.822 86.0366V347.95C504.822 351.137 502.255 353.704 499.069 353.704Z" stroke="#DED8D5" stroke-width="1.9678" stroke-miterlimit="10"/>
<path d="M91.9929 94.976C91.9929 97.1888 90.2226 99.0476 87.9213 99.0476C85.7084 99.0476 83.8496 97.2773 83.8496 94.976C83.8496 92.7631 85.6199 90.9043 87.9213 90.9043C90.1341 90.9928 91.9929 92.7631 91.9929 94.976Z" fill="#FFB1A5"/>
<path d="M107.661 94.976C107.661 97.1888 105.891 99.0476 103.589 99.0476C101.376 99.0476 99.5176 97.2773 99.5176 94.976C99.5176 92.7631 101.288 90.9043 103.589 90.9043C105.891 90.9928 107.661 92.7631 107.661 94.976Z" fill="#EAD254"/>
<path d="M123.415 94.976C123.415 97.1888 121.645 99.0476 119.343 99.0476C117.042 99.0476 115.271 97.2773 115.271 94.976C115.271 92.7631 117.042 90.9043 119.343 90.9043C121.645 90.9043 123.415 92.7631 123.415 94.976Z" fill="#00857B"/>
<path d="M562.269 206.769H458.442C455.521 206.769 453.131 204.379 453.131 201.458V105.42C453.131 102.499 455.521 100.109 458.442 100.109H562.357C565.278 100.109 567.668 102.499 567.668 105.42V201.458C567.58 204.468 565.19 206.769 562.269 206.769Z" fill="#EDEDED"/>
<path d="M562.269 206.769H458.442C455.521 206.769 453.131 204.379 453.131 201.458V105.42C453.131 102.499 455.521 100.109 458.442 100.109H562.357C565.278 100.109 567.668 102.499 567.668 105.42V201.458C567.58 204.468 565.19 206.769 562.269 206.769Z" stroke="#DED8D5" stroke-width="1.9678" stroke-miterlimit="10"/>
<path d="M483.491 179.064H537.484C540.405 179.064 542.795 176.674 542.795 173.754V129.496C542.795 126.575 540.405 124.186 537.484 124.186H483.491C480.57 124.186 478.18 126.575 478.18 129.496V173.754C478.18 176.674 480.57 179.064 483.491 179.064Z" fill="#C98BD2"/>
<path d="M525.269 160.742H499.954H495.439V140.738H525.269V145.695V160.742Z" stroke="white" stroke-width="1.6466" stroke-miterlimit="10" stroke-linecap="round" stroke-linejoin="round"/>
<path d="M495.439 140.738L510.31 152.511L525.269 140.738" stroke="white" stroke-width="1.6466" stroke-miterlimit="10" stroke-linecap="round" stroke-linejoin="round"/>
<path d="M105.093 287.229H6.04531C3.21286 287.229 1 284.927 1 282.183V195.793C1 192.961 3.30137 190.748 6.04531 190.748H105.093C107.925 190.748 110.138 193.049 110.138 195.793V282.183C110.227 285.016 107.925 287.229 105.093 287.229Z" fill="#EDEDED"/>
<path d="M105.093 287.229H6.04531C3.21286 287.229 1 284.927 1 282.183V195.793C1 192.961 3.30137 190.748 6.04531 190.748H105.093C107.925 190.748 110.138 193.049 110.138 195.793V282.183C110.227 285.016 107.925 287.229 105.093 287.229Z" stroke="#DED8D5" stroke-width="1.9678" stroke-miterlimit="10"/>
<path d="M81.0162 268.641H29.6779C26.4028 268.641 23.8359 265.986 23.8359 262.799V213.143C23.8359 209.868 26.4914 207.301 29.6779 207.301H81.0162C84.2912 207.301 86.8581 209.956 86.8581 213.143V262.799C86.9466 266.074 84.2912 268.641 81.0162 268.641Z" fill="#FFB1A5"/>
<path d="M43.1332 225.889C36.2291 232.793 36.2291 244.211 43.1332 251.116C50.0373 258.02 61.4556 258.02 68.3597 251.116C75.2638 244.211 75.2638 232.793 68.3597 225.889C61.4556 218.985 50.0373 218.985 43.1332 225.889ZM68.2712 228.456H62.6063C62.0752 226.686 61.2786 224.915 60.3934 223.057C63.58 224.119 66.3239 225.978 68.2712 228.456ZM49.1521 237.484C49.1521 235.183 49.4177 232.882 50.0373 230.58H61.4556C61.9867 232.882 62.3408 235.183 62.3408 237.484H49.1521ZM62.2522 239.609C62.0752 241.91 61.7212 244.211 61.013 246.513H50.4798C49.8602 244.211 49.4177 241.91 49.2406 239.609H62.2522ZM55.7022 222.437C56.5873 222.437 57.384 222.525 58.1806 222.614C59.2428 224.561 60.1279 226.509 60.7475 228.456H50.5684C51.188 226.509 52.0731 224.561 53.1353 222.614C54.0204 222.525 54.9056 222.437 55.7022 222.437ZM51.0109 223.145C50.1258 224.915 49.3292 226.686 48.7981 228.544H43.1332C45.169 225.978 47.9129 224.119 51.0109 223.145ZM41.7169 230.58H48.267C47.7359 232.882 47.3818 235.183 47.3818 237.484H39.6811C39.8581 235.006 40.5663 232.616 41.7169 230.58ZM41.7169 246.513C40.5663 244.477 39.7696 242.087 39.6811 239.609H47.3818C47.4704 241.91 47.8244 244.211 48.444 246.513H41.7169ZM43.1332 248.637H49.0636C49.6832 250.407 50.3913 252.266 51.2765 254.037C48.0014 253.063 45.169 251.204 43.1332 248.637ZM55.7022 254.656C54.9941 254.656 54.286 254.568 53.5778 254.479C52.6042 252.532 51.719 250.496 51.0994 248.549H60.3049C59.5968 250.496 58.8002 252.532 57.8265 254.479C57.1184 254.568 56.4103 254.656 55.7022 254.656ZM60.2164 254.037C61.1016 252.266 61.8097 250.407 62.4293 248.637H68.3597C66.2354 251.204 63.4029 253.063 60.2164 254.037ZM69.6874 246.513H62.9604C63.58 244.211 63.934 241.91 64.0225 239.609H71.7233C71.6348 242.087 70.9266 244.477 69.6874 246.513ZM71.8118 237.484H64.111C64.111 235.183 63.757 232.882 63.2259 230.58H69.776C70.9266 232.616 71.6348 235.006 71.8118 237.484Z" fill="white"/>
<path d="M99.2498 54.9673H9.49635C7.63755 54.9673 6.13281 53.4626 6.13281 51.6038C6.13281 49.745 7.63755 48.2402 9.49635 48.2402H99.2498C101.109 48.2402 102.613 49.745 102.613 51.6038C102.613 53.4626 101.109 54.9673 99.2498 54.9673Z" fill="#C98BD2"/>
<path d="M565.897 274.217H522.348C520.489 274.217 518.984 272.713 518.984 270.854C518.984 268.995 520.489 267.49 522.348 267.49H565.897C567.756 267.49 569.26 268.995 569.26 270.854C569.26 272.713 567.756 274.217 565.897 274.217Z" fill="#56DFED"/>
<path d="M535.448 313.075H530.137C528.721 313.075 527.57 311.924 527.57 310.508V305.551C527.57 304.135 528.721 302.984 530.137 302.984H535.448C536.864 302.984 538.015 304.135 538.015 305.551V310.508C537.926 311.924 536.864 313.075 535.448 313.075Z" fill="#C98BD2"/>
<path d="M30.8289 336.354H25.5181C24.1019 336.354 22.9512 335.204 22.9512 333.787V328.831C22.9512 327.414 24.1019 326.264 25.5181 326.264H30.8289C32.2452 326.264 33.3958 327.414 33.3958 328.831V333.787C33.3958 335.204 32.2452 336.354 30.8289 336.354Z" fill="#FFB1A5"/>
<path d="M438.26 51.5157H349.657C348.153 51.5157 347.002 50.365 347.002 48.8603V27.2628C347.002 25.7581 348.153 24.6074 349.657 24.6074H438.26C439.765 24.6074 440.916 25.7581 440.916 27.2628V48.8603C440.916 50.365 439.765 51.5157 438.26 51.5157Z" fill="#FFB1A5"/>
<path d="M359.838 34.166H422.772" stroke="white" stroke-width="1.1803" stroke-miterlimit="10"/>
<path d="M359.838 40.627H385.507" stroke="white" stroke-width="1.1803" stroke-miterlimit="10"/>
<path d="M357.27 48.5059V58.9505L370.458 48.5059H357.27Z" fill="#FFB1A5"/>
<path d="M220.603 53.1085H177.762C173.602 53.1085 170.238 49.745 170.238 45.5848V5.75342C170.238 2.56691 172.805 0 175.992 0H220.691C223.878 0 226.445 2.56691 226.445 5.75342V47.4436C226.356 50.5416 223.789 53.1085 220.603 53.1085Z" fill="#56DFED"/>
<path d="M211.398 30.5372L208.211 27.3507C207.68 26.7311 206.883 26.377 206.175 26.377C205.467 26.377 204.67 26.7311 204.139 27.2622L202.281 29.121C202.192 29.0325 202.015 29.0325 201.927 28.9439C201.661 28.8554 201.484 28.7669 201.395 28.6784C199.714 27.6162 198.12 26.2 196.616 24.3412C195.908 23.4561 195.376 22.6594 195.111 22.0398C195.553 21.5973 195.996 21.1547 196.35 20.8006C196.527 20.6236 196.704 20.4466 196.881 20.2696C197.501 19.65 197.855 18.9418 197.855 18.1452C197.855 17.4371 197.501 16.6405 196.881 16.0209L195.288 14.4276C195.111 14.2506 194.934 14.0736 194.757 13.8965C194.403 13.5425 194.049 13.1884 193.695 12.8344C193.164 12.3033 192.367 11.9492 191.659 11.9492C190.951 11.9492 190.243 12.2148 189.623 12.8344L187.587 14.8702C186.879 15.5783 186.348 16.552 186.259 17.7026C186.171 19.3844 186.614 20.9777 186.968 22.0398C187.853 24.6953 189.269 26.9966 191.393 29.475C193.96 32.4845 196.97 34.8744 200.51 36.6447C201.838 37.2643 203.608 37.9724 205.644 38.1494C205.733 38.1494 205.91 38.1494 206.087 38.1494C207.414 38.1494 208.565 37.6183 209.539 36.6447C209.539 36.6447 209.539 36.6447 209.627 36.5562C209.893 36.2021 210.247 35.8481 210.689 35.494C210.955 35.2285 211.22 34.9629 211.398 34.7859C212.548 33.3696 212.548 31.6879 211.398 30.5372ZM210.07 33.4582C209.804 33.7237 209.627 33.9007 209.362 34.1663C208.919 34.5203 208.654 34.8744 208.211 35.317C207.68 35.848 206.972 36.2021 206.175 36.2021C206.087 36.2021 205.998 36.2021 205.91 36.2021C204.228 36.1136 202.635 35.4055 201.484 34.8744C198.209 33.2811 195.376 31.0683 192.987 28.2358C191.039 25.9345 189.712 23.6331 188.826 21.3317C188.295 20.004 188.03 18.8533 188.118 17.7912C188.207 17.1716 188.384 16.552 188.915 16.1094L190.862 14.1621C191.039 13.985 191.305 13.7195 191.659 13.7195C192.013 13.7195 192.19 13.8965 192.455 14.1621C192.81 14.5161 193.164 14.8702 193.518 15.2242C193.695 15.4013 193.872 15.6668 194.049 15.7553L195.642 17.3486C195.819 17.5256 196.085 17.8797 196.085 18.1452C196.085 18.4993 195.819 18.7648 195.642 18.9418C195.465 19.1189 195.288 19.2959 195.111 19.4729C194.58 20.004 194.137 20.4466 193.695 20.8892C193.695 20.8892 193.695 20.8892 193.606 20.9777C193.075 21.5088 193.164 22.0398 193.252 22.3939V22.4824C193.695 23.5446 194.314 24.4297 195.111 25.5804C196.704 27.6162 198.386 29.121 200.333 30.3602C200.599 30.5372 200.864 30.6257 201.041 30.8027C201.307 30.8913 201.484 30.9798 201.572 31.0683L201.661 31.1568C202.192 31.4223 202.812 31.3338 203.254 30.8913L205.29 28.8554C205.467 28.6784 205.733 28.4129 206.087 28.4129C206.352 28.4129 206.618 28.6784 206.795 28.8554L209.981 32.0419C210.601 32.3075 210.601 32.9271 210.07 33.4582Z" fill="white"/>
<path d="M407.19 254.3L374.882 249.963L375.148 253.149L347.531 256.867C347.531 256.867 329.74 301.567 345.407 399.817H367.89L375.945 300.239H378.777L386.566 399.817H409.049C424.804 301.567 407.19 254.3 407.19 254.3Z" fill="#8E716C"/>
<path d="M365.678 300.15H389.134" stroke="#282828" stroke-width="1.2333" stroke-miterlimit="10" stroke-linecap="round" stroke-linejoin="round"/>
<path d="M426.046 207.123C423.302 202.697 407.723 202.874 406.926 202.786C402.766 202.254 409.582 235.713 418.345 264.922C420.027 270.499 426.134 273.42 431.533 271.118C431.622 271.118 431.622 271.03 431.71 271.03C435.959 269.26 438.349 264.745 437.552 260.143C433.392 238.191 429.232 212.257 426.046 207.123Z" fill="#FFB1A5"/>
<path d="M429.762 219.249L409.935 226.95L408.076 217.567L428.611 212.434L429.762 219.249Z" fill="#F3978E"/>
<path d="M433.481 238.014C433.481 238.014 424.098 250.583 424.541 250.052C424.983 249.432 431.887 229.693 431.887 229.693L433.481 238.014Z" fill="#F3978E"/>
<path d="M446.935 221.107L420.027 255.982C416.486 260.585 417.637 267.223 422.505 270.321C427.373 273.508 433.835 271.826 436.579 266.692L458.973 225.356L446.935 221.107Z" fill="#FFB1A5"/>
<path d="M453.84 230.046C447.998 228.187 444.811 221.903 446.67 216.061C448.529 210.219 454.814 207.032 460.656 208.891C466.497 210.75 469.684 217.034 467.825 222.876C465.966 228.718 459.682 231.905 453.84 230.046Z" fill="#FFB1A5"/>
<path d="M465.348 212.786C465.348 212.786 468.358 209.6 462.959 207.387C457.559 205.174 450.921 205.705 446.672 215.973L465.348 212.786Z" fill="#FFB1A5"/>
<path d="M470.922 190.747L482.164 195.616C482.783 195.881 483.049 196.589 482.695 197.297L467.824 225.002C467.47 225.622 466.674 225.976 466.054 225.71L454.813 220.842C454.193 220.577 453.928 219.869 454.282 219.16L469.152 191.456C469.506 190.836 470.303 190.482 470.922 190.747Z" fill="#372F5F"/>
<path d="M469.861 190.304L481.102 195.172C481.722 195.438 481.988 196.146 481.634 196.854L466.852 224.559C466.498 225.179 465.701 225.533 465.081 225.267L453.84 220.399C453.22 220.133 452.955 219.425 453.309 218.717L468.179 191.012C468.445 190.304 469.242 190.039 469.861 190.304Z" fill="#261B43"/>
<path d="M468.621 193.137L478.534 197.385L466.408 219.957L456.494 215.708L468.621 193.137Z" fill="#E6E6E6"/>
<path d="M478.534 197.385L456.494 215.708L468.621 193.137L478.534 197.385Z" fill="white"/>
<path d="M459.771 206.502C459.771 206.502 462.249 207.033 464.55 208.272C465.524 208.803 466.055 209.954 465.79 211.105C465.524 212.078 464.727 212.875 463.665 212.963L457.823 213.672C457.823 213.672 454.725 218.982 450.742 219.514L454.371 210.22L459.771 206.502Z" fill="#FFB1A5"/>
<path d="M384.974 163.219C384.355 163.219 426.488 169.061 433.48 217.212L411.617 220.576L407.192 256.867H346.117L333.99 189.773C333.99 189.773 347.533 170.388 372.671 163.219H384.974Z" fill="#56DFED"/>
<path d="M411.617 220.576L413.476 199.51" stroke="#282828" stroke-width="1.2333" stroke-miterlimit="10" stroke-linecap="round" stroke-linejoin="round"/>
<path d="M388.958 163.926V147.197H369.396V164.103C368.423 164.369 366.741 164.989 364.174 166.228L379.487 175.345L395.065 166.228C394.977 166.228 392.498 164.812 388.958 163.926Z" fill="#FFB1A5"/>
<path d="M369.219 149.234C369.219 149.234 372.759 158.617 382.142 157.731C390.728 157.023 389.4 144.012 389.4 144.012L369.219 149.234Z" fill="#282828"/>
<path d="M360.632 136.841C357.534 139.585 350.718 129.052 353.639 126.131C356.649 123.21 358.862 127.813 358.862 127.813L360.189 130.999L361.163 135.248L361.429 136.398L360.632 136.841Z" fill="#F3978E"/>
<path d="M355.145 129.849C355.145 129.849 357.446 128.786 359.57 132.15" stroke="#282828" stroke-width="0.9928" stroke-miterlimit="10" stroke-linecap="round" stroke-linejoin="round"/>
<path d="M396.923 136.488C399.755 139.498 407.456 129.584 404.801 126.398C402.057 123.211 399.49 127.637 399.49 127.637L397.897 130.646L396.569 134.807L396.215 135.869L396.923 136.488Z" fill="#F3978E"/>
<path d="M403.03 130.026C403.03 130.026 400.818 128.787 398.428 131.974" stroke="#282828" stroke-width="0.9928" stroke-miterlimit="10" stroke-linecap="round" stroke-linejoin="round"/>
<path d="M355.234 116.04C355.234 130.025 365.856 136.664 379.045 136.664C392.233 136.664 402.855 130.025 402.855 116.04C402.855 102.055 392.233 92.584 379.045 92.584C365.856 92.584 355.234 102.055 355.234 116.04Z" fill="#282828"/>
<path d="M358.507 117.014C358.507 125.6 359.747 133.035 360.897 138.257C362.048 143.391 365.412 147.02 370.103 149.853L370.988 150.384C375.945 153.482 382.406 153.482 387.452 150.561C392.585 147.551 396.126 143.657 397.277 138.169C399.312 128.167 399.489 117.014 399.489 117.014C399.489 117.014 401.437 95.3278 379.308 95.7704C357.18 96.1244 358.507 117.014 358.507 117.014Z" fill="#FFB1A5"/>
<path d="M377.627 129.318V132.328C377.627 132.505 377.627 132.682 377.715 132.859C377.981 133.479 378.689 133.744 379.309 133.567L380.725 133.213" stroke="#282828" stroke-width="1.2316" stroke-miterlimit="10" stroke-linecap="round" stroke-linejoin="round"/>
<path d="M374.175 117.723L363.199 120.29C363.199 120.29 363.73 117.458 368.156 116.484C372.67 115.51 374.175 117.723 374.175 117.723Z" fill="#282828"/>
<path d="M383.912 117.723L394.534 120.29C394.534 120.29 394.091 117.458 389.754 116.484C385.328 115.51 383.912 117.723 383.912 117.723Z" fill="#282828"/>
<path d="M370.013 127.638C371.04 127.638 371.872 126.805 371.872 125.779C371.872 124.752 371.04 123.92 370.013 123.92C368.987 123.92 368.154 124.752 368.154 125.779C368.154 126.805 368.987 127.638 370.013 127.638Z" fill="#282828"/>
<path d="M389.399 125.779C389.399 126.841 388.603 127.638 387.54 127.638C386.478 127.638 385.682 126.841 385.682 125.779C385.682 124.717 386.478 123.92 387.54 123.92C388.603 123.92 389.399 124.805 389.399 125.779Z" fill="#282828"/>
<path d="M371.873 137.107H386.124C386.124 137.107 379.751 144.808 371.873 137.107Z" fill="white"/>
<path d="M374.754 132.055C377.83 128.978 377.83 123.99 374.754 120.914C371.678 117.838 366.69 117.838 363.613 120.914C360.537 123.99 360.537 128.978 363.613 132.055C366.69 135.131 371.678 135.131 374.754 132.055Z" stroke="#C98BD2" stroke-width="1.3423" stroke-miterlimit="10"/>
<path d="M394.133 132.039C397.209 128.963 397.209 123.975 394.133 120.898C391.057 117.822 386.069 117.822 382.992 120.898C379.916 123.975 379.916 128.963 382.992 132.039C386.069 135.116 391.057 135.116 394.133 132.039Z" stroke="#C98BD2" stroke-width="1.3423" stroke-miterlimit="10"/>
<path d="M377.096 126.486C377.096 126.486 378.955 124.716 380.725 126.486" stroke="#C98BD2" stroke-width="1.3423" stroke-miterlimit="10"/>
<path d="M361.34 126.486H358.861" stroke="#C98BD2" stroke-width="1.3423" stroke-miterlimit="10"/>
<path d="M396.479 126.486H398.957" stroke="#C98BD2" stroke-width="1.3423" stroke-miterlimit="10"/>
<path d="M399.225 124.185C399.225 124.185 390.374 112.236 392.41 100.109C392.41 100.109 398.96 103.384 400.641 111.97C402.412 120.468 399.225 124.185 399.225 124.185Z" fill="#282828"/>
<path d="M358.508 124.982C358.508 124.982 368.776 111.439 366.74 99.3125C366.74 99.3125 359.659 103.384 357.888 111.97C356.207 120.467 358.508 124.982 358.508 124.982Z" fill="#282828"/>
<path d="M398.517 104.889C398.517 104.889 387.188 117.281 356.119 115.156C356.119 115.156 360.899 96.9226 375.946 94.9752C375.858 94.9752 393.295 92.9394 398.517 104.889Z" fill="#282828"/>
<path d="M412.418 92.711C413.727 84.6035 408.216 76.9698 400.108 75.6607C392.001 74.3516 384.367 79.8628 383.058 87.9704C381.749 96.0779 387.26 103.712 395.368 105.021C403.475 106.33 411.109 100.819 412.418 92.711Z" fill="#282828"/>
<path d="M216.619 254.213L189.003 250.495L189.268 247.309L156.961 251.646C156.961 251.646 139.346 298.912 155.013 397.163H177.496L185.285 297.585H188.118L196.172 397.163H218.655C234.41 298.912 216.619 254.213 216.619 254.213Z" fill="#282828"/>
<path d="M214.407 119.847C210.69 115.421 207.68 110.287 205.113 103.118C202.369 95.4168 193.429 98.5148 193.429 98.5148C193.429 98.5148 185.994 88.9553 174.753 92.2303C163.511 95.5938 159.617 103.56 159.44 113.031C159.174 122.502 151.739 124.007 145.986 134.983C135.807 154.367 152.89 170.654 184.047 166.14V165.874C187.145 166.848 190.862 167.202 195.465 166.936C232.818 164.723 229.278 137.284 214.407 119.847Z" fill="#282828"/>
<path d="M202.193 134.187C205.291 136.931 212.107 126.397 209.186 123.477C206.265 120.556 203.963 125.158 203.963 125.158L202.636 128.345L201.662 132.593L201.396 133.744L202.193 134.187Z" fill="#F3978E"/>
<path d="M207.769 127.194C207.769 127.194 205.468 126.132 203.344 129.496" stroke="#282828" stroke-width="0.9928" stroke-miterlimit="10" stroke-linecap="round" stroke-linejoin="round"/>
<path d="M165.901 133.922C163.068 136.931 155.368 127.018 158.023 123.831C160.767 120.645 163.334 125.071 163.334 125.071L164.927 128.08L166.255 132.24L166.609 133.302L165.901 133.922Z" fill="#F3978E"/>
<path d="M159.793 127.372C159.793 127.372 162.006 126.133 164.396 129.319" stroke="#282828" stroke-width="0.9928" stroke-miterlimit="10" stroke-linecap="round" stroke-linejoin="round"/>
<path d="M207.591 113.386C207.591 127.371 196.97 134.01 183.781 134.01C170.592 134.01 159.971 127.371 159.971 113.386C159.971 99.4007 170.592 89.9297 183.781 89.9297C196.97 89.9297 207.591 99.4007 207.591 113.386Z" fill="#282828"/>
<path d="M193.429 144.631H173.867V170.034H193.429V144.631Z" fill="#FFB1A5"/>
<path d="M171.035 143.039C171.035 143.039 176.523 153.926 183.162 155.608C184.932 156.051 186.879 155.874 188.561 155.254C191.128 154.369 194.314 150.563 194.845 146.403L195.111 144.013C195.2 144.101 183.25 150.563 171.035 143.039Z" fill="#282828"/>
<path d="M204.317 114.359C204.317 122.945 203.078 130.381 201.927 135.603C200.776 140.737 197.413 144.366 192.721 147.198L191.836 147.729C186.879 150.827 180.418 150.827 175.373 147.906C170.239 144.897 166.698 141.002 165.547 135.514C163.512 125.512 163.335 114.359 163.335 114.359C163.335 114.359 161.387 92.6735 183.516 93.1161C205.644 93.5586 204.317 114.359 204.317 114.359Z" fill="#FFB1A5"/>
<path d="M182.275 127.902V129.673C182.275 129.85 182.275 130.027 182.364 130.204C182.629 130.823 183.338 131.089 183.957 130.912L185.373 130.558" stroke="#282828" stroke-width="1.2298" stroke-miterlimit="10" stroke-linecap="round" stroke-linejoin="round"/>
<path d="M186.879 116.13L198.651 118.874C198.651 118.874 198.12 115.864 193.34 114.714C188.561 113.74 186.879 116.13 186.879 116.13Z" fill="#282828"/>
<path d="M180.772 116.13L168.822 118.874C168.822 118.874 169.353 115.864 174.222 114.714C179.09 113.74 180.772 116.13 180.772 116.13Z" fill="#282828"/>
<path d="M176.434 123.476C176.434 124.45 175.638 125.335 174.576 125.335C173.513 125.335 172.717 124.538 172.717 123.476C172.717 122.502 173.513 121.617 174.576 121.617C175.638 121.617 176.434 122.414 176.434 123.476Z" fill="#282828"/>
<path d="M194.048 123.476C194.048 124.45 193.251 125.335 192.189 125.335C191.127 125.335 190.33 124.538 190.33 123.476C190.33 122.502 191.127 121.617 192.189 121.617C193.251 121.617 194.048 122.414 194.048 123.476Z" fill="#282828"/>
<path d="M175.283 134.01H191.57C191.57 134.01 190.419 138.435 183.072 138.435C177.408 138.435 175.283 134.01 175.283 134.01Z" fill="white"/>
<path d="M163.6 121.529C163.6 121.529 172.452 109.58 170.416 97.4531C170.416 97.4531 163.866 100.728 162.184 109.314C160.414 117.811 163.6 121.529 163.6 121.529Z" fill="#282828"/>
<path d="M204.405 121.175C204.405 121.175 194.138 108.783 196.173 96.6562C196.173 96.6562 203.255 100.728 205.025 109.314C206.795 117.9 204.405 121.175 204.405 121.175Z" fill="#282828"/>
<path d="M164.396 102.232C164.396 102.232 174.576 115.863 205.644 113.739C205.644 113.739 202.104 94.266 187.056 92.3187C186.968 92.4072 169.619 90.2828 164.396 102.232Z" fill="#282828"/>
<path d="M136.074 314.224C135.631 314.932 161.92 199.775 154.13 201.546C153.422 201.723 139.703 202.962 137.667 207.122C131.736 219.071 127.576 313.428 127.576 313.428L136.074 314.224Z" fill="#FFB1A5"/>
<path d="M127.575 313.338C127.575 313.338 123.326 332.989 139.347 335.201C140.409 335.379 141.383 334.759 141.737 333.697L141.826 333.52C142.18 332.369 141.649 331.218 140.586 330.776C137.931 329.625 133.948 326.616 135.895 319.977C135.895 319.977 138.196 319.711 139.524 324.049C139.878 325.199 141.117 325.73 142.18 325.199C142.888 324.845 143.242 324.049 143.153 323.341C142.799 320.331 141.206 312.984 135.364 311.037L127.575 313.338Z" fill="#FFB1A5"/>
<path d="M132.973 234.738C132.973 234.738 148.109 256.069 148.197 255.627C148.286 255.184 153.508 225.621 153.508 225.621L135.097 217.654L132.973 234.738Z" fill="#F3978E"/>
<path d="M175.106 165.786C175.726 165.786 137.665 166.494 130.672 214.557L152.535 217.921L156.961 254.211H218.035L230.162 187.118C230.162 187.118 221.576 172.601 196.438 165.432L175.106 165.786Z" fill="#00857B"/>
<path d="M156.43 171.628C156.43 171.628 161.829 178.798 183.869 178.798C205.732 178.798 211.308 171.274 211.308 171.274C211.308 171.274 198.385 164.105 183.427 161.715C183.515 161.715 170.149 164.105 156.43 171.628Z" fill="#FFB1A5"/>
<path d="M231.402 324.051L231.491 420H278.935L282.564 324.051H231.402Z" fill="#005683"/>
<path d="M334.521 324.051L334.433 420H286.989L283.271 324.051H334.521Z" fill="#005683"/>
<path d="M308.5 324.051H259.463V357.421H308.5V324.051Z" fill="#005683"/>
<path d="M266.365 357.332H300.178" stroke="#282828" stroke-width="1.3968" stroke-miterlimit="10" stroke-linecap="round" stroke-linejoin="round"/>
<path d="M364.439 240.314C367.36 272.799 364.262 296.521 365.147 356.357L336.823 357.507L332.574 245.537L364.439 240.314Z" fill="#FFB1A5"/>
<path d="M336.115 265.63C336.115 265.63 353.641 264.037 365.679 256.071L365.325 249.078L336.115 253.061V265.63Z" fill="#F3978E"/>
<path d="M307.967 165.432C307.967 165.432 363.731 179.417 373.821 250.14C373.821 250.14 346.559 262.001 319.208 256.867L325.316 233.234L307.967 165.432Z" fill="#C98BD2"/>
<path d="M141.472 194.818L182.985 243.855L170.328 279.615C170.328 279.615 138.817 235.8 124.654 201.899L141.472 194.818Z" fill="#FFB1A5"/>
<path d="M142.888 196.59C142.888 196.59 128.283 204.822 124.654 201.812C118.192 196.59 112.793 177.559 112.793 177.559C112.793 177.559 140.055 167.292 139.79 167.646C139.524 168.177 142.888 196.59 142.888 196.59Z" fill="#FFB1A5"/>
<path d="M142.888 196.588C142.622 195.084 148.287 179.328 150.235 173.398C150.677 171.981 149.703 170.388 148.199 170.123C147.225 169.946 145.543 170.034 144.835 171.539L138.02 183.223L142.888 196.588Z" fill="#FFB1A5"/>
<path d="M142.357 179.507L137.666 156.139C137.4 154.546 135.807 153.484 134.302 153.838C132.975 154.103 132.09 155.254 132.267 156.67L134.302 174.019L142.357 179.507Z" fill="#FFB1A5"/>
<path d="M133.064 170.92L126.691 154.28C126.159 152.863 124.478 151.978 123.061 152.509C121.822 152.952 121.114 154.191 121.38 155.519L126.071 174.815L133.064 170.92Z" fill="#FFB1A5"/>
<path d="M126.159 175.788L118.105 159.413C117.396 157.908 115.538 157.2 114.033 157.82C112.617 158.439 111.997 160.033 112.617 161.537L119.078 177.027L126.159 175.788Z" fill="#FFB1A5"/>
<path d="M112.794 177.647L106.509 167.645C105.978 166.494 106.509 165.166 107.571 164.635C108.633 164.104 110.05 164.547 110.758 165.521L119.078 177.027L112.794 177.647Z" fill="#FFB1A5"/>
<path d="M141.118 177.736C141.118 177.736 131.647 176.762 130.674 189.42" stroke="#282828" stroke-width="1.5317" stroke-miterlimit="10" stroke-linecap="round" stroke-linejoin="round"/>
<path d="M161.918 262.886C161.918 262.886 169.707 289.883 185.286 286.343C200.864 282.714 225.117 249.521 225.117 249.521L219.718 192.783L176.08 246.511L161.918 262.886Z" fill="#FFB1A5"/>
<path d="M189.533 229.782C189.533 229.782 204.227 251.999 216.884 259.877L225.116 249.52L193.339 225.002L189.533 229.782Z" fill="#F3978E"/>
<path d="M253.973 164.193C253.973 164.193 210.689 173.93 187.676 224.206C187.676 224.206 201.573 245.184 223.967 254.566L238.925 236.244L253.973 164.193Z" fill="#C98BD2"/>
<path d="M253.973 164.016C237.067 172.69 226.445 184.197 226.445 184.197L229.809 331.219H336.292L335.937 184.994C335.937 184.994 322.483 171.894 307.967 165.432C295.575 159.944 266.011 157.908 253.973 164.016Z" fill="#C98BD2"/>
<path d="M304.338 235.624C296.195 235.624 289.557 228.986 289.557 220.842V206.061H319.209V220.842C319.209 229.074 312.57 235.624 304.338 235.624Z" stroke="#282828" stroke-width="1.3968" stroke-miterlimit="10" stroke-linecap="round" stroke-linejoin="round"/>
<path d="M336.113 257.488L337.529 209.336" stroke="#282828" stroke-width="1.3968" stroke-miterlimit="10" stroke-linecap="round" stroke-linejoin="round"/>
<path d="M228.038 249.432L225.736 207.742" stroke="#282828" stroke-width="1.3968" stroke-miterlimit="10" stroke-linecap="round" stroke-linejoin="round"/>
<path d="M255.211 110.377L250.786 88.4252C250.52 86.6549 249.812 83.911 250.697 81.2556C252.113 77.0069 257.247 68.6865 266.099 72.4927L268.046 81.167C268.046 81.167 258.84 83.0258 255.211 94.9753V110.377Z" fill="#282828"/>
<path d="M265.48 77.0078C265.303 79.9288 262.736 92.4978 253.796 97.1005C253.796 97.1005 245.919 80.2828 265.48 77.0078Z" fill="#282828"/>
<path d="M296.814 160.034V122.77H262.471V160.034L252.203 164.725C252.203 164.725 254.593 180.215 279.997 180.569C305.4 180.923 307.967 165.522 307.967 165.522L296.814 160.034Z" fill="#FFB1A5"/>
<path d="M266.1 72.4926C266.1 72.4926 272.384 55.8519 291.857 64.7034C303.63 70.1027 306.905 77.2724 308.321 82.3177C308.763 83.9995 308.94 86.6549 308.852 88.2481L304.161 110.377L285.75 79.7508L267.958 81.167L266.1 72.4926Z" fill="#282828"/>
<path d="M304.159 110.377C304.159 110.377 306.46 106.66 311.24 108.519C316.02 110.289 313.895 121.973 306.726 123.389C306.726 123.389 304.159 123.92 302.123 122.15C302.123 122.15 303.893 113.652 304.159 110.377Z" fill="#F3978E"/>
<path d="M310.267 112.59C310.267 112.59 306.284 111.262 303.451 117.193" stroke="#282828" stroke-width="1.3968" stroke-miterlimit="10" stroke-linecap="round" stroke-linejoin="round"/>
<path d="M255.212 110.377C255.212 110.377 252.911 106.66 248.131 108.519C243.351 110.289 245.476 121.973 252.645 123.389C252.645 123.389 255.212 123.92 257.248 122.15C257.248 122.15 255.478 113.652 255.212 110.377Z" fill="#F3978E"/>
<path d="M249.105 112.59C249.105 112.59 253.089 111.262 255.921 117.193" stroke="#282828" stroke-width="1.3968" stroke-miterlimit="10" stroke-linecap="round" stroke-linejoin="round"/>
<path d="M304.602 99.3116C304.602 106.304 303.894 120.998 299.645 129.672C295.574 137.815 288.935 142.241 280.172 142.507C271.409 142.772 264.859 139.409 259.637 128.787C254.414 118.165 254.68 99.4886 254.68 99.4886C254.68 99.4886 254.68 74.5276 279.375 74.5276C305.399 74.4391 304.602 99.3116 304.602 99.3116Z" fill="#FFB1A5"/>
<path d="M262.736 134.01C262.736 134.01 265.657 148.615 278.315 150.296C292.92 152.244 296.814 134.364 296.814 134.364C296.814 134.364 290.353 142.507 280.085 142.507C268.755 142.507 262.736 134.01 262.736 134.01Z" fill="#282828"/>
<path d="M277.871 109.756V115.509C277.871 115.775 277.96 115.952 278.048 116.217C278.402 117.103 279.376 117.457 280.261 117.28L282.208 116.748" stroke="#282828" stroke-width="1.3968" stroke-miterlimit="10" stroke-linecap="round" stroke-linejoin="round"/>
<path d="M270.613 106.924C270.613 108.163 269.64 109.137 268.4 109.137C267.161 109.137 266.188 108.163 266.188 106.924C266.188 105.685 267.161 104.711 268.4 104.711C269.551 104.711 270.613 105.685 270.613 106.924Z" fill="#282828"/>
<path d="M291.68 106.924C291.68 108.163 290.706 109.137 289.467 109.137C288.228 109.137 287.254 108.163 287.254 106.924C287.254 105.685 288.228 104.711 289.467 104.711C290.706 104.711 291.68 105.685 291.68 106.924Z" fill="#282828"/>
<path d="M283.713 95.7711L298.849 99.6657C298.849 99.6657 298.141 95.417 291.945 93.9123C285.749 92.319 283.713 95.7711 283.713 95.7711Z" fill="#282828"/>
<path d="M274.243 95.7711L259.107 99.6657C259.107 99.6657 259.816 95.417 266.012 93.9123C272.208 92.319 274.243 95.7711 274.243 95.7711Z" fill="#282828"/>
<path d="M271.232 121.352C271.232 121.352 273.445 123.033 279.376 123.033C284.687 123.033 288.05 121.352 288.05 121.352" stroke="#282828" stroke-width="1.3968" stroke-miterlimit="10" stroke-linecap="round" stroke-linejoin="round"/>
<path d="M267.692 117.191C272.972 117.191 277.252 112.911 277.252 107.632C277.252 102.352 272.972 98.0723 267.692 98.0723C262.413 98.0723 258.133 102.352 258.133 107.632C258.133 112.911 262.413 117.191 267.692 117.191Z" stroke="white" stroke-width="1.9514" stroke-miterlimit="10"/>
<path d="M291.237 117.191C296.517 117.191 300.797 112.911 300.797 107.632C300.797 102.352 296.517 98.0723 291.237 98.0723C285.958 98.0723 281.678 102.352 281.678 107.632C281.678 112.911 285.958 117.191 291.237 117.191Z" stroke="white" stroke-width="1.9514" stroke-miterlimit="10"/>
<path d="M277.252 107.632C277.252 107.632 279.553 105.507 281.589 107.632" stroke="white" stroke-width="1.9514" stroke-miterlimit="10"/>
<path d="M258.134 107.631L254.947 107.543" stroke="white" stroke-width="1.9514" stroke-miterlimit="10"/>
<path d="M300.797 107.631L304.337 107.543" stroke="white" stroke-width="1.9514" stroke-miterlimit="10"/>
<path d="M262.736 77.6272C262.736 77.6272 267.339 90.6388 288.051 90.2847C302.125 90.0192 305.489 100.198 305.489 100.198C305.489 100.198 303.01 77.4501 302.391 77.6272C301.771 77.8042 280.97 72.0508 280.97 72.0508L262.736 77.6272Z" fill="#282828"/>
</svg>
