<svg width="58" height="64" viewBox="0 0 58 64" fill="none" xmlns="http://www.w3.org/2000/svg">
<path d="M8.5 23L10.4084 28.8734L16.584 28.8734L11.5878 32.5033L13.4962 38.3766L8.5 34.7467L3.50383 38.3766L5.41219 32.5033L0.416019 28.8734L6.59163 28.8734L8.5 23Z" fill="white" fill-opacity="0.12"/>
<path d="M46.5 0L49.0819 7.9463H57.4371L50.6776 12.8574L53.2595 20.8037L46.5 15.8926L39.7405 20.8037L42.3224 12.8574L35.5628 7.9463H43.9181L46.5 0Z" fill="white" fill-opacity="0.12"/>
<path d="M35 50L36.5716 54.8369H41.6574L37.5429 57.8262L39.1145 62.6631L35 59.6738L30.8855 62.6631L32.4571 57.8262L28.3426 54.8369H33.4284L35 50Z" fill="white" fill-opacity="0.12"/>
</svg>
